<svg width="358" height="180" viewBox="0 0 358 180" fill="none" xmlns="http://www.w3.org/2000/svg">
<g filter="url(#filter0_d_1_2507)">
<g clip-path="url(#clip0_1_2507)">
<rect x="3" y="1" width="352" height="174" rx="16" fill="#15161E"/>
<mask id="path-3-inside-1_1_2507" fill="white">
<path d="M3 1H355V136H3V1Z"/>
</mask>
<path d="M3 1H355V136H3V1Z" fill="#0D0D12"/>
<path d="M355 135H3V137H355V135Z" fill="#272835" mask="url(#path-3-inside-1_1_2507)"/>
<g filter="url(#filter1_d_1_2507)">
<rect x="19" y="17" width="40" height="40" rx="10" fill="#0D0D12" shape-rendering="crispEdges"/>
<rect x="19.5" y="17.5" width="39" height="39" rx="9.5" stroke="#272835" shape-rendering="crispEdges"/>
<g clip-path="url(#clip1_1_2507)">
<path d="M36.5 43.6667C36.3284 43.6667 36.1586 43.6635 35.9909 43.6573M32.152 39.5C31.2283 39.0577 30.6666 38.4736 30.6666 37.8333C30.6666 37.193 31.2283 36.609 32.152 36.1667M32.152 39.5C31.2283 39.9423 30.6666 40.5264 30.6666 41.1667C30.6666 42.4739 33.0076 43.5467 35.9909 43.6573M32.152 39.5C33.114 39.9607 34.4689 40.2675 35.9909 40.3239M32.152 36.1667C33.2201 36.6781 34.7723 37 36.5 37C38.2276 37 39.7798 36.6781 40.8479 36.1667M32.152 36.1667C31.2283 35.7244 30.6666 35.1403 30.6666 34.5C30.6666 33.8597 31.2283 33.2756 32.152 32.8333M40.8479 36.1667C41.7716 35.7244 42.3333 35.1403 42.3333 34.5C42.3333 33.8597 41.7716 33.2756 40.8479 32.8333M40.8479 36.1667C41.3552 36.4095 41.7532 36.6952 42.0091 37.0094M40.8479 32.8333C41.7716 32.391 42.3333 31.807 42.3333 31.1667C42.3333 29.7859 39.7216 28.6667 36.5 28.6667C33.2783 28.6667 30.6666 29.7859 30.6666 31.1667C30.6666 31.807 31.2283 32.391 32.152 32.8333M40.8479 32.8333C39.7798 33.3448 38.2276 33.6667 36.5 33.6667C34.7723 33.6667 33.2201 33.3448 32.152 32.8333M45.8479 41.1667C46.7716 40.7244 47.3333 40.1403 47.3333 39.5C47.3333 38.1928 44.9923 37.1199 42.0091 37.0094M45.8479 41.1667C44.7798 41.6781 43.2276 42 41.5 42C39.7723 42 38.2201 41.6781 37.152 41.1667M45.8479 41.1667C46.7716 41.609 47.3333 42.193 47.3333 42.8333C47.3333 43.4736 46.7716 44.0577 45.8479 44.5C44.7798 45.0114 43.2276 45.3333 41.5 45.3333C39.7723 45.3333 38.2201 45.0114 37.152 44.5C36.6448 44.2571 36.2467 43.9715 35.9909 43.6573M37.152 41.1667C36.2283 41.609 35.6666 42.193 35.6666 42.8333C35.6666 43.122 35.7808 43.3993 35.9909 43.6573M37.152 41.1667C36.6448 40.9238 36.2467 40.6381 35.9909 40.3239M42.0091 37.0094C41.8413 37.0032 41.6715 37 41.5 37C38.2783 37 35.6666 38.1193 35.6666 39.5C35.6666 39.7887 35.7808 40.0659 35.9909 40.3239" stroke="#33CFFF" stroke-width="2"/>
</g>
</g>
<path d="M26.084 78.242V79.278H23.424V88H22.15V79.278H19.476V78.242H26.084ZM31.2782 88.126C30.5596 88.126 29.9062 87.9627 29.3182 87.636C28.7396 87.3093 28.2822 86.8473 27.9462 86.25C27.6196 85.6433 27.4562 84.9433 27.4562 84.15C27.4562 83.366 27.6242 82.6753 27.9602 82.078C28.3056 81.4713 28.7722 81.0093 29.3602 80.692C29.9482 80.3653 30.6062 80.202 31.3342 80.202C32.0622 80.202 32.7202 80.3653 33.3082 80.692C33.8962 81.0093 34.3582 81.4667 34.6942 82.064C35.0396 82.6613 35.2122 83.3567 35.2122 84.15C35.2122 84.9433 35.0349 85.6433 34.6802 86.25C34.3349 86.8473 33.8636 87.3093 33.2662 87.636C32.6689 87.9627 32.0062 88.126 31.2782 88.126ZM31.2782 87.006C31.7356 87.006 32.1649 86.8987 32.5662 86.684C32.9676 86.4693 33.2896 86.1473 33.5322 85.718C33.7842 85.2887 33.9102 84.766 33.9102 84.15C33.9102 83.534 33.7889 83.0113 33.5462 82.582C33.3036 82.1527 32.9862 81.8353 32.5942 81.63C32.2022 81.4153 31.7776 81.308 31.3202 81.308C30.8536 81.308 30.4242 81.4153 30.0322 81.63C29.6496 81.8353 29.3416 82.1527 29.1082 82.582C28.8749 83.0113 28.7582 83.534 28.7582 84.15C28.7582 84.7753 28.8702 85.3027 29.0942 85.732C29.3276 86.1613 29.6356 86.4833 30.0182 86.698C30.4009 86.9033 30.8209 87.006 31.2782 87.006ZM38.7213 81.378V85.9C38.7213 86.2733 38.8006 86.5393 38.9593 86.698C39.118 86.8473 39.3933 86.922 39.7853 86.922H40.7233V88H39.5753C38.866 88 38.334 87.8367 37.9793 87.51C37.6246 87.1833 37.4473 86.6467 37.4473 85.9V81.378H36.4533V80.328H37.4473V78.396H38.7213V80.328H40.7233V81.378H38.7213ZM42.0709 84.136C42.0709 83.352 42.2296 82.666 42.5469 82.078C42.8642 81.4807 43.2982 81.0187 43.8489 80.692C44.4089 80.3653 45.0296 80.202 45.7109 80.202C46.3829 80.202 46.9662 80.3467 47.4609 80.636C47.9556 80.9253 48.3242 81.2893 48.5669 81.728V80.328H49.8549V88H48.5669V86.572C48.3149 87.02 47.9369 87.3933 47.4329 87.692C46.9382 87.9813 46.3596 88.126 45.6969 88.126C45.0156 88.126 44.3996 87.958 43.8489 87.622C43.2982 87.286 42.8642 86.8147 42.5469 86.208C42.2296 85.6013 42.0709 84.9107 42.0709 84.136ZM48.5669 84.15C48.5669 83.5713 48.4502 83.0673 48.2169 82.638C47.9836 82.2087 47.6662 81.882 47.2649 81.658C46.8729 81.4247 46.4389 81.308 45.9629 81.308C45.4869 81.308 45.0529 81.42 44.6609 81.644C44.2689 81.868 43.9562 82.1947 43.7229 82.624C43.4896 83.0533 43.3729 83.5573 43.3729 84.136C43.3729 84.724 43.4896 85.2373 43.7229 85.676C43.9562 86.1053 44.2689 86.4367 44.6609 86.67C45.0529 86.894 45.4869 87.006 45.9629 87.006C46.4389 87.006 46.8729 86.894 47.2649 86.67C47.6662 86.4367 47.9836 86.1053 48.2169 85.676C48.4502 85.2373 48.5669 84.7287 48.5669 84.15ZM53.5618 77.64V88H52.2878V77.64H53.5618ZM63.1196 88.098C62.4756 88.098 61.8969 87.986 61.3836 87.762C60.8796 87.5287 60.4829 87.2113 60.1936 86.81C59.9042 86.3993 59.7549 85.928 59.7456 85.396H61.1036C61.1502 85.8533 61.3369 86.2407 61.6636 86.558C61.9996 86.866 62.4849 87.02 63.1196 87.02C63.7262 87.02 64.2022 86.8707 64.5476 86.572C64.9022 86.264 65.0796 85.872 65.0796 85.396C65.0796 85.0227 64.9769 84.7193 64.7716 84.486C64.5662 84.2527 64.3096 84.0753 64.0016 83.954C63.6936 83.8327 63.2782 83.702 62.7556 83.562C62.1116 83.394 61.5936 83.226 61.2016 83.058C60.8189 82.89 60.4876 82.6287 60.2076 82.274C59.9369 81.91 59.8016 81.4247 59.8016 80.818C59.8016 80.286 59.9369 79.8147 60.2076 79.404C60.4782 78.9933 60.8562 78.676 61.3416 78.452C61.8362 78.228 62.4009 78.116 63.0356 78.116C63.9502 78.116 64.6969 78.3447 65.2756 78.802C65.8636 79.2593 66.1949 79.866 66.2696 80.622H64.8696C64.8229 80.2487 64.6269 79.922 64.2816 79.642C63.9362 79.3527 63.4789 79.208 62.9096 79.208C62.3776 79.208 61.9436 79.348 61.6076 79.628C61.2716 79.8987 61.1036 80.2813 61.1036 80.776C61.1036 81.1307 61.2016 81.42 61.3976 81.644C61.6029 81.868 61.8502 82.0407 62.1396 82.162C62.4382 82.274 62.8536 82.4047 63.3856 82.554C64.0296 82.7313 64.5476 82.9087 64.9396 83.086C65.3316 83.254 65.6676 83.52 65.9476 83.884C66.2276 84.2387 66.3676 84.724 66.3676 85.34C66.3676 85.816 66.2416 86.264 65.9896 86.684C65.7376 87.104 65.3642 87.4447 64.8696 87.706C64.3749 87.9673 63.7916 88.098 63.1196 88.098ZM68.0464 84.136C68.0464 83.352 68.205 82.666 68.5224 82.078C68.8397 81.4807 69.2737 81.0187 69.8244 80.692C70.3844 80.3653 71.005 80.202 71.6864 80.202C72.3584 80.202 72.9417 80.3467 73.4364 80.636C73.931 80.9253 74.2997 81.2893 74.5424 81.728V80.328H75.8304V88H74.5424V86.572C74.2904 87.02 73.9124 87.3933 73.4084 87.692C72.9137 87.9813 72.335 88.126 71.6724 88.126C70.991 88.126 70.375 87.958 69.8244 87.622C69.2737 87.286 68.8397 86.8147 68.5224 86.208C68.205 85.6013 68.0464 84.9107 68.0464 84.136ZM74.5424 84.15C74.5424 83.5713 74.4257 83.0673 74.1924 82.638C73.959 82.2087 73.6417 81.882 73.2404 81.658C72.8484 81.4247 72.4144 81.308 71.9384 81.308C71.4624 81.308 71.0284 81.42 70.6364 81.644C70.2444 81.868 69.9317 82.1947 69.6984 82.624C69.465 83.0533 69.3484 83.5573 69.3484 84.136C69.3484 84.724 69.465 85.2373 69.6984 85.676C69.9317 86.1053 70.2444 86.4367 70.6364 86.67C71.0284 86.894 71.4624 87.006 71.9384 87.006C72.4144 87.006 72.8484 86.894 73.2404 86.67C73.6417 86.4367 73.959 86.1053 74.1924 85.676C74.4257 85.2373 74.5424 84.7287 74.5424 84.15ZM79.5373 77.64V88H78.2633V77.64H79.5373ZM88.9886 83.87C88.9886 84.1127 88.9746 84.3693 88.9466 84.64H82.8146C82.8613 85.396 83.118 85.9887 83.5846 86.418C84.0606 86.838 84.6346 87.048 85.3066 87.048C85.8573 87.048 86.3146 86.922 86.6786 86.67C87.052 86.4087 87.3133 86.0633 87.4626 85.634H88.8346C88.6293 86.3713 88.2186 86.9733 87.6026 87.44C86.9866 87.8973 86.2213 88.126 85.3066 88.126C84.5786 88.126 83.9253 87.9627 83.3466 87.636C82.7773 87.3093 82.3293 86.8473 82.0026 86.25C81.676 85.6433 81.5126 84.9433 81.5126 84.15C81.5126 83.3567 81.6713 82.6613 81.9886 82.064C82.306 81.4667 82.7493 81.0093 83.3186 80.692C83.8973 80.3653 84.56 80.202 85.3066 80.202C86.0346 80.202 86.6786 80.3607 87.2386 80.678C87.7986 80.9953 88.228 81.434 88.5266 81.994C88.8346 82.5447 88.9886 83.17 88.9886 83.87ZM87.6726 83.604C87.6726 83.1187 87.5653 82.7033 87.3506 82.358C87.136 82.0033 86.842 81.7373 86.4686 81.56C86.1046 81.3733 85.6986 81.28 85.2506 81.28C84.6066 81.28 84.056 81.4853 83.5986 81.896C83.1506 82.3067 82.894 82.876 82.8286 83.604H87.6726ZM93.6663 88.126C93.0783 88.126 92.5509 88.028 92.0843 87.832C91.6176 87.6267 91.2489 87.3467 90.9783 86.992C90.7076 86.628 90.5583 86.2127 90.5303 85.746H91.8463C91.8836 86.1287 92.0609 86.4413 92.3783 86.684C92.7049 86.9267 93.1296 87.048 93.6523 87.048C94.1376 87.048 94.5203 86.9407 94.8003 86.726C95.0803 86.5113 95.2203 86.2407 95.2203 85.914C95.2203 85.578 95.0709 85.3307 94.7723 85.172C94.4736 85.004 94.0116 84.8407 93.3863 84.682C92.8169 84.5327 92.3503 84.3833 91.9863 84.234C91.6316 84.0753 91.3236 83.8467 91.0623 83.548C90.8103 83.24 90.6843 82.8387 90.6843 82.344C90.6843 81.952 90.8009 81.5927 91.0343 81.266C91.2676 80.9393 91.5989 80.6827 92.0283 80.496C92.4576 80.3 92.9476 80.202 93.4983 80.202C94.3476 80.202 95.0336 80.4167 95.5563 80.846C96.0789 81.2753 96.3589 81.8633 96.3963 82.61H95.1223C95.0943 82.2087 94.9309 81.8867 94.6323 81.644C94.3429 81.4013 93.9509 81.28 93.4563 81.28C92.9989 81.28 92.6349 81.378 92.3643 81.574C92.0936 81.77 91.9583 82.0267 91.9583 82.344C91.9583 82.596 92.0376 82.806 92.1963 82.974C92.3643 83.1327 92.5696 83.2633 92.8123 83.366C93.0643 83.4593 93.4096 83.5667 93.8483 83.688C94.3989 83.8373 94.8469 83.9867 95.1923 84.136C95.5376 84.276 95.8316 84.4907 96.0743 84.78C96.3263 85.0693 96.4569 85.4473 96.4663 85.914C96.4663 86.334 96.3496 86.712 96.1163 87.048C95.8829 87.384 95.5516 87.65 95.1223 87.846C94.7023 88.0327 94.2169 88.126 93.6663 88.126Z" fill="#666D80"/>
<path d="M28.486 112.562C28.486 113.138 28.342 113.69 28.054 114.218C27.766 114.734 27.34 115.166 26.776 115.514C26.224 115.862 25.558 116.06 24.778 116.108V117.566H23.806V116.108C22.714 116.012 21.826 115.664 21.142 115.064C20.458 114.452 20.11 113.678 20.098 112.742H21.844C21.892 113.246 22.078 113.684 22.402 114.056C22.738 114.428 23.206 114.662 23.806 114.758V110.258C23.002 110.054 22.354 109.844 21.862 109.628C21.37 109.412 20.95 109.076 20.602 108.62C20.254 108.164 20.08 107.552 20.08 106.784C20.08 105.812 20.416 105.008 21.088 104.372C21.772 103.736 22.678 103.382 23.806 103.31V101.816H24.778V103.31C25.798 103.394 26.62 103.724 27.244 104.3C27.868 104.864 28.228 105.602 28.324 106.514H26.578C26.518 106.094 26.332 105.716 26.02 105.38C25.708 105.032 25.294 104.804 24.778 104.696V109.088C25.57 109.292 26.212 109.502 26.704 109.718C27.208 109.922 27.628 110.252 27.964 110.708C28.312 111.164 28.486 111.782 28.486 112.562ZM21.754 106.694C21.754 107.282 21.928 107.732 22.276 108.044C22.624 108.356 23.134 108.614 23.806 108.818V104.66C23.182 104.72 22.684 104.924 22.312 105.272C21.94 105.608 21.754 106.082 21.754 106.694ZM24.778 114.776C25.426 114.704 25.93 114.47 26.29 114.074C26.662 113.678 26.848 113.204 26.848 112.652C26.848 112.064 26.668 111.614 26.308 111.302C25.948 110.978 25.438 110.72 24.778 110.528V114.776ZM31.2773 106.262C31.3613 105.158 31.7873 104.294 32.5553 103.67C33.3233 103.046 34.3193 102.734 35.5433 102.734C36.3593 102.734 37.0613 102.884 37.6493 103.184C38.2493 103.472 38.6993 103.868 38.9993 104.372C39.3113 104.876 39.4673 105.446 39.4673 106.082C39.4673 106.826 39.2513 107.468 38.8193 108.008C38.3993 108.548 37.8473 108.896 37.1633 109.052V109.142C37.9433 109.334 38.5613 109.712 39.0173 110.276C39.4733 110.84 39.7013 111.578 39.7013 112.49C39.7013 113.174 39.5453 113.792 39.2333 114.344C38.9213 114.884 38.4533 115.31 37.8293 115.622C37.2053 115.934 36.4553 116.09 35.5793 116.09C34.3073 116.09 33.2633 115.76 32.4473 115.1C31.6313 114.428 31.1753 113.48 31.0793 112.256H32.6633C32.7473 112.976 33.0413 113.564 33.5453 114.02C34.0493 114.476 34.7213 114.704 35.5613 114.704C36.4013 114.704 37.0373 114.488 37.4693 114.056C37.9133 113.612 38.1353 113.042 38.1353 112.346C38.1353 111.446 37.8353 110.798 37.2353 110.402C36.6353 110.006 35.7293 109.808 34.5173 109.808H34.1033V108.44H34.5353C35.6393 108.428 36.4733 108.248 37.0373 107.9C37.6013 107.54 37.8833 106.988 37.8833 106.244C37.8833 105.608 37.6733 105.098 37.2533 104.714C36.8453 104.33 36.2573 104.138 35.4893 104.138C34.7453 104.138 34.1453 104.33 33.6893 104.714C33.2333 105.098 32.9633 105.614 32.8793 106.262H31.2773ZM41.7149 114.686C43.2389 113.462 44.4329 112.46 45.2969 111.68C46.1609 110.888 46.8869 110.066 47.4749 109.214C48.0749 108.35 48.3749 107.504 48.3749 106.676C48.3749 105.896 48.1829 105.284 47.7989 104.84C47.4269 104.384 46.8209 104.156 45.9809 104.156C45.1649 104.156 44.5289 104.414 44.0729 104.93C43.6289 105.434 43.3889 106.112 43.3529 106.964H41.7689C41.8169 105.62 42.2249 104.582 42.9929 103.85C43.7609 103.118 44.7509 102.752 45.9629 102.752C47.1989 102.752 48.1769 103.094 48.8969 103.778C49.6289 104.462 49.9949 105.404 49.9949 106.604C49.9949 107.6 49.6949 108.572 49.0949 109.52C48.5069 110.456 47.8349 111.284 47.0789 112.004C46.3229 112.712 45.3569 113.54 44.1809 114.488H50.3729V115.856H41.7149V114.686ZM54.2284 113.732L52.2124 118.574H51.1144L52.4284 113.732H54.2284ZM55.8348 109.358C55.8348 107.294 56.1708 105.686 56.8428 104.534C57.5148 103.37 58.6908 102.788 60.3708 102.788C62.0388 102.788 63.2088 103.37 63.8808 104.534C64.5527 105.686 64.8887 107.294 64.8887 109.358C64.8887 111.458 64.5527 113.09 63.8808 114.254C63.2088 115.418 62.0388 116 60.3708 116C58.6908 116 57.5148 115.418 56.8428 114.254C56.1708 113.09 55.8348 111.458 55.8348 109.358ZM63.2688 109.358C63.2688 108.314 63.1968 107.432 63.0528 106.712C62.9208 105.98 62.6388 105.392 62.2068 104.948C61.7868 104.504 61.1748 104.282 60.3708 104.282C59.5548 104.282 58.9308 104.504 58.4988 104.948C58.0788 105.392 57.7968 105.98 57.6528 106.712C57.5208 107.432 57.4548 108.314 57.4548 109.358C57.4548 110.438 57.5208 111.344 57.6528 112.076C57.7968 112.808 58.0788 113.396 58.4988 113.84C58.9308 114.284 59.5548 114.506 60.3708 114.506C61.1748 114.506 61.7868 114.284 62.2068 113.84C62.6388 113.396 62.9208 112.808 63.0528 112.076C63.1968 111.344 63.2688 110.438 63.2688 109.358ZM67.1375 109.358C67.1375 107.294 67.4735 105.686 68.1455 104.534C68.8175 103.37 69.9935 102.788 71.6735 102.788C73.3415 102.788 74.5115 103.37 75.1835 104.534C75.8555 105.686 76.1915 107.294 76.1915 109.358C76.1915 111.458 75.8555 113.09 75.1835 114.254C74.5115 115.418 73.3415 116 71.6735 116C69.9935 116 68.8175 115.418 68.1455 114.254C67.4735 113.09 67.1375 111.458 67.1375 109.358ZM74.5715 109.358C74.5715 108.314 74.4995 107.432 74.3555 106.712C74.2235 105.98 73.9415 105.392 73.5095 104.948C73.0895 104.504 72.4775 104.282 71.6735 104.282C70.8575 104.282 70.2335 104.504 69.8015 104.948C69.3815 105.392 69.0995 105.98 68.9555 106.712C68.8235 107.432 68.7575 108.314 68.7575 109.358C68.7575 110.438 68.8235 111.344 68.9555 112.076C69.0995 112.808 69.3815 113.396 69.8015 113.84C70.2335 114.284 70.8575 114.506 71.6735 114.506C72.4775 114.506 73.0895 114.284 73.5095 113.84C73.9415 113.396 74.2235 112.808 74.3555 112.076C74.4995 111.344 74.5715 110.438 74.5715 109.358ZM78.4402 109.358C78.4402 107.294 78.7762 105.686 79.4482 104.534C80.1202 103.37 81.2962 102.788 82.9762 102.788C84.6442 102.788 85.8142 103.37 86.4862 104.534C87.1582 105.686 87.4942 107.294 87.4942 109.358C87.4942 111.458 87.1582 113.09 86.4862 114.254C85.8142 115.418 84.6442 116 82.9762 116C81.2962 116 80.1202 115.418 79.4482 114.254C78.7762 113.09 78.4402 111.458 78.4402 109.358ZM85.8742 109.358C85.8742 108.314 85.8022 107.432 85.6582 106.712C85.5262 105.98 85.2442 105.392 84.8122 104.948C84.3922 104.504 83.7802 104.282 82.9762 104.282C82.1602 104.282 81.5362 104.504 81.1042 104.948C80.6842 105.392 80.4022 105.98 80.2582 106.712C80.1262 107.432 80.0602 108.314 80.0602 109.358C80.0602 110.438 80.1262 111.344 80.2582 112.076C80.4022 112.808 80.6842 113.396 81.1042 113.84C81.5362 114.284 82.1602 114.506 82.9762 114.506C83.7802 114.506 84.3922 114.284 84.8122 113.84C85.2442 113.396 85.5262 112.808 85.6582 112.076C85.8022 111.344 85.8742 110.438 85.8742 109.358ZM90.535 116.108C90.223 116.108 89.959 116 89.743 115.784C89.527 115.568 89.419 115.304 89.419 114.992C89.419 114.68 89.527 114.416 89.743 114.2C89.959 113.984 90.223 113.876 90.535 113.876C90.835 113.876 91.087 113.984 91.291 114.2C91.507 114.416 91.615 114.68 91.615 114.992C91.615 115.304 91.507 115.568 91.291 115.784C91.087 116 90.835 116.108 90.535 116.108ZM93.5223 109.358C93.5223 107.294 93.8583 105.686 94.5303 104.534C95.2023 103.37 96.3783 102.788 98.0583 102.788C99.7263 102.788 100.896 103.37 101.568 104.534C102.24 105.686 102.576 107.294 102.576 109.358C102.576 111.458 102.24 113.09 101.568 114.254C100.896 115.418 99.7263 116 98.0583 116C96.3783 116 95.2023 115.418 94.5303 114.254C93.8583 113.09 93.5223 111.458 93.5223 109.358ZM100.956 109.358C100.956 108.314 100.884 107.432 100.74 106.712C100.608 105.98 100.326 105.392 99.8943 104.948C99.4743 104.504 98.8623 104.282 98.0583 104.282C97.2423 104.282 96.6183 104.504 96.1863 104.948C95.7663 105.392 95.4843 105.98 95.3403 106.712C95.2083 107.432 95.1423 108.314 95.1423 109.358C95.1423 110.438 95.2083 111.344 95.3403 112.076C95.4843 112.808 95.7663 113.396 96.1863 113.84C96.6183 114.284 97.2423 114.506 98.0583 114.506C98.8623 114.506 99.4743 114.284 99.8943 113.84C100.326 113.396 100.608 112.808 100.74 112.076C100.884 111.344 100.956 110.438 100.956 109.358ZM104.825 109.358C104.825 107.294 105.161 105.686 105.833 104.534C106.505 103.37 107.681 102.788 109.361 102.788C111.029 102.788 112.199 103.37 112.871 104.534C113.543 105.686 113.879 107.294 113.879 109.358C113.879 111.458 113.543 113.09 112.871 114.254C112.199 115.418 111.029 116 109.361 116C107.681 116 106.505 115.418 105.833 114.254C105.161 113.09 104.825 111.458 104.825 109.358ZM112.259 109.358C112.259 108.314 112.187 107.432 112.043 106.712C111.911 105.98 111.629 105.392 111.197 104.948C110.777 104.504 110.165 104.282 109.361 104.282C108.545 104.282 107.921 104.504 107.489 104.948C107.069 105.392 106.787 105.98 106.643 106.712C106.511 107.432 106.445 108.314 106.445 109.358C106.445 110.438 106.511 111.344 106.643 112.076C106.787 112.808 107.069 113.396 107.489 113.84C107.921 114.284 108.545 114.506 109.361 114.506C110.165 114.506 110.777 114.284 111.197 113.84C111.629 113.396 111.911 112.808 112.043 112.076C112.187 111.344 112.259 110.438 112.259 109.358Z" fill="white"/>
<g clip-path="url(#clip2_1_2507)">
<path d="M332.535 108.464L325.464 115.536M332.535 108.464H327.232M332.535 108.464V113.768M323.107 117.893C319.853 114.638 319.853 109.362 323.107 106.107C326.362 102.853 331.638 102.853 334.893 106.107C338.147 109.362 338.147 114.638 334.893 117.893C331.638 121.147 326.362 121.147 323.107 117.893Z" stroke="#353849" stroke-width="1.66667" stroke-linecap="round" stroke-linejoin="round"/>
</g>
<path d="M27 149.167V159.833M27 149.167L23 153.167M27 149.167L31 153.167" stroke="#40C4AA" stroke-width="2" stroke-linecap="round" stroke-linejoin="round"/>
<path d="M37.532 150.04V148.878H40.164V159H38.876V150.04H37.532ZM42.6324 153.834C42.6324 152.229 42.8937 150.978 43.4164 150.082C43.939 149.177 44.8537 148.724 46.1604 148.724C47.4577 148.724 48.3677 149.177 48.8904 150.082C49.413 150.978 49.6744 152.229 49.6744 153.834C49.6744 155.467 49.413 156.737 48.8904 157.642C48.3677 158.547 47.4577 159 46.1604 159C44.8537 159 43.939 158.547 43.4164 157.642C42.8937 156.737 42.6324 155.467 42.6324 153.834ZM48.4144 153.834C48.4144 153.022 48.3584 152.336 48.2464 151.776C48.1437 151.207 47.9244 150.749 47.5884 150.404C47.2617 150.059 46.7857 149.886 46.1604 149.886C45.5257 149.886 45.0404 150.059 44.7044 150.404C44.3777 150.749 44.1584 151.207 44.0464 151.776C43.9437 152.336 43.8924 153.022 43.8924 153.834C43.8924 154.674 43.9437 155.379 44.0464 155.948C44.1584 156.517 44.3777 156.975 44.7044 157.32C45.0404 157.665 45.5257 157.838 46.1604 157.838C46.7857 157.838 47.2617 157.665 47.5884 157.32C47.9244 156.975 48.1437 156.517 48.2464 155.948C48.3584 155.379 48.4144 154.674 48.4144 153.834ZM53.2294 157.236L51.6614 161.002H50.8074L51.8294 157.236H53.2294ZM61.2128 149.984H56.2988V153.176C56.5134 152.877 56.8308 152.635 57.2508 152.448C57.6708 152.252 58.1234 152.154 58.6088 152.154C59.3834 152.154 60.0134 152.317 60.4988 152.644C60.9841 152.961 61.3294 153.377 61.5348 153.89C61.7494 154.394 61.8568 154.931 61.8568 155.5C61.8568 156.172 61.7308 156.774 61.4788 157.306C61.2268 157.838 60.8394 158.258 60.3168 158.566C59.8034 158.874 59.1641 159.028 58.3988 159.028C57.4188 159.028 56.6254 158.776 56.0188 158.272C55.4121 157.768 55.0434 157.096 54.9128 156.256H56.1588C56.2801 156.788 56.5368 157.203 56.9288 157.502C57.3208 157.801 57.8154 157.95 58.4128 157.95C59.1501 157.95 59.7054 157.731 60.0788 157.292C60.4521 156.844 60.6388 156.256 60.6388 155.528C60.6388 154.8 60.4521 154.24 60.0788 153.848C59.7054 153.447 59.1548 153.246 58.4268 153.246C57.9321 153.246 57.4981 153.367 57.1248 153.61C56.7608 153.843 56.4948 154.165 56.3268 154.576H55.1228V148.864H61.2128V149.984ZM63.5498 151.16C63.5498 150.525 63.7411 150.021 64.1238 149.648C64.5065 149.265 64.9965 149.074 65.5938 149.074C66.1911 149.074 66.6811 149.265 67.0638 149.648C67.4465 150.021 67.6378 150.525 67.6378 151.16C67.6378 151.804 67.4465 152.317 67.0638 152.7C66.6811 153.073 66.1911 153.26 65.5938 153.26C64.9965 153.26 64.5065 153.073 64.1238 152.7C63.7411 152.317 63.5498 151.804 63.5498 151.16ZM71.7258 149.228L66.0558 159H64.7958L70.4658 149.228H71.7258ZM65.5938 149.858C65.2765 149.858 65.0245 149.97 64.8378 150.194C64.6605 150.409 64.5718 150.731 64.5718 151.16C64.5718 151.589 64.6605 151.916 64.8378 152.14C65.0245 152.364 65.2765 152.476 65.5938 152.476C65.9111 152.476 66.1631 152.364 66.3498 152.14C66.5365 151.907 66.6298 151.58 66.6298 151.16C66.6298 150.731 66.5365 150.409 66.3498 150.194C66.1631 149.97 65.9111 149.858 65.5938 149.858ZM68.9118 157.068C68.9118 156.424 69.1031 155.915 69.4858 155.542C69.8685 155.159 70.3585 154.968 70.9558 154.968C71.5531 154.968 72.0385 155.159 72.4118 155.542C72.7945 155.915 72.9858 156.424 72.9858 157.068C72.9858 157.703 72.7945 158.211 72.4118 158.594C72.0385 158.977 71.5531 159.168 70.9558 159.168C70.3585 159.168 69.8685 158.981 69.4858 158.608C69.1031 158.225 68.9118 157.712 68.9118 157.068ZM70.9418 155.766C70.6245 155.766 70.3725 155.878 70.1858 156.102C69.9991 156.317 69.9058 156.639 69.9058 157.068C69.9058 157.488 69.9991 157.81 70.1858 158.034C70.3725 158.249 70.6245 158.356 70.9418 158.356C71.2591 158.356 71.5111 158.249 71.6978 158.034C71.8845 157.81 71.9778 157.488 71.9778 157.068C71.9778 156.639 71.8845 156.317 71.6978 156.102C71.5111 155.878 71.2591 155.766 70.9418 155.766Z" fill="#40C4AA"/>
<path d="M227.779 152.378H226.169V159H224.895V152.378H223.901V151.328H224.895V150.782C224.895 149.923 225.115 149.298 225.553 148.906C226.001 148.505 226.715 148.304 227.695 148.304V149.368C227.135 149.368 226.739 149.48 226.505 149.704C226.281 149.919 226.169 150.278 226.169 150.782V151.328H227.779V152.378ZM230.819 152.574C231.043 152.135 231.36 151.795 231.771 151.552C232.191 151.309 232.699 151.188 233.297 151.188V152.504H232.961C231.533 152.504 230.819 153.279 230.819 154.828V159H229.545V151.328H230.819V152.574ZM238.393 159.126C237.675 159.126 237.021 158.963 236.433 158.636C235.855 158.309 235.397 157.847 235.061 157.25C234.735 156.643 234.571 155.943 234.571 155.15C234.571 154.366 234.739 153.675 235.075 153.078C235.421 152.471 235.887 152.009 236.475 151.692C237.063 151.365 237.721 151.202 238.449 151.202C239.177 151.202 239.835 151.365 240.423 151.692C241.011 152.009 241.473 152.467 241.809 153.064C242.155 153.661 242.327 154.357 242.327 155.15C242.327 155.943 242.15 156.643 241.795 157.25C241.45 157.847 240.979 158.309 240.381 158.636C239.784 158.963 239.121 159.126 238.393 159.126ZM238.393 158.006C238.851 158.006 239.28 157.899 239.681 157.684C240.083 157.469 240.405 157.147 240.647 156.718C240.899 156.289 241.025 155.766 241.025 155.15C241.025 154.534 240.904 154.011 240.661 153.582C240.419 153.153 240.101 152.835 239.709 152.63C239.317 152.415 238.893 152.308 238.435 152.308C237.969 152.308 237.539 152.415 237.147 152.63C236.765 152.835 236.457 153.153 236.223 153.582C235.99 154.011 235.873 154.534 235.873 155.15C235.873 155.775 235.985 156.303 236.209 156.732C236.443 157.161 236.751 157.483 237.133 157.698C237.516 157.903 237.936 158.006 238.393 158.006ZM253.508 151.188C254.106 151.188 254.638 151.314 255.104 151.566C255.571 151.809 255.94 152.177 256.21 152.672C256.481 153.167 256.616 153.769 256.616 154.478V159H255.356V154.66C255.356 153.895 255.165 153.311 254.782 152.91C254.409 152.499 253.9 152.294 253.256 152.294C252.594 152.294 252.066 152.509 251.674 152.938C251.282 153.358 251.086 153.969 251.086 154.772V159H249.826V154.66C249.826 153.895 249.635 153.311 249.252 152.91C248.879 152.499 248.37 152.294 247.726 152.294C247.064 152.294 246.536 152.509 246.144 152.938C245.752 153.358 245.556 153.969 245.556 154.772V159H244.282V151.328H245.556V152.434C245.808 152.033 246.144 151.725 246.564 151.51C246.994 151.295 247.465 151.188 247.978 151.188C248.622 151.188 249.192 151.333 249.686 151.622C250.181 151.911 250.55 152.336 250.792 152.896C251.007 152.355 251.362 151.935 251.856 151.636C252.351 151.337 252.902 151.188 253.508 151.188ZM264.273 148.64V159H262.999V148.64H264.273ZM266.248 155.136C266.248 154.352 266.407 153.666 266.724 153.078C267.041 152.481 267.475 152.019 268.026 151.692C268.586 151.365 269.207 151.202 269.888 151.202C270.56 151.202 271.143 151.347 271.638 151.636C272.133 151.925 272.501 152.289 272.744 152.728V151.328H274.032V159H272.744V157.572C272.492 158.02 272.114 158.393 271.61 158.692C271.115 158.981 270.537 159.126 269.874 159.126C269.193 159.126 268.577 158.958 268.026 158.622C267.475 158.286 267.041 157.815 266.724 157.208C266.407 156.601 266.248 155.911 266.248 155.136ZM272.744 155.15C272.744 154.571 272.627 154.067 272.394 153.638C272.161 153.209 271.843 152.882 271.442 152.658C271.05 152.425 270.616 152.308 270.14 152.308C269.664 152.308 269.23 152.42 268.838 152.644C268.446 152.868 268.133 153.195 267.9 153.624C267.667 154.053 267.55 154.557 267.55 155.136C267.55 155.724 267.667 156.237 267.9 156.676C268.133 157.105 268.446 157.437 268.838 157.67C269.23 157.894 269.664 158.006 270.14 158.006C270.616 158.006 271.05 157.894 271.442 157.67C271.843 157.437 272.161 157.105 272.394 156.676C272.627 156.237 272.744 155.729 272.744 155.15ZM279.181 159.126C278.593 159.126 278.066 159.028 277.599 158.832C277.132 158.627 276.764 158.347 276.493 157.992C276.222 157.628 276.073 157.213 276.045 156.746H277.361C277.398 157.129 277.576 157.441 277.893 157.684C278.22 157.927 278.644 158.048 279.167 158.048C279.652 158.048 280.035 157.941 280.315 157.726C280.595 157.511 280.735 157.241 280.735 156.914C280.735 156.578 280.586 156.331 280.287 156.172C279.988 156.004 279.526 155.841 278.901 155.682C278.332 155.533 277.865 155.383 277.501 155.234C277.146 155.075 276.838 154.847 276.577 154.548C276.325 154.24 276.199 153.839 276.199 153.344C276.199 152.952 276.316 152.593 276.549 152.266C276.782 151.939 277.114 151.683 277.543 151.496C277.972 151.3 278.462 151.202 279.013 151.202C279.862 151.202 280.548 151.417 281.071 151.846C281.594 152.275 281.874 152.863 281.911 153.61H280.637C280.609 153.209 280.446 152.887 280.147 152.644C279.858 152.401 279.466 152.28 278.971 152.28C278.514 152.28 278.15 152.378 277.879 152.574C277.608 152.77 277.473 153.027 277.473 153.344C277.473 153.596 277.552 153.806 277.711 153.974C277.879 154.133 278.084 154.263 278.327 154.366C278.579 154.459 278.924 154.567 279.363 154.688C279.914 154.837 280.362 154.987 280.707 155.136C281.052 155.276 281.346 155.491 281.589 155.78C281.841 156.069 281.972 156.447 281.981 156.914C281.981 157.334 281.864 157.712 281.631 158.048C281.398 158.384 281.066 158.65 280.637 158.846C280.217 159.033 279.732 159.126 279.181 159.126ZM285.613 152.378V156.9C285.613 157.273 285.693 157.539 285.851 157.698C286.01 157.847 286.285 157.922 286.677 157.922H287.615V159H286.467C285.758 159 285.226 158.837 284.871 158.51C284.517 158.183 284.339 157.647 284.339 156.9V152.378H283.345V151.328H284.339V149.396H285.613V151.328H287.615V152.378H285.613ZM294.725 152.742C294.977 152.303 295.351 151.939 295.845 151.65C296.349 151.351 296.933 151.202 297.595 151.202C298.277 151.202 298.893 151.365 299.443 151.692C300.003 152.019 300.442 152.481 300.759 153.078C301.077 153.666 301.235 154.352 301.235 155.136C301.235 155.911 301.077 156.601 300.759 157.208C300.442 157.815 300.003 158.286 299.443 158.622C298.893 158.958 298.277 159.126 297.595 159.126C296.942 159.126 296.363 158.981 295.859 158.692C295.365 158.393 294.987 158.025 294.725 157.586V162.64H293.451V151.328H294.725V152.742ZM299.933 155.136C299.933 154.557 299.817 154.053 299.583 153.624C299.35 153.195 299.033 152.868 298.631 152.644C298.239 152.42 297.805 152.308 297.329 152.308C296.863 152.308 296.429 152.425 296.027 152.658C295.635 152.882 295.318 153.213 295.075 153.652C294.842 154.081 294.725 154.581 294.725 155.15C294.725 155.729 294.842 156.237 295.075 156.676C295.318 157.105 295.635 157.437 296.027 157.67C296.429 157.894 296.863 158.006 297.329 158.006C297.805 158.006 298.239 157.894 298.631 157.67C299.033 157.437 299.35 157.105 299.583 156.676C299.817 156.237 299.933 155.724 299.933 155.136ZM310.192 154.87C310.192 155.113 310.178 155.369 310.15 155.64H304.018C304.065 156.396 304.322 156.989 304.788 157.418C305.264 157.838 305.838 158.048 306.51 158.048C307.061 158.048 307.518 157.922 307.882 157.67C308.256 157.409 308.517 157.063 308.666 156.634H310.038C309.833 157.371 309.422 157.973 308.806 158.44C308.19 158.897 307.425 159.126 306.51 159.126C305.782 159.126 305.129 158.963 304.55 158.636C303.981 158.309 303.533 157.847 303.206 157.25C302.88 156.643 302.716 155.943 302.716 155.15C302.716 154.357 302.875 153.661 303.192 153.064C303.51 152.467 303.953 152.009 304.522 151.692C305.101 151.365 305.764 151.202 306.51 151.202C307.238 151.202 307.882 151.361 308.442 151.678C309.002 151.995 309.432 152.434 309.73 152.994C310.038 153.545 310.192 154.17 310.192 154.87ZM308.876 154.604C308.876 154.119 308.769 153.703 308.554 153.358C308.34 153.003 308.046 152.737 307.672 152.56C307.308 152.373 306.902 152.28 306.454 152.28C305.81 152.28 305.26 152.485 304.802 152.896C304.354 153.307 304.098 153.876 304.032 154.604H308.876ZM313.428 152.574C313.652 152.135 313.969 151.795 314.38 151.552C314.8 151.309 315.309 151.188 315.906 151.188V152.504H315.57C314.142 152.504 313.428 153.279 313.428 154.828V159H312.154V151.328H313.428V152.574ZM318.315 150.082C318.072 150.082 317.867 149.998 317.699 149.83C317.531 149.662 317.447 149.457 317.447 149.214C317.447 148.971 317.531 148.766 317.699 148.598C317.867 148.43 318.072 148.346 318.315 148.346C318.548 148.346 318.744 148.43 318.903 148.598C319.071 148.766 319.155 148.971 319.155 149.214C319.155 149.457 319.071 149.662 318.903 149.83C318.744 149.998 318.548 150.082 318.315 150.082ZM318.931 151.328V159H317.657V151.328H318.931ZM324.728 159.126C324.009 159.126 323.356 158.963 322.768 158.636C322.189 158.309 321.732 157.847 321.396 157.25C321.069 156.643 320.906 155.943 320.906 155.15C320.906 154.366 321.074 153.675 321.41 153.078C321.755 152.471 322.222 152.009 322.81 151.692C323.398 151.365 324.056 151.202 324.784 151.202C325.512 151.202 326.17 151.365 326.758 151.692C327.346 152.009 327.808 152.467 328.144 153.064C328.489 153.661 328.662 154.357 328.662 155.15C328.662 155.943 328.485 156.643 328.13 157.25C327.785 157.847 327.313 158.309 326.716 158.636C326.119 158.963 325.456 159.126 324.728 159.126ZM324.728 158.006C325.185 158.006 325.615 157.899 326.016 157.684C326.417 157.469 326.739 157.147 326.982 156.718C327.234 156.289 327.36 155.766 327.36 155.15C327.36 154.534 327.239 154.011 326.996 153.582C326.753 153.153 326.436 152.835 326.044 152.63C325.652 152.415 325.227 152.308 324.77 152.308C324.303 152.308 323.874 152.415 323.482 152.63C323.099 152.835 322.791 153.153 322.558 153.582C322.325 154.011 322.208 154.534 322.208 155.15C322.208 155.775 322.32 156.303 322.544 156.732C322.777 157.161 323.085 157.483 323.468 157.698C323.851 157.903 324.271 158.006 324.728 158.006ZM330.141 155.136C330.141 154.352 330.3 153.666 330.617 153.078C330.934 152.481 331.368 152.019 331.919 151.692C332.479 151.365 333.104 151.202 333.795 151.202C334.392 151.202 334.948 151.342 335.461 151.622C335.974 151.893 336.366 152.252 336.637 152.7V148.64H337.925V159H336.637V157.558C336.385 158.015 336.012 158.393 335.517 158.692C335.022 158.981 334.444 159.126 333.781 159.126C333.1 159.126 332.479 158.958 331.919 158.622C331.368 158.286 330.934 157.815 330.617 157.208C330.3 156.601 330.141 155.911 330.141 155.136ZM336.637 155.15C336.637 154.571 336.52 154.067 336.287 153.638C336.054 153.209 335.736 152.882 335.335 152.658C334.943 152.425 334.509 152.308 334.033 152.308C333.557 152.308 333.123 152.42 332.731 152.644C332.339 152.868 332.026 153.195 331.793 153.624C331.56 154.053 331.443 154.557 331.443 155.136C331.443 155.724 331.56 156.237 331.793 156.676C332.026 157.105 332.339 157.437 332.731 157.67C333.123 157.894 333.557 158.006 334.033 158.006C334.509 158.006 334.943 157.894 335.335 157.67C335.736 157.437 336.054 157.105 336.287 156.676C336.52 156.237 336.637 155.729 336.637 155.15Z" fill="#666D80"/>
</g>
<rect x="3.5" y="1.5" width="351" height="173" rx="15.5" stroke="#272835"/>
</g>
<defs>
<filter id="filter0_d_1_2507" x="0" y="0" width="358" height="180" filterUnits="userSpaceOnUse" color-interpolation-filters="sRGB">
<feFlood flood-opacity="0" result="BackgroundImageFix"/>
<feColorMatrix in="SourceAlpha" type="matrix" values="0 0 0 0 0 0 0 0 0 0 0 0 0 0 0 0 0 0 127 0" result="hardAlpha"/>
<feMorphology radius="1" operator="erode" in="SourceAlpha" result="effect1_dropShadow_1_2507"/>
<feOffset dy="2"/>
<feGaussianBlur stdDeviation="2"/>
<feComposite in2="hardAlpha" operator="out"/>
<feColorMatrix type="matrix" values="0 0 0 0 0.0509804 0 0 0 0 0.0509804 0 0 0 0 0.0705882 0 0 0 0.06 0"/>
<feBlend mode="normal" in2="BackgroundImageFix" result="effect1_dropShadow_1_2507"/>
<feBlend mode="normal" in="SourceGraphic" in2="effect1_dropShadow_1_2507" result="shape"/>
</filter>
<filter id="filter1_d_1_2507" x="17" y="16" width="44" height="44" filterUnits="userSpaceOnUse" color-interpolation-filters="sRGB">
<feFlood flood-opacity="0" result="BackgroundImageFix"/>
<feColorMatrix in="SourceAlpha" type="matrix" values="0 0 0 0 0 0 0 0 0 0 0 0 0 0 0 0 0 0 127 0" result="hardAlpha"/>
<feOffset dy="1"/>
<feGaussianBlur stdDeviation="1"/>
<feComposite in2="hardAlpha" operator="out"/>
<feColorMatrix type="matrix" values="0 0 0 0 0.0509804 0 0 0 0 0.0509804 0 0 0 0 0.0705882 0 0 0 0.06 0"/>
<feBlend mode="normal" in2="BackgroundImageFix" result="effect1_dropShadow_1_2507"/>
<feBlend mode="normal" in="SourceGraphic" in2="effect1_dropShadow_1_2507" result="shape"/>
</filter>
<clipPath id="clip0_1_2507">
<rect x="3" y="1" width="352" height="174" rx="16" fill="white"/>
</clipPath>
<clipPath id="clip1_1_2507">
<rect width="20" height="20" fill="white" transform="translate(29 27)"/>
</clipPath>
<clipPath id="clip2_1_2507">
<rect width="20" height="20" fill="white" transform="translate(319 102)"/>
</clipPath>
</defs>
</svg>
