<svg width="44" height="44" viewBox="0 0 44 44" fill="none" xmlns="http://www.w3.org/2000/svg">
<g filter="url(#filter0_d_1003_671)">
<rect x="2" y="1" width="40" height="40" rx="10" fill="#0D0D12" shape-rendering="crispEdges"/>
<rect x="2.5" y="1.5" width="39" height="39" rx="9.5" stroke="#272835" shape-rendering="crispEdges"/>
<path d="M23.6666 22.6667H20.3333C18.0321 22.6667 16.1666 24.5321 16.1666 26.8333V27.6667C16.1666 28.1269 16.5397 28.5 17 28.5H27C27.4602 28.5 27.8333 28.1269 27.8333 27.6667V26.8333C27.8333 24.5321 25.9678 22.6667 23.6666 22.6667Z" stroke="#33CFFF" stroke-width="2.4"/>
<path d="M22 20.1667C23.8409 20.1667 25.3333 18.6743 25.3333 16.8333C25.3333 14.9924 23.8409 13.5 22 13.5C20.159 13.5 18.6666 14.9924 18.6666 16.8333C18.6666 18.6743 20.159 20.1667 22 20.1667Z" stroke="#33CFFF" stroke-width="2.4"/>
</g>
<defs>
<filter id="filter0_d_1003_671" x="0" y="0" width="44" height="44" filterUnits="userSpaceOnUse" color-interpolation-filters="sRGB">
<feFlood flood-opacity="0" result="BackgroundImageFix"/>
<feColorMatrix in="SourceAlpha" type="matrix" values="0 0 0 0 0 0 0 0 0 0 0 0 0 0 0 0 0 0 127 0" result="hardAlpha"/>
<feOffset dy="1"/>
<feGaussianBlur stdDeviation="1"/>
<feComposite in2="hardAlpha" operator="out"/>
<feColorMatrix type="matrix" values="0 0 0 0 0.0509804 0 0 0 0 0.0509804 0 0 0 0 0.0705882 0 0 0 0.06 0"/>
<feBlend mode="normal" in2="BackgroundImageFix" result="effect1_dropShadow_1003_671"/>
<feBlend mode="normal" in="SourceGraphic" in2="effect1_dropShadow_1003_671" result="shape"/>
</filter>
</defs>
</svg>
