<svg width="1110" height="180" viewBox="0 0 1110 180" fill="none" xmlns="http://www.w3.org/2000/svg">
<g filter="url(#filter0_d_1_2506)">
<g clip-path="url(#clip0_1_2506)">
<rect x="3" y="1" width="352" height="174" rx="16" fill="#15161E"/>
<mask id="path-3-inside-1_1_2506" fill="white">
<path d="M3 1H355V136H3V1Z"/>
</mask>
<path d="M3 1H355V136H3V1Z" fill="#0D0D12"/>
<path d="M355 135H3V137H355V135Z" fill="#272835" mask="url(#path-3-inside-1_1_2506)"/>
<g filter="url(#filter1_d_1_2506)">
<rect x="19" y="17" width="40" height="40" rx="10" fill="#0D0D12" shape-rendering="crispEdges"/>
<rect x="19.5" y="17.5" width="39" height="39" rx="9.5" stroke="#272835" shape-rendering="crispEdges"/>
<g clip-path="url(#clip1_1_2506)">
<path d="M36.5 43.6667C36.3284 43.6667 36.1586 43.6635 35.9909 43.6573M32.152 39.5C31.2283 39.0577 30.6666 38.4736 30.6666 37.8333C30.6666 37.193 31.2283 36.609 32.152 36.1667M32.152 39.5C31.2283 39.9423 30.6666 40.5264 30.6666 41.1667C30.6666 42.4739 33.0076 43.5467 35.9909 43.6573M32.152 39.5C33.114 39.9607 34.4689 40.2675 35.9909 40.3239M32.152 36.1667C33.2201 36.6781 34.7723 37 36.5 37C38.2276 37 39.7798 36.6781 40.8479 36.1667M32.152 36.1667C31.2283 35.7244 30.6666 35.1403 30.6666 34.5C30.6666 33.8597 31.2283 33.2756 32.152 32.8333M40.8479 36.1667C41.7716 35.7244 42.3333 35.1403 42.3333 34.5C42.3333 33.8597 41.7716 33.2756 40.8479 32.8333M40.8479 36.1667C41.3552 36.4095 41.7532 36.6952 42.0091 37.0094M40.8479 32.8333C41.7716 32.391 42.3333 31.807 42.3333 31.1667C42.3333 29.7859 39.7216 28.6667 36.5 28.6667C33.2783 28.6667 30.6666 29.7859 30.6666 31.1667C30.6666 31.807 31.2283 32.391 32.152 32.8333M40.8479 32.8333C39.7798 33.3448 38.2276 33.6667 36.5 33.6667C34.7723 33.6667 33.2201 33.3448 32.152 32.8333M45.8479 41.1667C46.7716 40.7244 47.3333 40.1403 47.3333 39.5C47.3333 38.1928 44.9923 37.1199 42.0091 37.0094M45.8479 41.1667C44.7798 41.6781 43.2276 42 41.5 42C39.7723 42 38.2201 41.6781 37.152 41.1667M45.8479 41.1667C46.7716 41.609 47.3333 42.193 47.3333 42.8333C47.3333 43.4736 46.7716 44.0577 45.8479 44.5C44.7798 45.0114 43.2276 45.3333 41.5 45.3333C39.7723 45.3333 38.2201 45.0114 37.152 44.5C36.6448 44.2571 36.2467 43.9715 35.9909 43.6573M37.152 41.1667C36.2283 41.609 35.6666 42.193 35.6666 42.8333C35.6666 43.122 35.7808 43.3993 35.9909 43.6573M37.152 41.1667C36.6448 40.9238 36.2467 40.6381 35.9909 40.3239M42.0091 37.0094C41.8413 37.0032 41.6715 37 41.5 37C38.2783 37 35.6666 38.1193 35.6666 39.5C35.6666 39.7887 35.7808 40.0659 35.9909 40.3239" stroke="#33CFFF" stroke-width="2"/>
</g>
</g>
<path d="M26.084 78.242V79.278H23.424V88H22.15V79.278H19.476V78.242H26.084ZM31.2782 88.126C30.5596 88.126 29.9062 87.9627 29.3182 87.636C28.7396 87.3093 28.2822 86.8473 27.9462 86.25C27.6196 85.6433 27.4562 84.9433 27.4562 84.15C27.4562 83.366 27.6242 82.6753 27.9602 82.078C28.3056 81.4713 28.7722 81.0093 29.3602 80.692C29.9482 80.3653 30.6062 80.202 31.3342 80.202C32.0622 80.202 32.7202 80.3653 33.3082 80.692C33.8962 81.0093 34.3582 81.4667 34.6942 82.064C35.0396 82.6613 35.2122 83.3567 35.2122 84.15C35.2122 84.9433 35.0349 85.6433 34.6802 86.25C34.3349 86.8473 33.8636 87.3093 33.2662 87.636C32.6689 87.9627 32.0062 88.126 31.2782 88.126ZM31.2782 87.006C31.7356 87.006 32.1649 86.8987 32.5662 86.684C32.9676 86.4693 33.2896 86.1473 33.5322 85.718C33.7842 85.2887 33.9102 84.766 33.9102 84.15C33.9102 83.534 33.7889 83.0113 33.5462 82.582C33.3036 82.1527 32.9862 81.8353 32.5942 81.63C32.2022 81.4153 31.7776 81.308 31.3202 81.308C30.8536 81.308 30.4242 81.4153 30.0322 81.63C29.6496 81.8353 29.3416 82.1527 29.1082 82.582C28.8749 83.0113 28.7582 83.534 28.7582 84.15C28.7582 84.7753 28.8702 85.3027 29.0942 85.732C29.3276 86.1613 29.6356 86.4833 30.0182 86.698C30.4009 86.9033 30.8209 87.006 31.2782 87.006ZM38.7213 81.378V85.9C38.7213 86.2733 38.8006 86.5393 38.9593 86.698C39.118 86.8473 39.3933 86.922 39.7853 86.922H40.7233V88H39.5753C38.866 88 38.334 87.8367 37.9793 87.51C37.6246 87.1833 37.4473 86.6467 37.4473 85.9V81.378H36.4533V80.328H37.4473V78.396H38.7213V80.328H40.7233V81.378H38.7213ZM42.0709 84.136C42.0709 83.352 42.2296 82.666 42.5469 82.078C42.8642 81.4807 43.2982 81.0187 43.8489 80.692C44.4089 80.3653 45.0296 80.202 45.7109 80.202C46.3829 80.202 46.9662 80.3467 47.4609 80.636C47.9556 80.9253 48.3242 81.2893 48.5669 81.728V80.328H49.8549V88H48.5669V86.572C48.3149 87.02 47.9369 87.3933 47.4329 87.692C46.9382 87.9813 46.3596 88.126 45.6969 88.126C45.0156 88.126 44.3996 87.958 43.8489 87.622C43.2982 87.286 42.8642 86.8147 42.5469 86.208C42.2296 85.6013 42.0709 84.9107 42.0709 84.136ZM48.5669 84.15C48.5669 83.5713 48.4502 83.0673 48.2169 82.638C47.9836 82.2087 47.6662 81.882 47.2649 81.658C46.8729 81.4247 46.4389 81.308 45.9629 81.308C45.4869 81.308 45.0529 81.42 44.6609 81.644C44.2689 81.868 43.9562 82.1947 43.7229 82.624C43.4896 83.0533 43.3729 83.5573 43.3729 84.136C43.3729 84.724 43.4896 85.2373 43.7229 85.676C43.9562 86.1053 44.2689 86.4367 44.6609 86.67C45.0529 86.894 45.4869 87.006 45.9629 87.006C46.4389 87.006 46.8729 86.894 47.2649 86.67C47.6662 86.4367 47.9836 86.1053 48.2169 85.676C48.4502 85.2373 48.5669 84.7287 48.5669 84.15ZM53.5618 77.64V88H52.2878V77.64H53.5618ZM63.1196 88.098C62.4756 88.098 61.8969 87.986 61.3836 87.762C60.8796 87.5287 60.4829 87.2113 60.1936 86.81C59.9042 86.3993 59.7549 85.928 59.7456 85.396H61.1036C61.1502 85.8533 61.3369 86.2407 61.6636 86.558C61.9996 86.866 62.4849 87.02 63.1196 87.02C63.7262 87.02 64.2022 86.8707 64.5476 86.572C64.9022 86.264 65.0796 85.872 65.0796 85.396C65.0796 85.0227 64.9769 84.7193 64.7716 84.486C64.5662 84.2527 64.3096 84.0753 64.0016 83.954C63.6936 83.8327 63.2782 83.702 62.7556 83.562C62.1116 83.394 61.5936 83.226 61.2016 83.058C60.8189 82.89 60.4876 82.6287 60.2076 82.274C59.9369 81.91 59.8016 81.4247 59.8016 80.818C59.8016 80.286 59.9369 79.8147 60.2076 79.404C60.4782 78.9933 60.8562 78.676 61.3416 78.452C61.8362 78.228 62.4009 78.116 63.0356 78.116C63.9502 78.116 64.6969 78.3447 65.2756 78.802C65.8636 79.2593 66.1949 79.866 66.2696 80.622H64.8696C64.8229 80.2487 64.6269 79.922 64.2816 79.642C63.9362 79.3527 63.4789 79.208 62.9096 79.208C62.3776 79.208 61.9436 79.348 61.6076 79.628C61.2716 79.8987 61.1036 80.2813 61.1036 80.776C61.1036 81.1307 61.2016 81.42 61.3976 81.644C61.6029 81.868 61.8502 82.0407 62.1396 82.162C62.4382 82.274 62.8536 82.4047 63.3856 82.554C64.0296 82.7313 64.5476 82.9087 64.9396 83.086C65.3316 83.254 65.6676 83.52 65.9476 83.884C66.2276 84.2387 66.3676 84.724 66.3676 85.34C66.3676 85.816 66.2416 86.264 65.9896 86.684C65.7376 87.104 65.3642 87.4447 64.8696 87.706C64.3749 87.9673 63.7916 88.098 63.1196 88.098ZM68.0464 84.136C68.0464 83.352 68.205 82.666 68.5224 82.078C68.8397 81.4807 69.2737 81.0187 69.8244 80.692C70.3844 80.3653 71.005 80.202 71.6864 80.202C72.3584 80.202 72.9417 80.3467 73.4364 80.636C73.931 80.9253 74.2997 81.2893 74.5424 81.728V80.328H75.8304V88H74.5424V86.572C74.2904 87.02 73.9124 87.3933 73.4084 87.692C72.9137 87.9813 72.335 88.126 71.6724 88.126C70.991 88.126 70.375 87.958 69.8244 87.622C69.2737 87.286 68.8397 86.8147 68.5224 86.208C68.205 85.6013 68.0464 84.9107 68.0464 84.136ZM74.5424 84.15C74.5424 83.5713 74.4257 83.0673 74.1924 82.638C73.959 82.2087 73.6417 81.882 73.2404 81.658C72.8484 81.4247 72.4144 81.308 71.9384 81.308C71.4624 81.308 71.0284 81.42 70.6364 81.644C70.2444 81.868 69.9317 82.1947 69.6984 82.624C69.465 83.0533 69.3484 83.5573 69.3484 84.136C69.3484 84.724 69.465 85.2373 69.6984 85.676C69.9317 86.1053 70.2444 86.4367 70.6364 86.67C71.0284 86.894 71.4624 87.006 71.9384 87.006C72.4144 87.006 72.8484 86.894 73.2404 86.67C73.6417 86.4367 73.959 86.1053 74.1924 85.676C74.4257 85.2373 74.5424 84.7287 74.5424 84.15ZM79.5373 77.64V88H78.2633V77.64H79.5373ZM88.9886 83.87C88.9886 84.1127 88.9746 84.3693 88.9466 84.64H82.8146C82.8613 85.396 83.118 85.9887 83.5846 86.418C84.0606 86.838 84.6346 87.048 85.3066 87.048C85.8573 87.048 86.3146 86.922 86.6786 86.67C87.052 86.4087 87.3133 86.0633 87.4626 85.634H88.8346C88.6293 86.3713 88.2186 86.9733 87.6026 87.44C86.9866 87.8973 86.2213 88.126 85.3066 88.126C84.5786 88.126 83.9253 87.9627 83.3466 87.636C82.7773 87.3093 82.3293 86.8473 82.0026 86.25C81.676 85.6433 81.5126 84.9433 81.5126 84.15C81.5126 83.3567 81.6713 82.6613 81.9886 82.064C82.306 81.4667 82.7493 81.0093 83.3186 80.692C83.8973 80.3653 84.56 80.202 85.3066 80.202C86.0346 80.202 86.6786 80.3607 87.2386 80.678C87.7986 80.9953 88.228 81.434 88.5266 81.994C88.8346 82.5447 88.9886 83.17 88.9886 83.87ZM87.6726 83.604C87.6726 83.1187 87.5653 82.7033 87.3506 82.358C87.136 82.0033 86.842 81.7373 86.4686 81.56C86.1046 81.3733 85.6986 81.28 85.2506 81.28C84.6066 81.28 84.056 81.4853 83.5986 81.896C83.1506 82.3067 82.894 82.876 82.8286 83.604H87.6726ZM93.6663 88.126C93.0783 88.126 92.5509 88.028 92.0843 87.832C91.6176 87.6267 91.2489 87.3467 90.9783 86.992C90.7076 86.628 90.5583 86.2127 90.5303 85.746H91.8463C91.8836 86.1287 92.0609 86.4413 92.3783 86.684C92.7049 86.9267 93.1296 87.048 93.6523 87.048C94.1376 87.048 94.5203 86.9407 94.8003 86.726C95.0803 86.5113 95.2203 86.2407 95.2203 85.914C95.2203 85.578 95.0709 85.3307 94.7723 85.172C94.4736 85.004 94.0116 84.8407 93.3863 84.682C92.8169 84.5327 92.3503 84.3833 91.9863 84.234C91.6316 84.0753 91.3236 83.8467 91.0623 83.548C90.8103 83.24 90.6843 82.8387 90.6843 82.344C90.6843 81.952 90.8009 81.5927 91.0343 81.266C91.2676 80.9393 91.5989 80.6827 92.0283 80.496C92.4576 80.3 92.9476 80.202 93.4983 80.202C94.3476 80.202 95.0336 80.4167 95.5563 80.846C96.0789 81.2753 96.3589 81.8633 96.3963 82.61H95.1223C95.0943 82.2087 94.9309 81.8867 94.6323 81.644C94.3429 81.4013 93.9509 81.28 93.4563 81.28C92.9989 81.28 92.6349 81.378 92.3643 81.574C92.0936 81.77 91.9583 82.0267 91.9583 82.344C91.9583 82.596 92.0376 82.806 92.1963 82.974C92.3643 83.1327 92.5696 83.2633 92.8123 83.366C93.0643 83.4593 93.4096 83.5667 93.8483 83.688C94.3989 83.8373 94.8469 83.9867 95.1923 84.136C95.5376 84.276 95.8316 84.4907 96.0743 84.78C96.3263 85.0693 96.4569 85.4473 96.4663 85.914C96.4663 86.334 96.3496 86.712 96.1163 87.048C95.8829 87.384 95.5516 87.65 95.1223 87.846C94.7023 88.0327 94.2169 88.126 93.6663 88.126Z" fill="#666D80"/>
<path d="M28.486 112.562C28.486 113.138 28.342 113.69 28.054 114.218C27.766 114.734 27.34 115.166 26.776 115.514C26.224 115.862 25.558 116.06 24.778 116.108V117.566H23.806V116.108C22.714 116.012 21.826 115.664 21.142 115.064C20.458 114.452 20.11 113.678 20.098 112.742H21.844C21.892 113.246 22.078 113.684 22.402 114.056C22.738 114.428 23.206 114.662 23.806 114.758V110.258C23.002 110.054 22.354 109.844 21.862 109.628C21.37 109.412 20.95 109.076 20.602 108.62C20.254 108.164 20.08 107.552 20.08 106.784C20.08 105.812 20.416 105.008 21.088 104.372C21.772 103.736 22.678 103.382 23.806 103.31V101.816H24.778V103.31C25.798 103.394 26.62 103.724 27.244 104.3C27.868 104.864 28.228 105.602 28.324 106.514H26.578C26.518 106.094 26.332 105.716 26.02 105.38C25.708 105.032 25.294 104.804 24.778 104.696V109.088C25.57 109.292 26.212 109.502 26.704 109.718C27.208 109.922 27.628 110.252 27.964 110.708C28.312 111.164 28.486 111.782 28.486 112.562ZM21.754 106.694C21.754 107.282 21.928 107.732 22.276 108.044C22.624 108.356 23.134 108.614 23.806 108.818V104.66C23.182 104.72 22.684 104.924 22.312 105.272C21.94 105.608 21.754 106.082 21.754 106.694ZM24.778 114.776C25.426 114.704 25.93 114.47 26.29 114.074C26.662 113.678 26.848 113.204 26.848 112.652C26.848 112.064 26.668 111.614 26.308 111.302C25.948 110.978 25.438 110.72 24.778 110.528V114.776ZM31.2773 106.262C31.3613 105.158 31.7873 104.294 32.5553 103.67C33.3233 103.046 34.3193 102.734 35.5433 102.734C36.3593 102.734 37.0613 102.884 37.6493 103.184C38.2493 103.472 38.6993 103.868 38.9993 104.372C39.3113 104.876 39.4673 105.446 39.4673 106.082C39.4673 106.826 39.2513 107.468 38.8193 108.008C38.3993 108.548 37.8473 108.896 37.1633 109.052V109.142C37.9433 109.334 38.5613 109.712 39.0173 110.276C39.4733 110.84 39.7013 111.578 39.7013 112.49C39.7013 113.174 39.5453 113.792 39.2333 114.344C38.9213 114.884 38.4533 115.31 37.8293 115.622C37.2053 115.934 36.4553 116.09 35.5793 116.09C34.3073 116.09 33.2633 115.76 32.4473 115.1C31.6313 114.428 31.1753 113.48 31.0793 112.256H32.6633C32.7473 112.976 33.0413 113.564 33.5453 114.02C34.0493 114.476 34.7213 114.704 35.5613 114.704C36.4013 114.704 37.0373 114.488 37.4693 114.056C37.9133 113.612 38.1353 113.042 38.1353 112.346C38.1353 111.446 37.8353 110.798 37.2353 110.402C36.6353 110.006 35.7293 109.808 34.5173 109.808H34.1033V108.44H34.5353C35.6393 108.428 36.4733 108.248 37.0373 107.9C37.6013 107.54 37.8833 106.988 37.8833 106.244C37.8833 105.608 37.6733 105.098 37.2533 104.714C36.8453 104.33 36.2573 104.138 35.4893 104.138C34.7453 104.138 34.1453 104.33 33.6893 104.714C33.2333 105.098 32.9633 105.614 32.8793 106.262H31.2773ZM41.7149 114.686C43.2389 113.462 44.4329 112.46 45.2969 111.68C46.1609 110.888 46.8869 110.066 47.4749 109.214C48.0749 108.35 48.3749 107.504 48.3749 106.676C48.3749 105.896 48.1829 105.284 47.7989 104.84C47.4269 104.384 46.8209 104.156 45.9809 104.156C45.1649 104.156 44.5289 104.414 44.0729 104.93C43.6289 105.434 43.3889 106.112 43.3529 106.964H41.7689C41.8169 105.62 42.2249 104.582 42.9929 103.85C43.7609 103.118 44.7509 102.752 45.9629 102.752C47.1989 102.752 48.1769 103.094 48.8969 103.778C49.6289 104.462 49.9949 105.404 49.9949 106.604C49.9949 107.6 49.6949 108.572 49.0949 109.52C48.5069 110.456 47.8349 111.284 47.0789 112.004C46.3229 112.712 45.3569 113.54 44.1809 114.488H50.3729V115.856H41.7149V114.686ZM54.2284 113.732L52.2124 118.574H51.1144L52.4284 113.732H54.2284ZM55.8348 109.358C55.8348 107.294 56.1708 105.686 56.8428 104.534C57.5148 103.37 58.6908 102.788 60.3708 102.788C62.0388 102.788 63.2088 103.37 63.8808 104.534C64.5527 105.686 64.8887 107.294 64.8887 109.358C64.8887 111.458 64.5527 113.09 63.8808 114.254C63.2088 115.418 62.0388 116 60.3708 116C58.6908 116 57.5148 115.418 56.8428 114.254C56.1708 113.09 55.8348 111.458 55.8348 109.358ZM63.2688 109.358C63.2688 108.314 63.1968 107.432 63.0528 106.712C62.9208 105.98 62.6388 105.392 62.2068 104.948C61.7868 104.504 61.1748 104.282 60.3708 104.282C59.5548 104.282 58.9308 104.504 58.4988 104.948C58.0788 105.392 57.7968 105.98 57.6528 106.712C57.5208 107.432 57.4548 108.314 57.4548 109.358C57.4548 110.438 57.5208 111.344 57.6528 112.076C57.7968 112.808 58.0788 113.396 58.4988 113.84C58.9308 114.284 59.5548 114.506 60.3708 114.506C61.1748 114.506 61.7868 114.284 62.2068 113.84C62.6388 113.396 62.9208 112.808 63.0528 112.076C63.1968 111.344 63.2688 110.438 63.2688 109.358ZM67.1375 109.358C67.1375 107.294 67.4735 105.686 68.1455 104.534C68.8175 103.37 69.9935 102.788 71.6735 102.788C73.3415 102.788 74.5115 103.37 75.1835 104.534C75.8555 105.686 76.1915 107.294 76.1915 109.358C76.1915 111.458 75.8555 113.09 75.1835 114.254C74.5115 115.418 73.3415 116 71.6735 116C69.9935 116 68.8175 115.418 68.1455 114.254C67.4735 113.09 67.1375 111.458 67.1375 109.358ZM74.5715 109.358C74.5715 108.314 74.4995 107.432 74.3555 106.712C74.2235 105.98 73.9415 105.392 73.5095 104.948C73.0895 104.504 72.4775 104.282 71.6735 104.282C70.8575 104.282 70.2335 104.504 69.8015 104.948C69.3815 105.392 69.0995 105.98 68.9555 106.712C68.8235 107.432 68.7575 108.314 68.7575 109.358C68.7575 110.438 68.8235 111.344 68.9555 112.076C69.0995 112.808 69.3815 113.396 69.8015 113.84C70.2335 114.284 70.8575 114.506 71.6735 114.506C72.4775 114.506 73.0895 114.284 73.5095 113.84C73.9415 113.396 74.2235 112.808 74.3555 112.076C74.4995 111.344 74.5715 110.438 74.5715 109.358ZM78.4402 109.358C78.4402 107.294 78.7762 105.686 79.4482 104.534C80.1202 103.37 81.2962 102.788 82.9762 102.788C84.6442 102.788 85.8142 103.37 86.4862 104.534C87.1582 105.686 87.4942 107.294 87.4942 109.358C87.4942 111.458 87.1582 113.09 86.4862 114.254C85.8142 115.418 84.6442 116 82.9762 116C81.2962 116 80.1202 115.418 79.4482 114.254C78.7762 113.09 78.4402 111.458 78.4402 109.358ZM85.8742 109.358C85.8742 108.314 85.8022 107.432 85.6582 106.712C85.5262 105.98 85.2442 105.392 84.8122 104.948C84.3922 104.504 83.7802 104.282 82.9762 104.282C82.1602 104.282 81.5362 104.504 81.1042 104.948C80.6842 105.392 80.4022 105.98 80.2582 106.712C80.1262 107.432 80.0602 108.314 80.0602 109.358C80.0602 110.438 80.1262 111.344 80.2582 112.076C80.4022 112.808 80.6842 113.396 81.1042 113.84C81.5362 114.284 82.1602 114.506 82.9762 114.506C83.7802 114.506 84.3922 114.284 84.8122 113.84C85.2442 113.396 85.5262 112.808 85.6582 112.076C85.8022 111.344 85.8742 110.438 85.8742 109.358ZM90.535 116.108C90.223 116.108 89.959 116 89.743 115.784C89.527 115.568 89.419 115.304 89.419 114.992C89.419 114.68 89.527 114.416 89.743 114.2C89.959 113.984 90.223 113.876 90.535 113.876C90.835 113.876 91.087 113.984 91.291 114.2C91.507 114.416 91.615 114.68 91.615 114.992C91.615 115.304 91.507 115.568 91.291 115.784C91.087 116 90.835 116.108 90.535 116.108ZM93.5223 109.358C93.5223 107.294 93.8583 105.686 94.5303 104.534C95.2023 103.37 96.3783 102.788 98.0583 102.788C99.7263 102.788 100.896 103.37 101.568 104.534C102.24 105.686 102.576 107.294 102.576 109.358C102.576 111.458 102.24 113.09 101.568 114.254C100.896 115.418 99.7263 116 98.0583 116C96.3783 116 95.2023 115.418 94.5303 114.254C93.8583 113.09 93.5223 111.458 93.5223 109.358ZM100.956 109.358C100.956 108.314 100.884 107.432 100.74 106.712C100.608 105.98 100.326 105.392 99.8943 104.948C99.4743 104.504 98.8623 104.282 98.0583 104.282C97.2423 104.282 96.6183 104.504 96.1863 104.948C95.7663 105.392 95.4843 105.98 95.3403 106.712C95.2083 107.432 95.1423 108.314 95.1423 109.358C95.1423 110.438 95.2083 111.344 95.3403 112.076C95.4843 112.808 95.7663 113.396 96.1863 113.84C96.6183 114.284 97.2423 114.506 98.0583 114.506C98.8623 114.506 99.4743 114.284 99.8943 113.84C100.326 113.396 100.608 112.808 100.74 112.076C100.884 111.344 100.956 110.438 100.956 109.358ZM104.825 109.358C104.825 107.294 105.161 105.686 105.833 104.534C106.505 103.37 107.681 102.788 109.361 102.788C111.029 102.788 112.199 103.37 112.871 104.534C113.543 105.686 113.879 107.294 113.879 109.358C113.879 111.458 113.543 113.09 112.871 114.254C112.199 115.418 111.029 116 109.361 116C107.681 116 106.505 115.418 105.833 114.254C105.161 113.09 104.825 111.458 104.825 109.358ZM112.259 109.358C112.259 108.314 112.187 107.432 112.043 106.712C111.911 105.98 111.629 105.392 111.197 104.948C110.777 104.504 110.165 104.282 109.361 104.282C108.545 104.282 107.921 104.504 107.489 104.948C107.069 105.392 106.787 105.98 106.643 106.712C106.511 107.432 106.445 108.314 106.445 109.358C106.445 110.438 106.511 111.344 106.643 112.076C106.787 112.808 107.069 113.396 107.489 113.84C107.921 114.284 108.545 114.506 109.361 114.506C110.165 114.506 110.777 114.284 111.197 113.84C111.629 113.396 111.911 112.808 112.043 112.076C112.187 111.344 112.259 110.438 112.259 109.358Z" fill="white"/>
<g clip-path="url(#clip2_1_2506)">
<path d="M332.535 108.464L325.464 115.536M332.535 108.464H327.232M332.535 108.464V113.768M323.107 117.893C319.853 114.638 319.853 109.362 323.107 106.107C326.362 102.853 331.638 102.853 334.893 106.107C338.147 109.362 338.147 114.638 334.893 117.893C331.638 121.147 326.362 121.147 323.107 117.893Z" stroke="#353849" stroke-width="1.66667" stroke-linecap="round" stroke-linejoin="round"/>
</g>
<path d="M27 149.167V159.833M27 149.167L23 153.167M27 149.167L31 153.167" stroke="#40C4AA" stroke-width="2" stroke-linecap="round" stroke-linejoin="round"/>
<path d="M37.532 150.04V148.878H40.164V159H38.876V150.04H37.532ZM42.6324 153.834C42.6324 152.229 42.8937 150.978 43.4164 150.082C43.939 149.177 44.8537 148.724 46.1604 148.724C47.4577 148.724 48.3677 149.177 48.8904 150.082C49.413 150.978 49.6744 152.229 49.6744 153.834C49.6744 155.467 49.413 156.737 48.8904 157.642C48.3677 158.547 47.4577 159 46.1604 159C44.8537 159 43.939 158.547 43.4164 157.642C42.8937 156.737 42.6324 155.467 42.6324 153.834ZM48.4144 153.834C48.4144 153.022 48.3584 152.336 48.2464 151.776C48.1437 151.207 47.9244 150.749 47.5884 150.404C47.2617 150.059 46.7857 149.886 46.1604 149.886C45.5257 149.886 45.0404 150.059 44.7044 150.404C44.3777 150.749 44.1584 151.207 44.0464 151.776C43.9437 152.336 43.8924 153.022 43.8924 153.834C43.8924 154.674 43.9437 155.379 44.0464 155.948C44.1584 156.517 44.3777 156.975 44.7044 157.32C45.0404 157.665 45.5257 157.838 46.1604 157.838C46.7857 157.838 47.2617 157.665 47.5884 157.32C47.9244 156.975 48.1437 156.517 48.2464 155.948C48.3584 155.379 48.4144 154.674 48.4144 153.834ZM53.2294 157.236L51.6614 161.002H50.8074L51.8294 157.236H53.2294ZM61.2128 149.984H56.2988V153.176C56.5134 152.877 56.8308 152.635 57.2508 152.448C57.6708 152.252 58.1234 152.154 58.6088 152.154C59.3834 152.154 60.0134 152.317 60.4988 152.644C60.9841 152.961 61.3294 153.377 61.5348 153.89C61.7494 154.394 61.8568 154.931 61.8568 155.5C61.8568 156.172 61.7308 156.774 61.4788 157.306C61.2268 157.838 60.8394 158.258 60.3168 158.566C59.8034 158.874 59.1641 159.028 58.3988 159.028C57.4188 159.028 56.6254 158.776 56.0188 158.272C55.4121 157.768 55.0434 157.096 54.9128 156.256H56.1588C56.2801 156.788 56.5368 157.203 56.9288 157.502C57.3208 157.801 57.8154 157.95 58.4128 157.95C59.1501 157.95 59.7054 157.731 60.0788 157.292C60.4521 156.844 60.6388 156.256 60.6388 155.528C60.6388 154.8 60.4521 154.24 60.0788 153.848C59.7054 153.447 59.1548 153.246 58.4268 153.246C57.9321 153.246 57.4981 153.367 57.1248 153.61C56.7608 153.843 56.4948 154.165 56.3268 154.576H55.1228V148.864H61.2128V149.984ZM63.5498 151.16C63.5498 150.525 63.7411 150.021 64.1238 149.648C64.5065 149.265 64.9965 149.074 65.5938 149.074C66.1911 149.074 66.6811 149.265 67.0638 149.648C67.4465 150.021 67.6378 150.525 67.6378 151.16C67.6378 151.804 67.4465 152.317 67.0638 152.7C66.6811 153.073 66.1911 153.26 65.5938 153.26C64.9965 153.26 64.5065 153.073 64.1238 152.7C63.7411 152.317 63.5498 151.804 63.5498 151.16ZM71.7258 149.228L66.0558 159H64.7958L70.4658 149.228H71.7258ZM65.5938 149.858C65.2765 149.858 65.0245 149.97 64.8378 150.194C64.6605 150.409 64.5718 150.731 64.5718 151.16C64.5718 151.589 64.6605 151.916 64.8378 152.14C65.0245 152.364 65.2765 152.476 65.5938 152.476C65.9111 152.476 66.1631 152.364 66.3498 152.14C66.5365 151.907 66.6298 151.58 66.6298 151.16C66.6298 150.731 66.5365 150.409 66.3498 150.194C66.1631 149.97 65.9111 149.858 65.5938 149.858ZM68.9118 157.068C68.9118 156.424 69.1031 155.915 69.4858 155.542C69.8685 155.159 70.3585 154.968 70.9558 154.968C71.5531 154.968 72.0385 155.159 72.4118 155.542C72.7945 155.915 72.9858 156.424 72.9858 157.068C72.9858 157.703 72.7945 158.211 72.4118 158.594C72.0385 158.977 71.5531 159.168 70.9558 159.168C70.3585 159.168 69.8685 158.981 69.4858 158.608C69.1031 158.225 68.9118 157.712 68.9118 157.068ZM70.9418 155.766C70.6245 155.766 70.3725 155.878 70.1858 156.102C69.9991 156.317 69.9058 156.639 69.9058 157.068C69.9058 157.488 69.9991 157.81 70.1858 158.034C70.3725 158.249 70.6245 158.356 70.9418 158.356C71.2591 158.356 71.5111 158.249 71.6978 158.034C71.8845 157.81 71.9778 157.488 71.9778 157.068C71.9778 156.639 71.8845 156.317 71.6978 156.102C71.5111 155.878 71.2591 155.766 70.9418 155.766Z" fill="#40C4AA"/>
<path d="M227.779 152.378H226.169V159H224.895V152.378H223.901V151.328H224.895V150.782C224.895 149.923 225.115 149.298 225.553 148.906C226.001 148.505 226.715 148.304 227.695 148.304V149.368C227.135 149.368 226.739 149.48 226.505 149.704C226.281 149.919 226.169 150.278 226.169 150.782V151.328H227.779V152.378ZM230.819 152.574C231.043 152.135 231.36 151.795 231.771 151.552C232.191 151.309 232.699 151.188 233.297 151.188V152.504H232.961C231.533 152.504 230.819 153.279 230.819 154.828V159H229.545V151.328H230.819V152.574ZM238.393 159.126C237.675 159.126 237.021 158.963 236.433 158.636C235.855 158.309 235.397 157.847 235.061 157.25C234.735 156.643 234.571 155.943 234.571 155.15C234.571 154.366 234.739 153.675 235.075 153.078C235.421 152.471 235.887 152.009 236.475 151.692C237.063 151.365 237.721 151.202 238.449 151.202C239.177 151.202 239.835 151.365 240.423 151.692C241.011 152.009 241.473 152.467 241.809 153.064C242.155 153.661 242.327 154.357 242.327 155.15C242.327 155.943 242.15 156.643 241.795 157.25C241.45 157.847 240.979 158.309 240.381 158.636C239.784 158.963 239.121 159.126 238.393 159.126ZM238.393 158.006C238.851 158.006 239.28 157.899 239.681 157.684C240.083 157.469 240.405 157.147 240.647 156.718C240.899 156.289 241.025 155.766 241.025 155.15C241.025 154.534 240.904 154.011 240.661 153.582C240.419 153.153 240.101 152.835 239.709 152.63C239.317 152.415 238.893 152.308 238.435 152.308C237.969 152.308 237.539 152.415 237.147 152.63C236.765 152.835 236.457 153.153 236.223 153.582C235.99 154.011 235.873 154.534 235.873 155.15C235.873 155.775 235.985 156.303 236.209 156.732C236.443 157.161 236.751 157.483 237.133 157.698C237.516 157.903 237.936 158.006 238.393 158.006ZM253.508 151.188C254.106 151.188 254.638 151.314 255.104 151.566C255.571 151.809 255.94 152.177 256.21 152.672C256.481 153.167 256.616 153.769 256.616 154.478V159H255.356V154.66C255.356 153.895 255.165 153.311 254.782 152.91C254.409 152.499 253.9 152.294 253.256 152.294C252.594 152.294 252.066 152.509 251.674 152.938C251.282 153.358 251.086 153.969 251.086 154.772V159H249.826V154.66C249.826 153.895 249.635 153.311 249.252 152.91C248.879 152.499 248.37 152.294 247.726 152.294C247.064 152.294 246.536 152.509 246.144 152.938C245.752 153.358 245.556 153.969 245.556 154.772V159H244.282V151.328H245.556V152.434C245.808 152.033 246.144 151.725 246.564 151.51C246.994 151.295 247.465 151.188 247.978 151.188C248.622 151.188 249.192 151.333 249.686 151.622C250.181 151.911 250.55 152.336 250.792 152.896C251.007 152.355 251.362 151.935 251.856 151.636C252.351 151.337 252.902 151.188 253.508 151.188ZM264.273 148.64V159H262.999V148.64H264.273ZM266.248 155.136C266.248 154.352 266.407 153.666 266.724 153.078C267.041 152.481 267.475 152.019 268.026 151.692C268.586 151.365 269.207 151.202 269.888 151.202C270.56 151.202 271.143 151.347 271.638 151.636C272.133 151.925 272.501 152.289 272.744 152.728V151.328H274.032V159H272.744V157.572C272.492 158.02 272.114 158.393 271.61 158.692C271.115 158.981 270.537 159.126 269.874 159.126C269.193 159.126 268.577 158.958 268.026 158.622C267.475 158.286 267.041 157.815 266.724 157.208C266.407 156.601 266.248 155.911 266.248 155.136ZM272.744 155.15C272.744 154.571 272.627 154.067 272.394 153.638C272.161 153.209 271.843 152.882 271.442 152.658C271.05 152.425 270.616 152.308 270.14 152.308C269.664 152.308 269.23 152.42 268.838 152.644C268.446 152.868 268.133 153.195 267.9 153.624C267.667 154.053 267.55 154.557 267.55 155.136C267.55 155.724 267.667 156.237 267.9 156.676C268.133 157.105 268.446 157.437 268.838 157.67C269.23 157.894 269.664 158.006 270.14 158.006C270.616 158.006 271.05 157.894 271.442 157.67C271.843 157.437 272.161 157.105 272.394 156.676C272.627 156.237 272.744 155.729 272.744 155.15ZM279.181 159.126C278.593 159.126 278.066 159.028 277.599 158.832C277.132 158.627 276.764 158.347 276.493 157.992C276.222 157.628 276.073 157.213 276.045 156.746H277.361C277.398 157.129 277.576 157.441 277.893 157.684C278.22 157.927 278.644 158.048 279.167 158.048C279.652 158.048 280.035 157.941 280.315 157.726C280.595 157.511 280.735 157.241 280.735 156.914C280.735 156.578 280.586 156.331 280.287 156.172C279.988 156.004 279.526 155.841 278.901 155.682C278.332 155.533 277.865 155.383 277.501 155.234C277.146 155.075 276.838 154.847 276.577 154.548C276.325 154.24 276.199 153.839 276.199 153.344C276.199 152.952 276.316 152.593 276.549 152.266C276.782 151.939 277.114 151.683 277.543 151.496C277.972 151.3 278.462 151.202 279.013 151.202C279.862 151.202 280.548 151.417 281.071 151.846C281.594 152.275 281.874 152.863 281.911 153.61H280.637C280.609 153.209 280.446 152.887 280.147 152.644C279.858 152.401 279.466 152.28 278.971 152.28C278.514 152.28 278.15 152.378 277.879 152.574C277.608 152.77 277.473 153.027 277.473 153.344C277.473 153.596 277.552 153.806 277.711 153.974C277.879 154.133 278.084 154.263 278.327 154.366C278.579 154.459 278.924 154.567 279.363 154.688C279.914 154.837 280.362 154.987 280.707 155.136C281.052 155.276 281.346 155.491 281.589 155.78C281.841 156.069 281.972 156.447 281.981 156.914C281.981 157.334 281.864 157.712 281.631 158.048C281.398 158.384 281.066 158.65 280.637 158.846C280.217 159.033 279.732 159.126 279.181 159.126ZM285.613 152.378V156.9C285.613 157.273 285.693 157.539 285.851 157.698C286.01 157.847 286.285 157.922 286.677 157.922H287.615V159H286.467C285.758 159 285.226 158.837 284.871 158.51C284.517 158.183 284.339 157.647 284.339 156.9V152.378H283.345V151.328H284.339V149.396H285.613V151.328H287.615V152.378H285.613ZM294.725 152.742C294.977 152.303 295.351 151.939 295.845 151.65C296.349 151.351 296.933 151.202 297.595 151.202C298.277 151.202 298.893 151.365 299.443 151.692C300.003 152.019 300.442 152.481 300.759 153.078C301.077 153.666 301.235 154.352 301.235 155.136C301.235 155.911 301.077 156.601 300.759 157.208C300.442 157.815 300.003 158.286 299.443 158.622C298.893 158.958 298.277 159.126 297.595 159.126C296.942 159.126 296.363 158.981 295.859 158.692C295.365 158.393 294.987 158.025 294.725 157.586V162.64H293.451V151.328H294.725V152.742ZM299.933 155.136C299.933 154.557 299.817 154.053 299.583 153.624C299.35 153.195 299.033 152.868 298.631 152.644C298.239 152.42 297.805 152.308 297.329 152.308C296.863 152.308 296.429 152.425 296.027 152.658C295.635 152.882 295.318 153.213 295.075 153.652C294.842 154.081 294.725 154.581 294.725 155.15C294.725 155.729 294.842 156.237 295.075 156.676C295.318 157.105 295.635 157.437 296.027 157.67C296.429 157.894 296.863 158.006 297.329 158.006C297.805 158.006 298.239 157.894 298.631 157.67C299.033 157.437 299.35 157.105 299.583 156.676C299.817 156.237 299.933 155.724 299.933 155.136ZM310.192 154.87C310.192 155.113 310.178 155.369 310.15 155.64H304.018C304.065 156.396 304.322 156.989 304.788 157.418C305.264 157.838 305.838 158.048 306.51 158.048C307.061 158.048 307.518 157.922 307.882 157.67C308.256 157.409 308.517 157.063 308.666 156.634H310.038C309.833 157.371 309.422 157.973 308.806 158.44C308.19 158.897 307.425 159.126 306.51 159.126C305.782 159.126 305.129 158.963 304.55 158.636C303.981 158.309 303.533 157.847 303.206 157.25C302.88 156.643 302.716 155.943 302.716 155.15C302.716 154.357 302.875 153.661 303.192 153.064C303.51 152.467 303.953 152.009 304.522 151.692C305.101 151.365 305.764 151.202 306.51 151.202C307.238 151.202 307.882 151.361 308.442 151.678C309.002 151.995 309.432 152.434 309.73 152.994C310.038 153.545 310.192 154.17 310.192 154.87ZM308.876 154.604C308.876 154.119 308.769 153.703 308.554 153.358C308.34 153.003 308.046 152.737 307.672 152.56C307.308 152.373 306.902 152.28 306.454 152.28C305.81 152.28 305.26 152.485 304.802 152.896C304.354 153.307 304.098 153.876 304.032 154.604H308.876ZM313.428 152.574C313.652 152.135 313.969 151.795 314.38 151.552C314.8 151.309 315.309 151.188 315.906 151.188V152.504H315.57C314.142 152.504 313.428 153.279 313.428 154.828V159H312.154V151.328H313.428V152.574ZM318.315 150.082C318.072 150.082 317.867 149.998 317.699 149.83C317.531 149.662 317.447 149.457 317.447 149.214C317.447 148.971 317.531 148.766 317.699 148.598C317.867 148.43 318.072 148.346 318.315 148.346C318.548 148.346 318.744 148.43 318.903 148.598C319.071 148.766 319.155 148.971 319.155 149.214C319.155 149.457 319.071 149.662 318.903 149.83C318.744 149.998 318.548 150.082 318.315 150.082ZM318.931 151.328V159H317.657V151.328H318.931ZM324.728 159.126C324.009 159.126 323.356 158.963 322.768 158.636C322.189 158.309 321.732 157.847 321.396 157.25C321.069 156.643 320.906 155.943 320.906 155.15C320.906 154.366 321.074 153.675 321.41 153.078C321.755 152.471 322.222 152.009 322.81 151.692C323.398 151.365 324.056 151.202 324.784 151.202C325.512 151.202 326.17 151.365 326.758 151.692C327.346 152.009 327.808 152.467 328.144 153.064C328.489 153.661 328.662 154.357 328.662 155.15C328.662 155.943 328.485 156.643 328.13 157.25C327.785 157.847 327.313 158.309 326.716 158.636C326.119 158.963 325.456 159.126 324.728 159.126ZM324.728 158.006C325.185 158.006 325.615 157.899 326.016 157.684C326.417 157.469 326.739 157.147 326.982 156.718C327.234 156.289 327.36 155.766 327.36 155.15C327.36 154.534 327.239 154.011 326.996 153.582C326.753 153.153 326.436 152.835 326.044 152.63C325.652 152.415 325.227 152.308 324.77 152.308C324.303 152.308 323.874 152.415 323.482 152.63C323.099 152.835 322.791 153.153 322.558 153.582C322.325 154.011 322.208 154.534 322.208 155.15C322.208 155.775 322.32 156.303 322.544 156.732C322.777 157.161 323.085 157.483 323.468 157.698C323.851 157.903 324.271 158.006 324.728 158.006ZM330.141 155.136C330.141 154.352 330.3 153.666 330.617 153.078C330.934 152.481 331.368 152.019 331.919 151.692C332.479 151.365 333.104 151.202 333.795 151.202C334.392 151.202 334.948 151.342 335.461 151.622C335.974 151.893 336.366 152.252 336.637 152.7V148.64H337.925V159H336.637V157.558C336.385 158.015 336.012 158.393 335.517 158.692C335.022 158.981 334.444 159.126 333.781 159.126C333.1 159.126 332.479 158.958 331.919 158.622C331.368 158.286 330.934 157.815 330.617 157.208C330.3 156.601 330.141 155.911 330.141 155.136ZM336.637 155.15C336.637 154.571 336.52 154.067 336.287 153.638C336.054 153.209 335.736 152.882 335.335 152.658C334.943 152.425 334.509 152.308 334.033 152.308C333.557 152.308 333.123 152.42 332.731 152.644C332.339 152.868 332.026 153.195 331.793 153.624C331.56 154.053 331.443 154.557 331.443 155.136C331.443 155.724 331.56 156.237 331.793 156.676C332.026 157.105 332.339 157.437 332.731 157.67C333.123 157.894 333.557 158.006 334.033 158.006C334.509 158.006 334.943 157.894 335.335 157.67C335.736 157.437 336.054 157.105 336.287 156.676C336.52 156.237 336.637 155.729 336.637 155.15Z" fill="#666D80"/>
</g>
<rect x="3.5" y="1.5" width="351" height="173" rx="15.5" stroke="#272835"/>
</g>
<g filter="url(#filter2_d_1_2506)">
<g clip-path="url(#clip3_1_2506)">
<rect x="379" y="1" width="352" height="174" rx="16" fill="#15161E"/>
<mask id="path-16-inside-2_1_2506" fill="white">
<path d="M379 1H731V136H379V1Z"/>
</mask>
<path d="M379 1H731V136H379V1Z" fill="#0D0D12"/>
<path d="M731 135H379V137H731V135Z" fill="#272835" mask="url(#path-16-inside-2_1_2506)"/>
<g filter="url(#filter3_d_1_2506)">
<rect x="395" y="17" width="40" height="40" rx="10" fill="#0D0D12" shape-rendering="crispEdges"/>
<rect x="395.5" y="17.5" width="39" height="39" rx="9.5" stroke="#272835" shape-rendering="crispEdges"/>
<path d="M415 40.3333V38.6667M411.667 40.3333V36.1667M418.333 40.3333V33.6667M410.833 44.5H419.167C421.008 44.5 422.5 43.0076 422.5 41.1667V32.8333C422.5 30.9924 421.008 29.5 419.167 29.5H410.833C408.992 29.5 407.5 30.9924 407.5 32.8333V41.1667C407.5 43.0076 408.992 44.5 410.833 44.5Z" stroke="#33CFFF" stroke-width="2.4" stroke-linecap="round" stroke-linejoin="round"/>
</g>
<path d="M401.846 85.83H397.59L396.806 88H395.462L398.99 78.298H400.46L403.974 88H402.63L401.846 85.83ZM401.482 84.794L399.718 79.866L397.954 84.794H401.482ZM408.648 86.824L411.028 80.328H412.386L409.376 88H407.892L404.882 80.328H406.254L408.648 86.824ZM417.083 80.202C417.746 80.202 418.325 80.3467 418.819 80.636C419.323 80.9253 419.697 81.2893 419.939 81.728V80.328H421.227V88.168C421.227 88.868 421.078 89.4887 420.779 90.03C420.481 90.5807 420.051 91.01 419.491 91.318C418.941 91.626 418.297 91.78 417.559 91.78C416.551 91.78 415.711 91.542 415.039 91.066C414.367 90.59 413.971 89.9413 413.849 89.12H415.109C415.249 89.5867 415.539 89.96 415.977 90.24C416.416 90.5293 416.943 90.674 417.559 90.674C418.259 90.674 418.829 90.4547 419.267 90.016C419.715 89.5773 419.939 88.9613 419.939 88.168V86.558C419.687 87.006 419.314 87.3793 418.819 87.678C418.325 87.9767 417.746 88.126 417.083 88.126C416.402 88.126 415.781 87.958 415.221 87.622C414.671 87.286 414.237 86.8147 413.919 86.208C413.602 85.6013 413.443 84.9107 413.443 84.136C413.443 83.352 413.602 82.666 413.919 82.078C414.237 81.4807 414.671 81.0187 415.221 80.692C415.781 80.3653 416.402 80.202 417.083 80.202ZM419.939 84.15C419.939 83.5713 419.823 83.0673 419.589 82.638C419.356 82.2087 419.039 81.882 418.637 81.658C418.245 81.4247 417.811 81.308 417.335 81.308C416.859 81.308 416.425 81.42 416.033 81.644C415.641 81.868 415.329 82.1947 415.095 82.624C414.862 83.0533 414.745 83.5573 414.745 84.136C414.745 84.724 414.862 85.2373 415.095 85.676C415.329 86.1053 415.641 86.4367 416.033 86.67C416.425 86.894 416.859 87.006 417.335 87.006C417.811 87.006 418.245 86.894 418.637 86.67C419.039 86.4367 419.356 86.1053 419.589 85.676C419.823 85.2373 419.939 84.7287 419.939 84.15ZM424.066 88.084C423.824 88.084 423.618 88 423.45 87.832C423.282 87.664 423.198 87.4587 423.198 87.216C423.198 86.9733 423.282 86.768 423.45 86.6C423.618 86.432 423.824 86.348 424.066 86.348C424.3 86.348 424.496 86.432 424.654 86.6C424.822 86.768 424.906 86.9733 424.906 87.216C424.906 87.4587 424.822 87.664 424.654 87.832C424.496 88 424.3 88.084 424.066 88.084ZM433.986 88.098C433.342 88.098 432.763 87.986 432.25 87.762C431.746 87.5287 431.349 87.2113 431.06 86.81C430.771 86.3993 430.621 85.928 430.612 85.396H431.97C432.017 85.8533 432.203 86.2407 432.53 86.558C432.866 86.866 433.351 87.02 433.986 87.02C434.593 87.02 435.069 86.8707 435.414 86.572C435.769 86.264 435.946 85.872 435.946 85.396C435.946 85.0227 435.843 84.7193 435.638 84.486C435.433 84.2527 435.176 84.0753 434.868 83.954C434.56 83.8327 434.145 83.702 433.622 83.562C432.978 83.394 432.46 83.226 432.068 83.058C431.685 82.89 431.354 82.6287 431.074 82.274C430.803 81.91 430.668 81.4247 430.668 80.818C430.668 80.286 430.803 79.8147 431.074 79.404C431.345 78.9933 431.723 78.676 432.208 78.452C432.703 78.228 433.267 78.116 433.902 78.116C434.817 78.116 435.563 78.3447 436.142 78.802C436.73 79.2593 437.061 79.866 437.136 80.622H435.736C435.689 80.2487 435.493 79.922 435.148 79.642C434.803 79.3527 434.345 79.208 433.776 79.208C433.244 79.208 432.81 79.348 432.474 79.628C432.138 79.8987 431.97 80.2813 431.97 80.776C431.97 81.1307 432.068 81.42 432.264 81.644C432.469 81.868 432.717 82.0407 433.006 82.162C433.305 82.274 433.72 82.4047 434.252 82.554C434.896 82.7313 435.414 82.9087 435.806 83.086C436.198 83.254 436.534 83.52 436.814 83.884C437.094 84.2387 437.234 84.724 437.234 85.34C437.234 85.816 437.108 86.264 436.856 86.684C436.604 87.104 436.231 87.4447 435.736 87.706C435.241 87.9673 434.658 88.098 433.986 88.098ZM438.913 84.136C438.913 83.352 439.072 82.666 439.389 82.078C439.706 81.4807 440.14 81.0187 440.691 80.692C441.251 80.3653 441.872 80.202 442.553 80.202C443.225 80.202 443.808 80.3467 444.303 80.636C444.798 80.9253 445.166 81.2893 445.409 81.728V80.328H446.697V88H445.409V86.572C445.157 87.02 444.779 87.3933 444.275 87.692C443.78 87.9813 443.202 88.126 442.539 88.126C441.858 88.126 441.242 87.958 440.691 87.622C440.14 87.286 439.706 86.8147 439.389 86.208C439.072 85.6013 438.913 84.9107 438.913 84.136ZM445.409 84.15C445.409 83.5713 445.292 83.0673 445.059 82.638C444.826 82.2087 444.508 81.882 444.107 81.658C443.715 81.4247 443.281 81.308 442.805 81.308C442.329 81.308 441.895 81.42 441.503 81.644C441.111 81.868 440.798 82.1947 440.565 82.624C440.332 83.0533 440.215 83.5573 440.215 84.136C440.215 84.724 440.332 85.2373 440.565 85.676C440.798 86.1053 441.111 86.4367 441.503 86.67C441.895 86.894 442.329 87.006 442.805 87.006C443.281 87.006 443.715 86.894 444.107 86.67C444.508 86.4367 444.826 86.1053 445.059 85.676C445.292 85.2373 445.409 84.7287 445.409 84.15ZM450.404 77.64V88H449.13V77.64H450.404ZM459.855 83.87C459.855 84.1127 459.841 84.3693 459.813 84.64H453.681C453.728 85.396 453.984 85.9887 454.451 86.418C454.927 86.838 455.501 87.048 456.173 87.048C456.724 87.048 457.181 86.922 457.545 86.67C457.918 86.4087 458.18 86.0633 458.329 85.634H459.701C459.496 86.3713 459.085 86.9733 458.469 87.44C457.853 87.8973 457.088 88.126 456.173 88.126C455.445 88.126 454.792 87.9627 454.213 87.636C453.644 87.3093 453.196 86.8473 452.869 86.25C452.542 85.6433 452.379 84.9433 452.379 84.15C452.379 83.3567 452.538 82.6613 452.855 82.064C453.172 81.4667 453.616 81.0093 454.185 80.692C454.764 80.3653 455.426 80.202 456.173 80.202C456.901 80.202 457.545 80.3607 458.105 80.678C458.665 80.9953 459.094 81.434 459.393 81.994C459.701 82.5447 459.855 83.17 459.855 83.87ZM458.539 83.604C458.539 83.1187 458.432 82.7033 458.217 82.358C458.002 82.0033 457.708 81.7373 457.335 81.56C456.971 81.3733 456.565 81.28 456.117 81.28C455.473 81.28 454.922 81.4853 454.465 81.896C454.017 82.3067 453.76 82.876 453.695 83.604H458.539ZM468.685 86.824L471.065 80.328H472.423L469.413 88H467.929L464.919 80.328H466.291L468.685 86.824ZM473.481 84.136C473.481 83.352 473.639 82.666 473.957 82.078C474.274 81.4807 474.708 81.0187 475.259 80.692C475.819 80.3653 476.439 80.202 477.121 80.202C477.793 80.202 478.376 80.3467 478.871 80.636C479.365 80.9253 479.734 81.2893 479.977 81.728V80.328H481.265V88H479.977V86.572C479.725 87.02 479.347 87.3933 478.843 87.692C478.348 87.9813 477.769 88.126 477.107 88.126C476.425 88.126 475.809 87.958 475.259 87.622C474.708 87.286 474.274 86.8147 473.957 86.208C473.639 85.6013 473.481 84.9107 473.481 84.136ZM479.977 84.15C479.977 83.5713 479.86 83.0673 479.627 82.638C479.393 82.2087 479.076 81.882 478.675 81.658C478.283 81.4247 477.849 81.308 477.373 81.308C476.897 81.308 476.463 81.42 476.071 81.644C475.679 81.868 475.366 82.1947 475.133 82.624C474.899 83.0533 474.783 83.5573 474.783 84.136C474.783 84.724 474.899 85.2373 475.133 85.676C475.366 86.1053 475.679 86.4367 476.071 86.67C476.463 86.894 476.897 87.006 477.373 87.006C477.849 87.006 478.283 86.894 478.675 86.67C479.076 86.4367 479.393 86.1053 479.627 85.676C479.86 85.2373 479.977 84.7287 479.977 84.15ZM484.972 77.64V88H483.698V77.64H484.972ZM494.227 80.328V88H492.953V86.866C492.71 87.258 492.37 87.566 491.931 87.79C491.502 88.0047 491.026 88.112 490.503 88.112C489.906 88.112 489.369 87.9907 488.893 87.748C488.417 87.496 488.039 87.1227 487.759 86.628C487.488 86.1333 487.353 85.5313 487.353 84.822V80.328H488.613V84.654C488.613 85.41 488.804 85.9933 489.187 86.404C489.57 86.8053 490.092 87.006 490.755 87.006C491.436 87.006 491.973 86.796 492.365 86.376C492.757 85.956 492.953 85.3447 492.953 84.542V80.328H494.227ZM503.658 83.87C503.658 84.1127 503.644 84.3693 503.616 84.64H497.484C497.531 85.396 497.787 85.9887 498.254 86.418C498.73 86.838 499.304 87.048 499.976 87.048C500.527 87.048 500.984 86.922 501.348 86.67C501.721 86.4087 501.983 86.0633 502.132 85.634H503.504C503.299 86.3713 502.888 86.9733 502.272 87.44C501.656 87.8973 500.891 88.126 499.976 88.126C499.248 88.126 498.595 87.9627 498.016 87.636C497.447 87.3093 496.999 86.8473 496.672 86.25C496.345 85.6433 496.182 84.9433 496.182 84.15C496.182 83.3567 496.341 82.6613 496.658 82.064C496.975 81.4667 497.419 81.0093 497.988 80.692C498.567 80.3653 499.229 80.202 499.976 80.202C500.704 80.202 501.348 80.3607 501.908 80.678C502.468 80.9953 502.897 81.434 503.196 81.994C503.504 82.5447 503.658 83.17 503.658 83.87ZM502.342 83.604C502.342 83.1187 502.235 82.7033 502.02 82.358C501.805 82.0033 501.511 81.7373 501.138 81.56C500.774 81.3733 500.368 81.28 499.92 81.28C499.276 81.28 498.725 81.4853 498.268 81.896C497.82 82.3067 497.563 82.876 497.498 83.604H502.342Z" fill="#666D80"/>
<path d="M404.486 112.562C404.486 113.138 404.342 113.69 404.054 114.218C403.766 114.734 403.34 115.166 402.776 115.514C402.224 115.862 401.558 116.06 400.778 116.108V117.566H399.806V116.108C398.714 116.012 397.826 115.664 397.142 115.064C396.458 114.452 396.11 113.678 396.098 112.742H397.844C397.892 113.246 398.078 113.684 398.402 114.056C398.738 114.428 399.206 114.662 399.806 114.758V110.258C399.002 110.054 398.354 109.844 397.862 109.628C397.37 109.412 396.95 109.076 396.602 108.62C396.254 108.164 396.08 107.552 396.08 106.784C396.08 105.812 396.416 105.008 397.088 104.372C397.772 103.736 398.678 103.382 399.806 103.31V101.816H400.778V103.31C401.798 103.394 402.62 103.724 403.244 104.3C403.868 104.864 404.228 105.602 404.324 106.514H402.578C402.518 106.094 402.332 105.716 402.02 105.38C401.708 105.032 401.294 104.804 400.778 104.696V109.088C401.57 109.292 402.212 109.502 402.704 109.718C403.208 109.922 403.628 110.252 403.964 110.708C404.312 111.164 404.486 111.782 404.486 112.562ZM397.754 106.694C397.754 107.282 397.928 107.732 398.276 108.044C398.624 108.356 399.134 108.614 399.806 108.818V104.66C399.182 104.72 398.684 104.924 398.312 105.272C397.94 105.608 397.754 106.082 397.754 106.694ZM400.778 114.776C401.426 114.704 401.93 114.47 402.29 114.074C402.662 113.678 402.848 113.204 402.848 112.652C402.848 112.064 402.668 111.614 402.308 111.302C401.948 110.978 401.438 110.72 400.778 110.528V114.776ZM406.881 104.48V102.986H410.265V116H408.609V104.48H406.881ZM412.881 114.686C414.405 113.462 415.599 112.46 416.463 111.68C417.327 110.888 418.053 110.066 418.641 109.214C419.241 108.35 419.541 107.504 419.541 106.676C419.541 105.896 419.349 105.284 418.965 104.84C418.593 104.384 417.987 104.156 417.147 104.156C416.331 104.156 415.695 104.414 415.239 104.93C414.795 105.434 414.555 106.112 414.519 106.964H412.935C412.983 105.62 413.391 104.582 414.159 103.85C414.927 103.118 415.917 102.752 417.129 102.752C418.365 102.752 419.343 103.094 420.063 103.778C420.795 104.462 421.161 105.404 421.161 106.604C421.161 107.6 420.861 108.572 420.261 109.52C419.673 110.456 419.001 111.284 418.245 112.004C417.489 112.712 416.523 113.54 415.347 114.488H421.539V115.856H412.881V114.686ZM425.394 113.732L423.378 118.574H422.28L423.594 113.732H425.394ZM434.255 106.082C433.991 104.75 433.169 104.084 431.789 104.084C430.721 104.084 429.923 104.498 429.395 105.326C428.867 106.142 428.609 107.492 428.621 109.376C428.897 108.752 429.353 108.266 429.989 107.918C430.637 107.558 431.357 107.378 432.149 107.378C433.385 107.378 434.369 107.762 435.101 108.53C435.845 109.298 436.217 110.36 436.217 111.716C436.217 112.532 436.055 113.264 435.731 113.912C435.419 114.56 434.939 115.076 434.291 115.46C433.655 115.844 432.881 116.036 431.969 116.036C430.733 116.036 429.767 115.76 429.071 115.208C428.375 114.656 427.889 113.894 427.613 112.922C427.337 111.95 427.199 110.75 427.199 109.322C427.199 104.918 428.735 102.716 431.807 102.716C432.983 102.716 433.907 103.034 434.579 103.67C435.251 104.306 435.647 105.11 435.767 106.082H434.255ZM431.807 108.764C431.291 108.764 430.805 108.872 430.349 109.088C429.893 109.292 429.521 109.61 429.233 110.042C428.957 110.462 428.819 110.978 428.819 111.59C428.819 112.502 429.083 113.246 429.611 113.822C430.139 114.386 430.895 114.668 431.879 114.668C432.719 114.668 433.385 114.41 433.877 113.894C434.381 113.366 434.633 112.658 434.633 111.77C434.633 110.834 434.393 110.102 433.913 109.574C433.433 109.034 432.731 108.764 431.807 108.764ZM440.803 109.232C440.131 108.968 439.615 108.584 439.255 108.08C438.895 107.576 438.715 106.964 438.715 106.244C438.715 105.596 438.877 105.014 439.201 104.498C439.525 103.97 440.005 103.556 440.641 103.256C441.289 102.944 442.069 102.788 442.981 102.788C443.893 102.788 444.667 102.944 445.303 103.256C445.951 103.556 446.437 103.97 446.761 104.498C447.097 105.014 447.265 105.596 447.265 106.244C447.265 106.94 447.079 107.552 446.707 108.08C446.335 108.596 445.825 108.98 445.177 109.232C445.921 109.46 446.509 109.862 446.941 110.438C447.385 111.002 447.607 111.686 447.607 112.49C447.607 113.27 447.415 113.954 447.031 114.542C446.647 115.118 446.101 115.568 445.393 115.892C444.697 116.204 443.893 116.36 442.981 116.36C442.069 116.36 441.265 116.204 440.569 115.892C439.885 115.568 439.351 115.118 438.967 114.542C438.583 113.954 438.391 113.27 438.391 112.49C438.391 111.686 438.607 110.996 439.039 110.42C439.471 109.844 440.059 109.448 440.803 109.232ZM445.681 106.442C445.681 105.71 445.441 105.146 444.961 104.75C444.481 104.354 443.821 104.156 442.981 104.156C442.153 104.156 441.499 104.354 441.019 104.75C440.539 105.146 440.299 105.716 440.299 106.46C440.299 107.132 440.545 107.672 441.037 108.08C441.541 108.488 442.189 108.692 442.981 108.692C443.785 108.692 444.433 108.488 444.925 108.08C445.429 107.66 445.681 107.114 445.681 106.442ZM442.981 109.952C442.093 109.952 441.367 110.162 440.803 110.582C440.239 110.99 439.957 111.608 439.957 112.436C439.957 113.204 440.227 113.822 440.767 114.29C441.319 114.758 442.057 114.992 442.981 114.992C443.905 114.992 444.637 114.758 445.177 114.29C445.717 113.822 445.987 113.204 445.987 112.436C445.987 111.632 445.711 111.02 445.159 110.6C444.607 110.168 443.881 109.952 442.981 109.952ZM449.782 109.358C449.782 107.294 450.118 105.686 450.79 104.534C451.462 103.37 452.638 102.788 454.318 102.788C455.986 102.788 457.156 103.37 457.828 104.534C458.5 105.686 458.836 107.294 458.836 109.358C458.836 111.458 458.5 113.09 457.828 114.254C457.156 115.418 455.986 116 454.318 116C452.638 116 451.462 115.418 450.79 114.254C450.118 113.09 449.782 111.458 449.782 109.358ZM457.216 109.358C457.216 108.314 457.144 107.432 457 106.712C456.868 105.98 456.586 105.392 456.154 104.948C455.734 104.504 455.122 104.282 454.318 104.282C453.502 104.282 452.878 104.504 452.446 104.948C452.026 105.392 451.744 105.98 451.6 106.712C451.468 107.432 451.402 108.314 451.402 109.358C451.402 110.438 451.468 111.344 451.6 112.076C451.744 112.808 452.026 113.396 452.446 113.84C452.878 114.284 453.502 114.506 454.318 114.506C455.122 114.506 455.734 114.284 456.154 113.84C456.586 113.396 456.868 112.808 457 112.076C457.144 111.344 457.216 110.438 457.216 109.358ZM461.877 116.108C461.565 116.108 461.301 116 461.085 115.784C460.869 115.568 460.761 115.304 460.761 114.992C460.761 114.68 460.869 114.416 461.085 114.2C461.301 113.984 461.565 113.876 461.877 113.876C462.177 113.876 462.429 113.984 462.633 114.2C462.849 114.416 462.957 114.68 462.957 114.992C462.957 115.304 462.849 115.568 462.633 115.784C462.429 116 462.177 116.108 461.877 116.108ZM464.864 109.358C464.864 107.294 465.2 105.686 465.872 104.534C466.544 103.37 467.72 102.788 469.4 102.788C471.068 102.788 472.238 103.37 472.91 104.534C473.582 105.686 473.918 107.294 473.918 109.358C473.918 111.458 473.582 113.09 472.91 114.254C472.238 115.418 471.068 116 469.4 116C467.72 116 466.544 115.418 465.872 114.254C465.2 113.09 464.864 111.458 464.864 109.358ZM472.298 109.358C472.298 108.314 472.226 107.432 472.082 106.712C471.95 105.98 471.668 105.392 471.236 104.948C470.816 104.504 470.204 104.282 469.4 104.282C468.584 104.282 467.96 104.504 467.528 104.948C467.108 105.392 466.826 105.98 466.682 106.712C466.55 107.432 466.484 108.314 466.484 109.358C466.484 110.438 466.55 111.344 466.682 112.076C466.826 112.808 467.108 113.396 467.528 113.84C467.96 114.284 468.584 114.506 469.4 114.506C470.204 114.506 470.816 114.284 471.236 113.84C471.668 113.396 471.95 112.808 472.082 112.076C472.226 111.344 472.298 110.438 472.298 109.358ZM476.167 109.358C476.167 107.294 476.503 105.686 477.175 104.534C477.847 103.37 479.023 102.788 480.703 102.788C482.371 102.788 483.541 103.37 484.213 104.534C484.885 105.686 485.221 107.294 485.221 109.358C485.221 111.458 484.885 113.09 484.213 114.254C483.541 115.418 482.371 116 480.703 116C479.023 116 477.847 115.418 477.175 114.254C476.503 113.09 476.167 111.458 476.167 109.358ZM483.601 109.358C483.601 108.314 483.529 107.432 483.385 106.712C483.253 105.98 482.971 105.392 482.539 104.948C482.119 104.504 481.507 104.282 480.703 104.282C479.887 104.282 479.263 104.504 478.831 104.948C478.411 105.392 478.129 105.98 477.985 106.712C477.853 107.432 477.787 108.314 477.787 109.358C477.787 110.438 477.853 111.344 477.985 112.076C478.129 112.808 478.411 113.396 478.831 113.84C479.263 114.284 479.887 114.506 480.703 114.506C481.507 114.506 482.119 114.284 482.539 113.84C482.971 113.396 483.253 112.808 483.385 112.076C483.529 111.344 483.601 110.438 483.601 109.358Z" fill="white"/>
<g clip-path="url(#clip4_1_2506)">
<path d="M708.535 108.464L701.464 115.536M708.535 108.464H703.232M708.535 108.464V113.768M699.107 117.893C695.853 114.638 695.853 109.362 699.107 106.107C702.362 102.853 707.638 102.853 710.893 106.107C714.147 109.362 714.147 114.638 710.893 117.893C707.638 121.147 702.362 121.147 699.107 117.893Z" stroke="#353849" stroke-width="1.66667" stroke-linecap="round" stroke-linejoin="round"/>
</g>
<path d="M403 149.167V159.833M403 149.167L399 153.167M403 149.167L407 153.167" stroke="#40C4AA" stroke-width="2" stroke-linecap="round" stroke-linejoin="round"/>
<path d="M413.84 151.426C413.905 150.567 414.237 149.895 414.834 149.41C415.431 148.925 416.206 148.682 417.158 148.682C417.793 148.682 418.339 148.799 418.796 149.032C419.263 149.256 419.613 149.564 419.846 149.956C420.089 150.348 420.21 150.791 420.21 151.286C420.21 151.865 420.042 152.364 419.706 152.784C419.379 153.204 418.95 153.475 418.418 153.596V153.666C419.025 153.815 419.505 154.109 419.86 154.548C420.215 154.987 420.392 155.561 420.392 156.27C420.392 156.802 420.271 157.283 420.028 157.712C419.785 158.132 419.421 158.463 418.936 158.706C418.451 158.949 417.867 159.07 417.186 159.07C416.197 159.07 415.385 158.813 414.75 158.3C414.115 157.777 413.761 157.04 413.686 156.088H414.918C414.983 156.648 415.212 157.105 415.604 157.46C415.996 157.815 416.519 157.992 417.172 157.992C417.825 157.992 418.32 157.824 418.656 157.488C419.001 157.143 419.174 156.699 419.174 156.158C419.174 155.458 418.941 154.954 418.474 154.646C418.007 154.338 417.303 154.184 416.36 154.184H416.038V153.12H416.374C417.233 153.111 417.881 152.971 418.32 152.7C418.759 152.42 418.978 151.991 418.978 151.412C418.978 150.917 418.815 150.521 418.488 150.222C418.171 149.923 417.713 149.774 417.116 149.774C416.537 149.774 416.071 149.923 415.716 150.222C415.361 150.521 415.151 150.922 415.086 151.426H413.84ZM423.918 157.236L422.35 161.002H421.496L422.518 157.236H423.918ZM425.14 156.746V155.78L430.054 148.976H431.58V155.64H432.98V156.746H431.58V159H430.32V156.746H425.14ZM430.376 150.306L426.61 155.64H430.376V150.306ZM434.252 151.16C434.252 150.525 434.444 150.021 434.826 149.648C435.209 149.265 435.699 149.074 436.296 149.074C436.894 149.074 437.384 149.265 437.766 149.648C438.149 150.021 438.34 150.525 438.34 151.16C438.34 151.804 438.149 152.317 437.766 152.7C437.384 153.073 436.894 153.26 436.296 153.26C435.699 153.26 435.209 153.073 434.826 152.7C434.444 152.317 434.252 151.804 434.252 151.16ZM442.428 149.228L436.758 159H435.498L441.168 149.228H442.428ZM436.296 149.858C435.979 149.858 435.727 149.97 435.54 150.194C435.363 150.409 435.274 150.731 435.274 151.16C435.274 151.589 435.363 151.916 435.54 152.14C435.727 152.364 435.979 152.476 436.296 152.476C436.614 152.476 436.866 152.364 437.052 152.14C437.239 151.907 437.332 151.58 437.332 151.16C437.332 150.731 437.239 150.409 437.052 150.194C436.866 149.97 436.614 149.858 436.296 149.858ZM439.614 157.068C439.614 156.424 439.806 155.915 440.188 155.542C440.571 155.159 441.061 154.968 441.658 154.968C442.256 154.968 442.741 155.159 443.114 155.542C443.497 155.915 443.688 156.424 443.688 157.068C443.688 157.703 443.497 158.211 443.114 158.594C442.741 158.977 442.256 159.168 441.658 159.168C441.061 159.168 440.571 158.981 440.188 158.608C439.806 158.225 439.614 157.712 439.614 157.068ZM441.644 155.766C441.327 155.766 441.075 155.878 440.888 156.102C440.702 156.317 440.608 156.639 440.608 157.068C440.608 157.488 440.702 157.81 440.888 158.034C441.075 158.249 441.327 158.356 441.644 158.356C441.962 158.356 442.214 158.249 442.4 158.034C442.587 157.81 442.68 157.488 442.68 157.068C442.68 156.639 442.587 156.317 442.4 156.102C442.214 155.878 441.962 155.766 441.644 155.766Z" fill="#40C4AA"/>
<path d="M603.779 152.378H602.169V159H600.895V152.378H599.901V151.328H600.895V150.782C600.895 149.923 601.115 149.298 601.553 148.906C602.001 148.505 602.715 148.304 603.695 148.304V149.368C603.135 149.368 602.739 149.48 602.505 149.704C602.281 149.919 602.169 150.278 602.169 150.782V151.328H603.779V152.378ZM606.819 152.574C607.043 152.135 607.36 151.795 607.771 151.552C608.191 151.309 608.699 151.188 609.297 151.188V152.504H608.961C607.533 152.504 606.819 153.279 606.819 154.828V159H605.545V151.328H606.819V152.574ZM614.393 159.126C613.675 159.126 613.021 158.963 612.433 158.636C611.855 158.309 611.397 157.847 611.061 157.25C610.735 156.643 610.571 155.943 610.571 155.15C610.571 154.366 610.739 153.675 611.075 153.078C611.421 152.471 611.887 152.009 612.475 151.692C613.063 151.365 613.721 151.202 614.449 151.202C615.177 151.202 615.835 151.365 616.423 151.692C617.011 152.009 617.473 152.467 617.809 153.064C618.155 153.661 618.327 154.357 618.327 155.15C618.327 155.943 618.15 156.643 617.795 157.25C617.45 157.847 616.979 158.309 616.381 158.636C615.784 158.963 615.121 159.126 614.393 159.126ZM614.393 158.006C614.851 158.006 615.28 157.899 615.681 157.684C616.083 157.469 616.405 157.147 616.647 156.718C616.899 156.289 617.025 155.766 617.025 155.15C617.025 154.534 616.904 154.011 616.661 153.582C616.419 153.153 616.101 152.835 615.709 152.63C615.317 152.415 614.893 152.308 614.435 152.308C613.969 152.308 613.539 152.415 613.147 152.63C612.765 152.835 612.457 153.153 612.223 153.582C611.99 154.011 611.873 154.534 611.873 155.15C611.873 155.775 611.985 156.303 612.209 156.732C612.443 157.161 612.751 157.483 613.133 157.698C613.516 157.903 613.936 158.006 614.393 158.006ZM629.508 151.188C630.106 151.188 630.638 151.314 631.104 151.566C631.571 151.809 631.94 152.177 632.21 152.672C632.481 153.167 632.616 153.769 632.616 154.478V159H631.356V154.66C631.356 153.895 631.165 153.311 630.782 152.91C630.409 152.499 629.9 152.294 629.256 152.294C628.594 152.294 628.066 152.509 627.674 152.938C627.282 153.358 627.086 153.969 627.086 154.772V159H625.826V154.66C625.826 153.895 625.635 153.311 625.252 152.91C624.879 152.499 624.37 152.294 623.726 152.294C623.064 152.294 622.536 152.509 622.144 152.938C621.752 153.358 621.556 153.969 621.556 154.772V159H620.282V151.328H621.556V152.434C621.808 152.033 622.144 151.725 622.564 151.51C622.994 151.295 623.465 151.188 623.978 151.188C624.622 151.188 625.192 151.333 625.686 151.622C626.181 151.911 626.55 152.336 626.792 152.896C627.007 152.355 627.362 151.935 627.856 151.636C628.351 151.337 628.902 151.188 629.508 151.188ZM640.273 148.64V159H638.999V148.64H640.273ZM642.248 155.136C642.248 154.352 642.407 153.666 642.724 153.078C643.041 152.481 643.475 152.019 644.026 151.692C644.586 151.365 645.207 151.202 645.888 151.202C646.56 151.202 647.143 151.347 647.638 151.636C648.133 151.925 648.501 152.289 648.744 152.728V151.328H650.032V159H648.744V157.572C648.492 158.02 648.114 158.393 647.61 158.692C647.115 158.981 646.537 159.126 645.874 159.126C645.193 159.126 644.577 158.958 644.026 158.622C643.475 158.286 643.041 157.815 642.724 157.208C642.407 156.601 642.248 155.911 642.248 155.136ZM648.744 155.15C648.744 154.571 648.627 154.067 648.394 153.638C648.161 153.209 647.843 152.882 647.442 152.658C647.05 152.425 646.616 152.308 646.14 152.308C645.664 152.308 645.23 152.42 644.838 152.644C644.446 152.868 644.133 153.195 643.9 153.624C643.667 154.053 643.55 154.557 643.55 155.136C643.55 155.724 643.667 156.237 643.9 156.676C644.133 157.105 644.446 157.437 644.838 157.67C645.23 157.894 645.664 158.006 646.14 158.006C646.616 158.006 647.05 157.894 647.442 157.67C647.843 157.437 648.161 157.105 648.394 156.676C648.627 156.237 648.744 155.729 648.744 155.15ZM655.181 159.126C654.593 159.126 654.066 159.028 653.599 158.832C653.132 158.627 652.764 158.347 652.493 157.992C652.222 157.628 652.073 157.213 652.045 156.746H653.361C653.398 157.129 653.576 157.441 653.893 157.684C654.22 157.927 654.644 158.048 655.167 158.048C655.652 158.048 656.035 157.941 656.315 157.726C656.595 157.511 656.735 157.241 656.735 156.914C656.735 156.578 656.586 156.331 656.287 156.172C655.988 156.004 655.526 155.841 654.901 155.682C654.332 155.533 653.865 155.383 653.501 155.234C653.146 155.075 652.838 154.847 652.577 154.548C652.325 154.24 652.199 153.839 652.199 153.344C652.199 152.952 652.316 152.593 652.549 152.266C652.782 151.939 653.114 151.683 653.543 151.496C653.972 151.3 654.462 151.202 655.013 151.202C655.862 151.202 656.548 151.417 657.071 151.846C657.594 152.275 657.874 152.863 657.911 153.61H656.637C656.609 153.209 656.446 152.887 656.147 152.644C655.858 152.401 655.466 152.28 654.971 152.28C654.514 152.28 654.15 152.378 653.879 152.574C653.608 152.77 653.473 153.027 653.473 153.344C653.473 153.596 653.552 153.806 653.711 153.974C653.879 154.133 654.084 154.263 654.327 154.366C654.579 154.459 654.924 154.567 655.363 154.688C655.914 154.837 656.362 154.987 656.707 155.136C657.052 155.276 657.346 155.491 657.589 155.78C657.841 156.069 657.972 156.447 657.981 156.914C657.981 157.334 657.864 157.712 657.631 158.048C657.398 158.384 657.066 158.65 656.637 158.846C656.217 159.033 655.732 159.126 655.181 159.126ZM661.613 152.378V156.9C661.613 157.273 661.693 157.539 661.851 157.698C662.01 157.847 662.285 157.922 662.677 157.922H663.615V159H662.467C661.758 159 661.226 158.837 660.871 158.51C660.517 158.183 660.339 157.647 660.339 156.9V152.378H659.345V151.328H660.339V149.396H661.613V151.328H663.615V152.378H661.613ZM670.725 152.742C670.977 152.303 671.351 151.939 671.845 151.65C672.349 151.351 672.933 151.202 673.595 151.202C674.277 151.202 674.893 151.365 675.443 151.692C676.003 152.019 676.442 152.481 676.759 153.078C677.077 153.666 677.235 154.352 677.235 155.136C677.235 155.911 677.077 156.601 676.759 157.208C676.442 157.815 676.003 158.286 675.443 158.622C674.893 158.958 674.277 159.126 673.595 159.126C672.942 159.126 672.363 158.981 671.859 158.692C671.365 158.393 670.987 158.025 670.725 157.586V162.64H669.451V151.328H670.725V152.742ZM675.933 155.136C675.933 154.557 675.817 154.053 675.583 153.624C675.35 153.195 675.033 152.868 674.631 152.644C674.239 152.42 673.805 152.308 673.329 152.308C672.863 152.308 672.429 152.425 672.027 152.658C671.635 152.882 671.318 153.213 671.075 153.652C670.842 154.081 670.725 154.581 670.725 155.15C670.725 155.729 670.842 156.237 671.075 156.676C671.318 157.105 671.635 157.437 672.027 157.67C672.429 157.894 672.863 158.006 673.329 158.006C673.805 158.006 674.239 157.894 674.631 157.67C675.033 157.437 675.35 157.105 675.583 156.676C675.817 156.237 675.933 155.724 675.933 155.136ZM686.192 154.87C686.192 155.113 686.178 155.369 686.15 155.64H680.018C680.065 156.396 680.322 156.989 680.788 157.418C681.264 157.838 681.838 158.048 682.51 158.048C683.061 158.048 683.518 157.922 683.882 157.67C684.256 157.409 684.517 157.063 684.666 156.634H686.038C685.833 157.371 685.422 157.973 684.806 158.44C684.19 158.897 683.425 159.126 682.51 159.126C681.782 159.126 681.129 158.963 680.55 158.636C679.981 158.309 679.533 157.847 679.206 157.25C678.88 156.643 678.716 155.943 678.716 155.15C678.716 154.357 678.875 153.661 679.192 153.064C679.51 152.467 679.953 152.009 680.522 151.692C681.101 151.365 681.764 151.202 682.51 151.202C683.238 151.202 683.882 151.361 684.442 151.678C685.002 151.995 685.432 152.434 685.73 152.994C686.038 153.545 686.192 154.17 686.192 154.87ZM684.876 154.604C684.876 154.119 684.769 153.703 684.554 153.358C684.34 153.003 684.046 152.737 683.672 152.56C683.308 152.373 682.902 152.28 682.454 152.28C681.81 152.28 681.26 152.485 680.802 152.896C680.354 153.307 680.098 153.876 680.032 154.604H684.876ZM689.428 152.574C689.652 152.135 689.969 151.795 690.38 151.552C690.8 151.309 691.309 151.188 691.906 151.188V152.504H691.57C690.142 152.504 689.428 153.279 689.428 154.828V159H688.154V151.328H689.428V152.574ZM694.315 150.082C694.072 150.082 693.867 149.998 693.699 149.83C693.531 149.662 693.447 149.457 693.447 149.214C693.447 148.971 693.531 148.766 693.699 148.598C693.867 148.43 694.072 148.346 694.315 148.346C694.548 148.346 694.744 148.43 694.903 148.598C695.071 148.766 695.155 148.971 695.155 149.214C695.155 149.457 695.071 149.662 694.903 149.83C694.744 149.998 694.548 150.082 694.315 150.082ZM694.931 151.328V159H693.657V151.328H694.931ZM700.728 159.126C700.009 159.126 699.356 158.963 698.768 158.636C698.189 158.309 697.732 157.847 697.396 157.25C697.069 156.643 696.906 155.943 696.906 155.15C696.906 154.366 697.074 153.675 697.41 153.078C697.755 152.471 698.222 152.009 698.81 151.692C699.398 151.365 700.056 151.202 700.784 151.202C701.512 151.202 702.17 151.365 702.758 151.692C703.346 152.009 703.808 152.467 704.144 153.064C704.489 153.661 704.662 154.357 704.662 155.15C704.662 155.943 704.485 156.643 704.13 157.25C703.785 157.847 703.313 158.309 702.716 158.636C702.119 158.963 701.456 159.126 700.728 159.126ZM700.728 158.006C701.185 158.006 701.615 157.899 702.016 157.684C702.417 157.469 702.739 157.147 702.982 156.718C703.234 156.289 703.36 155.766 703.36 155.15C703.36 154.534 703.239 154.011 702.996 153.582C702.753 153.153 702.436 152.835 702.044 152.63C701.652 152.415 701.227 152.308 700.77 152.308C700.303 152.308 699.874 152.415 699.482 152.63C699.099 152.835 698.791 153.153 698.558 153.582C698.325 154.011 698.208 154.534 698.208 155.15C698.208 155.775 698.32 156.303 698.544 156.732C698.777 157.161 699.085 157.483 699.468 157.698C699.851 157.903 700.271 158.006 700.728 158.006ZM706.141 155.136C706.141 154.352 706.3 153.666 706.617 153.078C706.934 152.481 707.368 152.019 707.919 151.692C708.479 151.365 709.104 151.202 709.795 151.202C710.392 151.202 710.948 151.342 711.461 151.622C711.974 151.893 712.366 152.252 712.637 152.7V148.64H713.925V159H712.637V157.558C712.385 158.015 712.012 158.393 711.517 158.692C711.022 158.981 710.444 159.126 709.781 159.126C709.1 159.126 708.479 158.958 707.919 158.622C707.368 158.286 706.934 157.815 706.617 157.208C706.3 156.601 706.141 155.911 706.141 155.136ZM712.637 155.15C712.637 154.571 712.52 154.067 712.287 153.638C712.054 153.209 711.736 152.882 711.335 152.658C710.943 152.425 710.509 152.308 710.033 152.308C709.557 152.308 709.123 152.42 708.731 152.644C708.339 152.868 708.026 153.195 707.793 153.624C707.56 154.053 707.443 154.557 707.443 155.136C707.443 155.724 707.56 156.237 707.793 156.676C708.026 157.105 708.339 157.437 708.731 157.67C709.123 157.894 709.557 158.006 710.033 158.006C710.509 158.006 710.943 157.894 711.335 157.67C711.736 157.437 712.054 157.105 712.287 156.676C712.52 156.237 712.637 155.729 712.637 155.15Z" fill="#666D80"/>
</g>
<rect x="379.5" y="1.5" width="351" height="173" rx="15.5" stroke="#272835"/>
</g>
<g filter="url(#filter4_d_1_2506)">
<g clip-path="url(#clip5_1_2506)">
<rect x="755" y="1" width="352" height="174" rx="16" fill="#15161E"/>
<mask id="path-29-inside-3_1_2506" fill="white">
<path d="M755 1H1107V136H755V1Z"/>
</mask>
<path d="M755 1H1107V136H755V1Z" fill="#0D0D12"/>
<path d="M1107 135H755V137H1107V135Z" fill="#272835" mask="url(#path-29-inside-3_1_2506)"/>
<g filter="url(#filter5_d_1_2506)">
<rect x="771" y="17" width="40" height="40" rx="10" fill="#0D0D12" shape-rendering="crispEdges"/>
<rect x="771.5" y="17.5" width="39" height="39" rx="9.5" stroke="#272835" shape-rendering="crispEdges"/>
<path d="M792.667 38.6667H789.333C787.032 38.6667 785.167 40.5321 785.167 42.8333V43.6667C785.167 44.1269 785.54 44.5 786 44.5H796C796.46 44.5 796.833 44.1269 796.833 43.6667V42.8333C796.833 40.5321 794.968 38.6667 792.667 38.6667Z" stroke="#33CFFF" stroke-width="2.4"/>
<path d="M791 36.1667C792.841 36.1667 794.333 34.6743 794.333 32.8333C794.333 30.9924 792.841 29.5 791 29.5C789.159 29.5 787.667 30.9924 787.667 32.8333C787.667 34.6743 789.159 36.1667 791 36.1667Z" stroke="#33CFFF" stroke-width="2.4"/>
</g>
<path d="M778.084 78.242V79.278H775.424V88H774.15V79.278H771.476V78.242H778.084ZM783.278 88.126C782.56 88.126 781.906 87.9627 781.318 87.636C780.74 87.3093 780.282 86.8473 779.946 86.25C779.62 85.6433 779.456 84.9433 779.456 84.15C779.456 83.366 779.624 82.6753 779.96 82.078C780.306 81.4713 780.772 81.0093 781.36 80.692C781.948 80.3653 782.606 80.202 783.334 80.202C784.062 80.202 784.72 80.3653 785.308 80.692C785.896 81.0093 786.358 81.4667 786.694 82.064C787.04 82.6613 787.212 83.3567 787.212 84.15C787.212 84.9433 787.035 85.6433 786.68 86.25C786.335 86.8473 785.864 87.3093 785.266 87.636C784.669 87.9627 784.006 88.126 783.278 88.126ZM783.278 87.006C783.736 87.006 784.165 86.8987 784.566 86.684C784.968 86.4693 785.29 86.1473 785.532 85.718C785.784 85.2887 785.91 84.766 785.91 84.15C785.91 83.534 785.789 83.0113 785.546 82.582C785.304 82.1527 784.986 81.8353 784.594 81.63C784.202 81.4153 783.778 81.308 783.32 81.308C782.854 81.308 782.424 81.4153 782.032 81.63C781.65 81.8353 781.342 82.1527 781.108 82.582C780.875 83.0113 780.758 83.534 780.758 84.15C780.758 84.7753 780.87 85.3027 781.094 85.732C781.328 86.1613 781.636 86.4833 782.018 86.698C782.401 86.9033 782.821 87.006 783.278 87.006ZM790.721 81.378V85.9C790.721 86.2733 790.801 86.5393 790.959 86.698C791.118 86.8473 791.393 86.922 791.785 86.922H792.723V88H791.575C790.866 88 790.334 87.8367 789.979 87.51C789.625 87.1833 789.447 86.6467 789.447 85.9V81.378H788.453V80.328H789.447V78.396H790.721V80.328H792.723V81.378H790.721ZM794.071 84.136C794.071 83.352 794.23 82.666 794.547 82.078C794.864 81.4807 795.298 81.0187 795.849 80.692C796.409 80.3653 797.03 80.202 797.711 80.202C798.383 80.202 798.966 80.3467 799.461 80.636C799.956 80.9253 800.324 81.2893 800.567 81.728V80.328H801.855V88H800.567V86.572C800.315 87.02 799.937 87.3933 799.433 87.692C798.938 87.9813 798.36 88.126 797.697 88.126C797.016 88.126 796.4 87.958 795.849 87.622C795.298 87.286 794.864 86.8147 794.547 86.208C794.23 85.6013 794.071 84.9107 794.071 84.136ZM800.567 84.15C800.567 83.5713 800.45 83.0673 800.217 82.638C799.984 82.2087 799.666 81.882 799.265 81.658C798.873 81.4247 798.439 81.308 797.963 81.308C797.487 81.308 797.053 81.42 796.661 81.644C796.269 81.868 795.956 82.1947 795.723 82.624C795.49 83.0533 795.373 83.5573 795.373 84.136C795.373 84.724 795.49 85.2373 795.723 85.676C795.956 86.1053 796.269 86.4367 796.661 86.67C797.053 86.894 797.487 87.006 797.963 87.006C798.439 87.006 798.873 86.894 799.265 86.67C799.666 86.4367 799.984 86.1053 800.217 85.676C800.45 85.2373 800.567 84.7287 800.567 84.15ZM805.562 77.64V88H804.288V77.64H805.562ZM815.064 78.242C816.128 78.242 817.047 78.4427 817.822 78.844C818.606 79.236 819.203 79.8007 819.614 80.538C820.034 81.2753 820.244 82.1433 820.244 83.142C820.244 84.1407 820.034 85.0087 819.614 85.746C819.203 86.474 818.606 87.034 817.822 87.426C817.047 87.8087 816.128 88 815.064 88H812.026V78.242H815.064ZM815.064 86.95C816.324 86.95 817.285 86.6187 817.948 85.956C818.61 85.284 818.942 84.346 818.942 83.142C818.942 81.9287 818.606 80.9813 817.934 80.3C817.271 79.6187 816.314 79.278 815.064 79.278H813.3V86.95H815.064ZM829.204 83.87C829.204 84.1127 829.19 84.3693 829.162 84.64H823.03C823.077 85.396 823.333 85.9887 823.8 86.418C824.276 86.838 824.85 87.048 825.522 87.048C826.073 87.048 826.53 86.922 826.894 86.67C827.267 86.4087 827.529 86.0633 827.678 85.634H829.05C828.845 86.3713 828.434 86.9733 827.818 87.44C827.202 87.8973 826.437 88.126 825.522 88.126C824.794 88.126 824.141 87.9627 823.562 87.636C822.993 87.3093 822.545 86.8473 822.218 86.25C821.891 85.6433 821.728 84.9433 821.728 84.15C821.728 83.3567 821.887 82.6613 822.204 82.064C822.521 81.4667 822.965 81.0093 823.534 80.692C824.113 80.3653 824.775 80.202 825.522 80.202C826.25 80.202 826.894 80.3607 827.454 80.678C828.014 80.9953 828.443 81.434 828.742 81.994C829.05 82.5447 829.204 83.17 829.204 83.87ZM827.888 83.604C827.888 83.1187 827.781 82.7033 827.566 82.358C827.351 82.0033 827.057 81.7373 826.684 81.56C826.32 81.3733 825.914 81.28 825.466 81.28C824.822 81.28 824.271 81.4853 823.814 81.896C823.366 82.3067 823.109 82.876 823.044 83.604H827.888ZM830.69 84.136C830.69 83.352 830.848 82.666 831.166 82.078C831.483 81.4807 831.917 81.0187 832.468 80.692C833.028 80.3653 833.648 80.202 834.33 80.202C835.002 80.202 835.585 80.3467 836.08 80.636C836.574 80.9253 836.943 81.2893 837.186 81.728V80.328H838.474V88H837.186V86.572C836.934 87.02 836.556 87.3933 836.052 87.692C835.557 87.9813 834.978 88.126 834.316 88.126C833.634 88.126 833.018 87.958 832.468 87.622C831.917 87.286 831.483 86.8147 831.166 86.208C830.848 85.6013 830.69 84.9107 830.69 84.136ZM837.186 84.15C837.186 83.5713 837.069 83.0673 836.836 82.638C836.602 82.2087 836.285 81.882 835.884 81.658C835.492 81.4247 835.058 81.308 834.582 81.308C834.106 81.308 833.672 81.42 833.28 81.644C832.888 81.868 832.575 82.1947 832.342 82.624C832.108 83.0533 831.992 83.5573 831.992 84.136C831.992 84.724 832.108 85.2373 832.342 85.676C832.575 86.1053 832.888 86.4367 833.28 86.67C833.672 86.894 834.106 87.006 834.582 87.006C835.058 87.006 835.492 86.894 835.884 86.67C836.285 86.4367 836.602 86.1053 836.836 85.676C837.069 85.2373 837.186 84.7287 837.186 84.15ZM842.181 77.64V88H840.907V77.64H842.181ZM847.348 88.126C846.76 88.126 846.233 88.028 845.766 87.832C845.299 87.6267 844.931 87.3467 844.66 86.992C844.389 86.628 844.24 86.2127 844.212 85.746H845.528C845.565 86.1287 845.743 86.4413 846.06 86.684C846.387 86.9267 846.811 87.048 847.334 87.048C847.819 87.048 848.202 86.9407 848.482 86.726C848.762 86.5113 848.902 86.2407 848.902 85.914C848.902 85.578 848.753 85.3307 848.454 85.172C848.155 85.004 847.693 84.8407 847.068 84.682C846.499 84.5327 846.032 84.3833 845.668 84.234C845.313 84.0753 845.005 83.8467 844.744 83.548C844.492 83.24 844.366 82.8387 844.366 82.344C844.366 81.952 844.483 81.5927 844.716 81.266C844.949 80.9393 845.281 80.6827 845.71 80.496C846.139 80.3 846.629 80.202 847.18 80.202C848.029 80.202 848.715 80.4167 849.238 80.846C849.761 81.2753 850.041 81.8633 850.078 82.61H848.804C848.776 82.2087 848.613 81.8867 848.314 81.644C848.025 81.4013 847.633 81.28 847.138 81.28C846.681 81.28 846.317 81.378 846.046 81.574C845.775 81.77 845.64 82.0267 845.64 82.344C845.64 82.596 845.719 82.806 845.878 82.974C846.046 83.1327 846.251 83.2633 846.494 83.366C846.746 83.4593 847.091 83.5667 847.53 83.688C848.081 83.8373 848.529 83.9867 848.874 84.136C849.219 84.276 849.513 84.4907 849.756 84.78C850.008 85.0693 850.139 85.4473 850.148 85.914C850.148 86.334 850.031 86.712 849.798 87.048C849.565 87.384 849.233 87.65 848.804 87.846C848.384 88.0327 847.899 88.126 847.348 88.126Z" fill="#666D80"/>
<path d="M771.684 104.48V102.986H775.068V116H773.412V104.48H771.684ZM779.844 113.732L777.828 118.574H776.73L778.044 113.732H779.844ZM781.252 114.686C782.776 113.462 783.97 112.46 784.834 111.68C785.698 110.888 786.424 110.066 787.012 109.214C787.612 108.35 787.912 107.504 787.912 106.676C787.912 105.896 787.72 105.284 787.336 104.84C786.964 104.384 786.358 104.156 785.518 104.156C784.702 104.156 784.066 104.414 783.61 104.93C783.166 105.434 782.926 106.112 782.89 106.964H781.306C781.354 105.62 781.762 104.582 782.53 103.85C783.298 103.118 784.288 102.752 785.5 102.752C786.736 102.752 787.714 103.094 788.434 103.778C789.166 104.462 789.532 105.404 789.532 106.604C789.532 107.6 789.232 108.572 788.632 109.52C788.044 110.456 787.372 111.284 786.616 112.004C785.86 112.712 784.894 113.54 783.718 114.488H789.91V115.856H781.252V114.686ZM791.804 109.358C791.804 107.294 792.14 105.686 792.812 104.534C793.484 103.37 794.66 102.788 796.34 102.788C798.008 102.788 799.178 103.37 799.85 104.534C800.521 105.686 800.857 107.294 800.857 109.358C800.857 111.458 800.521 113.09 799.85 114.254C799.178 115.418 798.008 116 796.34 116C794.66 116 793.484 115.418 792.812 114.254C792.14 113.09 791.804 111.458 791.804 109.358ZM799.238 109.358C799.238 108.314 799.166 107.432 799.022 106.712C798.89 105.98 798.608 105.392 798.176 104.948C797.756 104.504 797.144 104.282 796.34 104.282C795.524 104.282 794.9 104.504 794.468 104.948C794.048 105.392 793.766 105.98 793.622 106.712C793.49 107.432 793.424 108.314 793.424 109.358C793.424 110.438 793.49 111.344 793.622 112.076C793.766 112.808 794.048 113.396 794.468 113.84C794.9 114.284 795.524 114.506 796.34 114.506C797.144 114.506 797.756 114.284 798.176 113.84C798.608 113.396 798.89 112.808 799.022 112.076C799.166 111.344 799.238 110.438 799.238 109.358ZM802.71 113.102V111.86L809.028 103.112H810.99V111.68H812.79V113.102H810.99V116H809.37V113.102H802.71ZM809.442 104.822L804.6 111.68H809.442V104.822Z" fill="white"/>
<g clip-path="url(#clip6_1_2506)">
<path d="M1084.54 108.464L1077.46 115.536M1084.54 108.464H1079.23M1084.54 108.464V113.768M1075.11 117.893C1071.85 114.638 1071.85 109.362 1075.11 106.107C1078.36 102.853 1083.64 102.853 1086.89 106.107C1090.15 109.362 1090.15 114.638 1086.89 117.893C1083.64 121.147 1078.36 121.147 1075.11 117.893Z" stroke="#353849" stroke-width="1.66667" stroke-linecap="round" stroke-linejoin="round"/>
</g>
<path d="M779 159.833V149.167M779 159.833L775 155.833M779 159.833L783 155.833" stroke="#DF1C41" stroke-width="2" stroke-linecap="round" stroke-linejoin="round"/>
<path d="M789.868 153.834C789.868 152.229 790.129 150.978 790.652 150.082C791.175 149.177 792.089 148.724 793.396 148.724C794.693 148.724 795.603 149.177 796.126 150.082C796.649 150.978 796.91 152.229 796.91 153.834C796.91 155.467 796.649 156.737 796.126 157.642C795.603 158.547 794.693 159 793.396 159C792.089 159 791.175 158.547 790.652 157.642C790.129 156.737 789.868 155.467 789.868 153.834ZM795.65 153.834C795.65 153.022 795.594 152.336 795.482 151.776C795.379 151.207 795.16 150.749 794.824 150.404C794.497 150.059 794.021 149.886 793.396 149.886C792.761 149.886 792.276 150.059 791.94 150.404C791.613 150.749 791.394 151.207 791.282 151.776C791.179 152.336 791.128 153.022 791.128 153.834C791.128 154.674 791.179 155.379 791.282 155.948C791.394 156.517 791.613 156.975 791.94 157.32C792.276 157.665 792.761 157.838 793.396 157.838C794.021 157.838 794.497 157.665 794.824 157.32C795.16 156.975 795.379 156.517 795.482 155.948C795.594 155.379 795.65 154.674 795.65 153.834ZM800.465 157.236L798.897 161.002H798.043L799.065 157.236H800.465ZM808.448 149.984H803.534V153.176C803.749 152.877 804.066 152.635 804.486 152.448C804.906 152.252 805.359 152.154 805.844 152.154C806.619 152.154 807.249 152.317 807.734 152.644C808.22 152.961 808.565 153.377 808.77 153.89C808.985 154.394 809.092 154.931 809.092 155.5C809.092 156.172 808.966 156.774 808.714 157.306C808.462 157.838 808.075 158.258 807.552 158.566C807.039 158.874 806.4 159.028 805.634 159.028C804.654 159.028 803.861 158.776 803.254 158.272C802.648 157.768 802.279 157.096 802.148 156.256H803.394C803.516 156.788 803.772 157.203 804.164 157.502C804.556 157.801 805.051 157.95 805.648 157.95C806.386 157.95 806.941 157.731 807.314 157.292C807.688 156.844 807.874 156.256 807.874 155.528C807.874 154.8 807.688 154.24 807.314 153.848C806.941 153.447 806.39 153.246 805.662 153.246C805.168 153.246 804.734 153.367 804.36 153.61C803.996 153.843 803.73 154.165 803.562 154.576H802.358V148.864H808.448V149.984ZM810.785 151.16C810.785 150.525 810.977 150.021 811.359 149.648C811.742 149.265 812.232 149.074 812.829 149.074C813.427 149.074 813.917 149.265 814.299 149.648C814.682 150.021 814.873 150.525 814.873 151.16C814.873 151.804 814.682 152.317 814.299 152.7C813.917 153.073 813.427 153.26 812.829 153.26C812.232 153.26 811.742 153.073 811.359 152.7C810.977 152.317 810.785 151.804 810.785 151.16ZM818.961 149.228L813.291 159H812.031L817.701 149.228H818.961ZM812.829 149.858C812.512 149.858 812.26 149.97 812.073 150.194C811.896 150.409 811.807 150.731 811.807 151.16C811.807 151.589 811.896 151.916 812.073 152.14C812.26 152.364 812.512 152.476 812.829 152.476C813.147 152.476 813.399 152.364 813.585 152.14C813.772 151.907 813.865 151.58 813.865 151.16C813.865 150.731 813.772 150.409 813.585 150.194C813.399 149.97 813.147 149.858 812.829 149.858ZM816.147 157.068C816.147 156.424 816.339 155.915 816.721 155.542C817.104 155.159 817.594 154.968 818.191 154.968C818.789 154.968 819.274 155.159 819.647 155.542C820.03 155.915 820.221 156.424 820.221 157.068C820.221 157.703 820.03 158.211 819.647 158.594C819.274 158.977 818.789 159.168 818.191 159.168C817.594 159.168 817.104 158.981 816.721 158.608C816.339 158.225 816.147 157.712 816.147 157.068ZM818.177 155.766C817.86 155.766 817.608 155.878 817.421 156.102C817.235 156.317 817.141 156.639 817.141 157.068C817.141 157.488 817.235 157.81 817.421 158.034C817.608 158.249 817.86 158.356 818.177 158.356C818.495 158.356 818.747 158.249 818.933 158.034C819.12 157.81 819.213 157.488 819.213 157.068C819.213 156.639 819.12 156.317 818.933 156.102C818.747 155.878 818.495 155.766 818.177 155.766Z" fill="#DF1C41"/>
<path d="M979.779 152.378H978.169V159H976.895V152.378H975.901V151.328H976.895V150.782C976.895 149.923 977.115 149.298 977.553 148.906C978.001 148.505 978.715 148.304 979.695 148.304V149.368C979.135 149.368 978.739 149.48 978.505 149.704C978.281 149.919 978.169 150.278 978.169 150.782V151.328H979.779V152.378ZM982.819 152.574C983.043 152.135 983.36 151.795 983.771 151.552C984.191 151.309 984.699 151.188 985.297 151.188V152.504H984.961C983.533 152.504 982.819 153.279 982.819 154.828V159H981.545V151.328H982.819V152.574ZM990.393 159.126C989.675 159.126 989.021 158.963 988.433 158.636C987.855 158.309 987.397 157.847 987.061 157.25C986.735 156.643 986.571 155.943 986.571 155.15C986.571 154.366 986.739 153.675 987.075 153.078C987.421 152.471 987.887 152.009 988.475 151.692C989.063 151.365 989.721 151.202 990.449 151.202C991.177 151.202 991.835 151.365 992.423 151.692C993.011 152.009 993.473 152.467 993.809 153.064C994.155 153.661 994.327 154.357 994.327 155.15C994.327 155.943 994.15 156.643 993.795 157.25C993.45 157.847 992.979 158.309 992.381 158.636C991.784 158.963 991.121 159.126 990.393 159.126ZM990.393 158.006C990.851 158.006 991.28 157.899 991.681 157.684C992.083 157.469 992.405 157.147 992.647 156.718C992.899 156.289 993.025 155.766 993.025 155.15C993.025 154.534 992.904 154.011 992.661 153.582C992.419 153.153 992.101 152.835 991.709 152.63C991.317 152.415 990.893 152.308 990.435 152.308C989.969 152.308 989.539 152.415 989.147 152.63C988.765 152.835 988.457 153.153 988.223 153.582C987.99 154.011 987.873 154.534 987.873 155.15C987.873 155.775 987.985 156.303 988.209 156.732C988.443 157.161 988.751 157.483 989.133 157.698C989.516 157.903 989.936 158.006 990.393 158.006ZM1005.51 151.188C1006.11 151.188 1006.64 151.314 1007.1 151.566C1007.57 151.809 1007.94 152.177 1008.21 152.672C1008.48 153.167 1008.62 153.769 1008.62 154.478V159H1007.36V154.66C1007.36 153.895 1007.17 153.311 1006.78 152.91C1006.41 152.499 1005.9 152.294 1005.26 152.294C1004.59 152.294 1004.07 152.509 1003.67 152.938C1003.28 153.358 1003.09 153.969 1003.09 154.772V159H1001.83V154.66C1001.83 153.895 1001.64 153.311 1001.25 152.91C1000.88 152.499 1000.37 152.294 999.726 152.294C999.064 152.294 998.536 152.509 998.144 152.938C997.752 153.358 997.556 153.969 997.556 154.772V159H996.282V151.328H997.556V152.434C997.808 152.033 998.144 151.725 998.564 151.51C998.994 151.295 999.465 151.188 999.978 151.188C1000.62 151.188 1001.19 151.333 1001.69 151.622C1002.18 151.911 1002.55 152.336 1002.79 152.896C1003.01 152.355 1003.36 151.935 1003.86 151.636C1004.35 151.337 1004.9 151.188 1005.51 151.188ZM1016.27 148.64V159H1015V148.64H1016.27ZM1018.25 155.136C1018.25 154.352 1018.41 153.666 1018.72 153.078C1019.04 152.481 1019.48 152.019 1020.03 151.692C1020.59 151.365 1021.21 151.202 1021.89 151.202C1022.56 151.202 1023.14 151.347 1023.64 151.636C1024.13 151.925 1024.5 152.289 1024.74 152.728V151.328H1026.03V159H1024.74V157.572C1024.49 158.02 1024.11 158.393 1023.61 158.692C1023.12 158.981 1022.54 159.126 1021.87 159.126C1021.19 159.126 1020.58 158.958 1020.03 158.622C1019.48 158.286 1019.04 157.815 1018.72 157.208C1018.41 156.601 1018.25 155.911 1018.25 155.136ZM1024.74 155.15C1024.74 154.571 1024.63 154.067 1024.39 153.638C1024.16 153.209 1023.84 152.882 1023.44 152.658C1023.05 152.425 1022.62 152.308 1022.14 152.308C1021.66 152.308 1021.23 152.42 1020.84 152.644C1020.45 152.868 1020.13 153.195 1019.9 153.624C1019.67 154.053 1019.55 154.557 1019.55 155.136C1019.55 155.724 1019.67 156.237 1019.9 156.676C1020.13 157.105 1020.45 157.437 1020.84 157.67C1021.23 157.894 1021.66 158.006 1022.14 158.006C1022.62 158.006 1023.05 157.894 1023.44 157.67C1023.84 157.437 1024.16 157.105 1024.39 156.676C1024.63 156.237 1024.74 155.729 1024.74 155.15ZM1031.18 159.126C1030.59 159.126 1030.07 159.028 1029.6 158.832C1029.13 158.627 1028.76 158.347 1028.49 157.992C1028.22 157.628 1028.07 157.213 1028.04 156.746H1029.36C1029.4 157.129 1029.58 157.441 1029.89 157.684C1030.22 157.927 1030.64 158.048 1031.17 158.048C1031.65 158.048 1032.03 157.941 1032.31 157.726C1032.59 157.511 1032.73 157.241 1032.73 156.914C1032.73 156.578 1032.59 156.331 1032.29 156.172C1031.99 156.004 1031.53 155.841 1030.9 155.682C1030.33 155.533 1029.86 155.383 1029.5 155.234C1029.15 155.075 1028.84 154.847 1028.58 154.548C1028.32 154.24 1028.2 153.839 1028.2 153.344C1028.2 152.952 1028.32 152.593 1028.55 152.266C1028.78 151.939 1029.11 151.683 1029.54 151.496C1029.97 151.3 1030.46 151.202 1031.01 151.202C1031.86 151.202 1032.55 151.417 1033.07 151.846C1033.59 152.275 1033.87 152.863 1033.91 153.61H1032.64C1032.61 153.209 1032.45 152.887 1032.15 152.644C1031.86 152.401 1031.47 152.28 1030.97 152.28C1030.51 152.28 1030.15 152.378 1029.88 152.574C1029.61 152.77 1029.47 153.027 1029.47 153.344C1029.47 153.596 1029.55 153.806 1029.71 153.974C1029.88 154.133 1030.08 154.263 1030.33 154.366C1030.58 154.459 1030.92 154.567 1031.36 154.688C1031.91 154.837 1032.36 154.987 1032.71 155.136C1033.05 155.276 1033.35 155.491 1033.59 155.78C1033.84 156.069 1033.97 156.447 1033.98 156.914C1033.98 157.334 1033.86 157.712 1033.63 158.048C1033.4 158.384 1033.07 158.65 1032.64 158.846C1032.22 159.033 1031.73 159.126 1031.18 159.126ZM1037.61 152.378V156.9C1037.61 157.273 1037.69 157.539 1037.85 157.698C1038.01 157.847 1038.29 157.922 1038.68 157.922H1039.62V159H1038.47C1037.76 159 1037.23 158.837 1036.87 158.51C1036.52 158.183 1036.34 157.647 1036.34 156.9V152.378H1035.35V151.328H1036.34V149.396H1037.61V151.328H1039.62V152.378H1037.61ZM1046.73 152.742C1046.98 152.303 1047.35 151.939 1047.85 151.65C1048.35 151.351 1048.93 151.202 1049.6 151.202C1050.28 151.202 1050.89 151.365 1051.44 151.692C1052 152.019 1052.44 152.481 1052.76 153.078C1053.08 153.666 1053.24 154.352 1053.24 155.136C1053.24 155.911 1053.08 156.601 1052.76 157.208C1052.44 157.815 1052 158.286 1051.44 158.622C1050.89 158.958 1050.28 159.126 1049.6 159.126C1048.94 159.126 1048.36 158.981 1047.86 158.692C1047.36 158.393 1046.99 158.025 1046.73 157.586V162.64H1045.45V151.328H1046.73V152.742ZM1051.93 155.136C1051.93 154.557 1051.82 154.053 1051.58 153.624C1051.35 153.195 1051.03 152.868 1050.63 152.644C1050.24 152.42 1049.81 152.308 1049.33 152.308C1048.86 152.308 1048.43 152.425 1048.03 152.658C1047.64 152.882 1047.32 153.213 1047.08 153.652C1046.84 154.081 1046.73 154.581 1046.73 155.15C1046.73 155.729 1046.84 156.237 1047.08 156.676C1047.32 157.105 1047.64 157.437 1048.03 157.67C1048.43 157.894 1048.86 158.006 1049.33 158.006C1049.81 158.006 1050.24 157.894 1050.63 157.67C1051.03 157.437 1051.35 157.105 1051.58 156.676C1051.82 156.237 1051.93 155.724 1051.93 155.136ZM1062.19 154.87C1062.19 155.113 1062.18 155.369 1062.15 155.64H1056.02C1056.07 156.396 1056.32 156.989 1056.79 157.418C1057.26 157.838 1057.84 158.048 1058.51 158.048C1059.06 158.048 1059.52 157.922 1059.88 157.67C1060.26 157.409 1060.52 157.063 1060.67 156.634H1062.04C1061.83 157.371 1061.42 157.973 1060.81 158.44C1060.19 158.897 1059.43 159.126 1058.51 159.126C1057.78 159.126 1057.13 158.963 1056.55 158.636C1055.98 158.309 1055.53 157.847 1055.21 157.25C1054.88 156.643 1054.72 155.943 1054.72 155.15C1054.72 154.357 1054.88 153.661 1055.19 153.064C1055.51 152.467 1055.95 152.009 1056.52 151.692C1057.1 151.365 1057.76 151.202 1058.51 151.202C1059.24 151.202 1059.88 151.361 1060.44 151.678C1061 151.995 1061.43 152.434 1061.73 152.994C1062.04 153.545 1062.19 154.17 1062.19 154.87ZM1060.88 154.604C1060.88 154.119 1060.77 153.703 1060.55 153.358C1060.34 153.003 1060.05 152.737 1059.67 152.56C1059.31 152.373 1058.9 152.28 1058.45 152.28C1057.81 152.28 1057.26 152.485 1056.8 152.896C1056.35 153.307 1056.1 153.876 1056.03 154.604H1060.88ZM1065.43 152.574C1065.65 152.135 1065.97 151.795 1066.38 151.552C1066.8 151.309 1067.31 151.188 1067.91 151.188V152.504H1067.57C1066.14 152.504 1065.43 153.279 1065.43 154.828V159H1064.15V151.328H1065.43V152.574ZM1070.31 150.082C1070.07 150.082 1069.87 149.998 1069.7 149.83C1069.53 149.662 1069.45 149.457 1069.45 149.214C1069.45 148.971 1069.53 148.766 1069.7 148.598C1069.87 148.43 1070.07 148.346 1070.31 148.346C1070.55 148.346 1070.74 148.43 1070.9 148.598C1071.07 148.766 1071.15 148.971 1071.15 149.214C1071.15 149.457 1071.07 149.662 1070.9 149.83C1070.74 149.998 1070.55 150.082 1070.31 150.082ZM1070.93 151.328V159H1069.66V151.328H1070.93ZM1076.73 159.126C1076.01 159.126 1075.36 158.963 1074.77 158.636C1074.19 158.309 1073.73 157.847 1073.4 157.25C1073.07 156.643 1072.91 155.943 1072.91 155.15C1072.91 154.366 1073.07 153.675 1073.41 153.078C1073.76 152.471 1074.22 152.009 1074.81 151.692C1075.4 151.365 1076.06 151.202 1076.78 151.202C1077.51 151.202 1078.17 151.365 1078.76 151.692C1079.35 152.009 1079.81 152.467 1080.14 153.064C1080.49 153.661 1080.66 154.357 1080.66 155.15C1080.66 155.943 1080.48 156.643 1080.13 157.25C1079.78 157.847 1079.31 158.309 1078.72 158.636C1078.12 158.963 1077.46 159.126 1076.73 159.126ZM1076.73 158.006C1077.19 158.006 1077.61 157.899 1078.02 157.684C1078.42 157.469 1078.74 157.147 1078.98 156.718C1079.23 156.289 1079.36 155.766 1079.36 155.15C1079.36 154.534 1079.24 154.011 1079 153.582C1078.75 153.153 1078.44 152.835 1078.04 152.63C1077.65 152.415 1077.23 152.308 1076.77 152.308C1076.3 152.308 1075.87 152.415 1075.48 152.63C1075.1 152.835 1074.79 153.153 1074.56 153.582C1074.32 154.011 1074.21 154.534 1074.21 155.15C1074.21 155.775 1074.32 156.303 1074.54 156.732C1074.78 157.161 1075.09 157.483 1075.47 157.698C1075.85 157.903 1076.27 158.006 1076.73 158.006ZM1082.14 155.136C1082.14 154.352 1082.3 153.666 1082.62 153.078C1082.93 152.481 1083.37 152.019 1083.92 151.692C1084.48 151.365 1085.1 151.202 1085.8 151.202C1086.39 151.202 1086.95 151.342 1087.46 151.622C1087.97 151.893 1088.37 152.252 1088.64 152.7V148.64H1089.93V159H1088.64V157.558C1088.39 158.015 1088.01 158.393 1087.52 158.692C1087.02 158.981 1086.44 159.126 1085.78 159.126C1085.1 159.126 1084.48 158.958 1083.92 158.622C1083.37 158.286 1082.93 157.815 1082.62 157.208C1082.3 156.601 1082.14 155.911 1082.14 155.136ZM1088.64 155.15C1088.64 154.571 1088.52 154.067 1088.29 153.638C1088.05 153.209 1087.74 152.882 1087.34 152.658C1086.94 152.425 1086.51 152.308 1086.03 152.308C1085.56 152.308 1085.12 152.42 1084.73 152.644C1084.34 152.868 1084.03 153.195 1083.79 153.624C1083.56 154.053 1083.44 154.557 1083.44 155.136C1083.44 155.724 1083.56 156.237 1083.79 156.676C1084.03 157.105 1084.34 157.437 1084.73 157.67C1085.12 157.894 1085.56 158.006 1086.03 158.006C1086.51 158.006 1086.94 157.894 1087.34 157.67C1087.74 157.437 1088.05 157.105 1088.29 156.676C1088.52 156.237 1088.64 155.729 1088.64 155.15Z" fill="#666D80"/>
</g>
<rect x="755.5" y="1.5" width="351" height="173" rx="15.5" stroke="#272835"/>
</g>
<defs>
<filter id="filter0_d_1_2506" x="0" y="0" width="358" height="180" filterUnits="userSpaceOnUse" color-interpolation-filters="sRGB">
<feFlood flood-opacity="0" result="BackgroundImageFix"/>
<feColorMatrix in="SourceAlpha" type="matrix" values="0 0 0 0 0 0 0 0 0 0 0 0 0 0 0 0 0 0 127 0" result="hardAlpha"/>
<feMorphology radius="1" operator="erode" in="SourceAlpha" result="effect1_dropShadow_1_2506"/>
<feOffset dy="2"/>
<feGaussianBlur stdDeviation="2"/>
<feComposite in2="hardAlpha" operator="out"/>
<feColorMatrix type="matrix" values="0 0 0 0 0.0509804 0 0 0 0 0.0509804 0 0 0 0 0.0705882 0 0 0 0.06 0"/>
<feBlend mode="normal" in2="BackgroundImageFix" result="effect1_dropShadow_1_2506"/>
<feBlend mode="normal" in="SourceGraphic" in2="effect1_dropShadow_1_2506" result="shape"/>
</filter>
<filter id="filter1_d_1_2506" x="17" y="16" width="44" height="44" filterUnits="userSpaceOnUse" color-interpolation-filters="sRGB">
<feFlood flood-opacity="0" result="BackgroundImageFix"/>
<feColorMatrix in="SourceAlpha" type="matrix" values="0 0 0 0 0 0 0 0 0 0 0 0 0 0 0 0 0 0 127 0" result="hardAlpha"/>
<feOffset dy="1"/>
<feGaussianBlur stdDeviation="1"/>
<feComposite in2="hardAlpha" operator="out"/>
<feColorMatrix type="matrix" values="0 0 0 0 0.0509804 0 0 0 0 0.0509804 0 0 0 0 0.0705882 0 0 0 0.06 0"/>
<feBlend mode="normal" in2="BackgroundImageFix" result="effect1_dropShadow_1_2506"/>
<feBlend mode="normal" in="SourceGraphic" in2="effect1_dropShadow_1_2506" result="shape"/>
</filter>
<filter id="filter2_d_1_2506" x="376" y="0" width="358" height="180" filterUnits="userSpaceOnUse" color-interpolation-filters="sRGB">
<feFlood flood-opacity="0" result="BackgroundImageFix"/>
<feColorMatrix in="SourceAlpha" type="matrix" values="0 0 0 0 0 0 0 0 0 0 0 0 0 0 0 0 0 0 127 0" result="hardAlpha"/>
<feMorphology radius="1" operator="erode" in="SourceAlpha" result="effect1_dropShadow_1_2506"/>
<feOffset dy="2"/>
<feGaussianBlur stdDeviation="2"/>
<feComposite in2="hardAlpha" operator="out"/>
<feColorMatrix type="matrix" values="0 0 0 0 0.0509804 0 0 0 0 0.0509804 0 0 0 0 0.0705882 0 0 0 0.06 0"/>
<feBlend mode="normal" in2="BackgroundImageFix" result="effect1_dropShadow_1_2506"/>
<feBlend mode="normal" in="SourceGraphic" in2="effect1_dropShadow_1_2506" result="shape"/>
</filter>
<filter id="filter3_d_1_2506" x="393" y="16" width="44" height="44" filterUnits="userSpaceOnUse" color-interpolation-filters="sRGB">
<feFlood flood-opacity="0" result="BackgroundImageFix"/>
<feColorMatrix in="SourceAlpha" type="matrix" values="0 0 0 0 0 0 0 0 0 0 0 0 0 0 0 0 0 0 127 0" result="hardAlpha"/>
<feOffset dy="1"/>
<feGaussianBlur stdDeviation="1"/>
<feComposite in2="hardAlpha" operator="out"/>
<feColorMatrix type="matrix" values="0 0 0 0 0.0509804 0 0 0 0 0.0509804 0 0 0 0 0.0705882 0 0 0 0.06 0"/>
<feBlend mode="normal" in2="BackgroundImageFix" result="effect1_dropShadow_1_2506"/>
<feBlend mode="normal" in="SourceGraphic" in2="effect1_dropShadow_1_2506" result="shape"/>
</filter>
<filter id="filter4_d_1_2506" x="752" y="0" width="358" height="180" filterUnits="userSpaceOnUse" color-interpolation-filters="sRGB">
<feFlood flood-opacity="0" result="BackgroundImageFix"/>
<feColorMatrix in="SourceAlpha" type="matrix" values="0 0 0 0 0 0 0 0 0 0 0 0 0 0 0 0 0 0 127 0" result="hardAlpha"/>
<feMorphology radius="1" operator="erode" in="SourceAlpha" result="effect1_dropShadow_1_2506"/>
<feOffset dy="2"/>
<feGaussianBlur stdDeviation="2"/>
<feComposite in2="hardAlpha" operator="out"/>
<feColorMatrix type="matrix" values="0 0 0 0 0.0509804 0 0 0 0 0.0509804 0 0 0 0 0.0705882 0 0 0 0.06 0"/>
<feBlend mode="normal" in2="BackgroundImageFix" result="effect1_dropShadow_1_2506"/>
<feBlend mode="normal" in="SourceGraphic" in2="effect1_dropShadow_1_2506" result="shape"/>
</filter>
<filter id="filter5_d_1_2506" x="769" y="16" width="44" height="44" filterUnits="userSpaceOnUse" color-interpolation-filters="sRGB">
<feFlood flood-opacity="0" result="BackgroundImageFix"/>
<feColorMatrix in="SourceAlpha" type="matrix" values="0 0 0 0 0 0 0 0 0 0 0 0 0 0 0 0 0 0 127 0" result="hardAlpha"/>
<feOffset dy="1"/>
<feGaussianBlur stdDeviation="1"/>
<feComposite in2="hardAlpha" operator="out"/>
<feColorMatrix type="matrix" values="0 0 0 0 0.0509804 0 0 0 0 0.0509804 0 0 0 0 0.0705882 0 0 0 0.06 0"/>
<feBlend mode="normal" in2="BackgroundImageFix" result="effect1_dropShadow_1_2506"/>
<feBlend mode="normal" in="SourceGraphic" in2="effect1_dropShadow_1_2506" result="shape"/>
</filter>
<clipPath id="clip0_1_2506">
<rect x="3" y="1" width="352" height="174" rx="16" fill="white"/>
</clipPath>
<clipPath id="clip1_1_2506">
<rect width="20" height="20" fill="white" transform="translate(29 27)"/>
</clipPath>
<clipPath id="clip2_1_2506">
<rect width="20" height="20" fill="white" transform="translate(319 102)"/>
</clipPath>
<clipPath id="clip3_1_2506">
<rect x="379" y="1" width="352" height="174" rx="16" fill="white"/>
</clipPath>
<clipPath id="clip4_1_2506">
<rect width="20" height="20" fill="white" transform="translate(695 102)"/>
</clipPath>
<clipPath id="clip5_1_2506">
<rect x="755" y="1" width="352" height="174" rx="16" fill="white"/>
</clipPath>
<clipPath id="clip6_1_2506">
<rect width="20" height="20" fill="white" transform="translate(1071 102)"/>
</clipPath>
</defs>
</svg>
