<svg width="358" height="180" viewBox="0 0 358 180" fill="none" xmlns="http://www.w3.org/2000/svg">
<g filter="url(#filter0_d_1_2508)">
<g clip-path="url(#clip0_1_2508)">
<rect x="3" y="1" width="352" height="174" rx="16" fill="#15161E"/>
<mask id="path-3-inside-1_1_2508" fill="white">
<path d="M3 1H355V136H3V1Z"/>
</mask>
<path d="M3 1H355V136H3V1Z" fill="#0D0D12"/>
<path d="M355 135H3V137H355V135Z" fill="#272835" mask="url(#path-3-inside-1_1_2508)"/>
<g filter="url(#filter1_d_1_2508)">
<rect x="19" y="17" width="40" height="40" rx="10" fill="#0D0D12" shape-rendering="crispEdges"/>
<rect x="19.5" y="17.5" width="39" height="39" rx="9.5" stroke="#272835" shape-rendering="crispEdges"/>
<path d="M39 40.3333V38.6667M35.6667 40.3333V36.1667M42.3333 40.3333V33.6667M34.8333 44.5H43.1667C45.0076 44.5 46.5 43.0076 46.5 41.1667V32.8333C46.5 30.9924 45.0076 29.5 43.1667 29.5H34.8333C32.9924 29.5 31.5 30.9924 31.5 32.8333V41.1667C31.5 43.0076 32.9924 44.5 34.8333 44.5Z" stroke="#33CFFF" stroke-width="2.4" stroke-linecap="round" stroke-linejoin="round"/>
</g>
<path d="M25.846 85.83H21.59L20.806 88H19.462L22.99 78.298H24.46L27.974 88H26.63L25.846 85.83ZM25.482 84.794L23.718 79.866L21.954 84.794H25.482ZM32.6476 86.824L35.0276 80.328H36.3856L33.3756 88H31.8916L28.8816 80.328H30.2536L32.6476 86.824ZM41.0832 80.202C41.7459 80.202 42.3246 80.3467 42.8192 80.636C43.3232 80.9253 43.6966 81.2893 43.9392 81.728V80.328H45.2272V88.168C45.2272 88.868 45.0779 89.4887 44.7792 90.03C44.4806 90.5807 44.0512 91.01 43.4912 91.318C42.9406 91.626 42.2966 91.78 41.5592 91.78C40.5512 91.78 39.7112 91.542 39.0392 91.066C38.3672 90.59 37.9706 89.9413 37.8492 89.12H39.1092C39.2492 89.5867 39.5386 89.96 39.9772 90.24C40.4159 90.5293 40.9432 90.674 41.5592 90.674C42.2592 90.674 42.8286 90.4547 43.2672 90.016C43.7152 89.5773 43.9392 88.9613 43.9392 88.168V86.558C43.6872 87.006 43.3139 87.3793 42.8192 87.678C42.3246 87.9767 41.7459 88.126 41.0832 88.126C40.4019 88.126 39.7812 87.958 39.2212 87.622C38.6706 87.286 38.2366 86.8147 37.9192 86.208C37.6019 85.6013 37.4432 84.9107 37.4432 84.136C37.4432 83.352 37.6019 82.666 37.9192 82.078C38.2366 81.4807 38.6706 81.0187 39.2212 80.692C39.7812 80.3653 40.4019 80.202 41.0832 80.202ZM43.9392 84.15C43.9392 83.5713 43.8226 83.0673 43.5892 82.638C43.3559 82.2087 43.0386 81.882 42.6372 81.658C42.2452 81.4247 41.8112 81.308 41.3352 81.308C40.8592 81.308 40.4252 81.42 40.0332 81.644C39.6412 81.868 39.3286 82.1947 39.0952 82.624C38.8619 83.0533 38.7452 83.5573 38.7452 84.136C38.7452 84.724 38.8619 85.2373 39.0952 85.676C39.3286 86.1053 39.6412 86.4367 40.0332 86.67C40.4252 86.894 40.8592 87.006 41.3352 87.006C41.8112 87.006 42.2452 86.894 42.6372 86.67C43.0386 86.4367 43.3559 86.1053 43.5892 85.676C43.8226 85.2373 43.9392 84.7287 43.9392 84.15ZM48.0662 88.084C47.8235 88.084 47.6182 88 47.4502 87.832C47.2822 87.664 47.1982 87.4587 47.1982 87.216C47.1982 86.9733 47.2822 86.768 47.4502 86.6C47.6182 86.432 47.8235 86.348 48.0662 86.348C48.2995 86.348 48.4955 86.432 48.6542 86.6C48.8222 86.768 48.9062 86.9733 48.9062 87.216C48.9062 87.4587 48.8222 87.664 48.6542 87.832C48.4955 88 48.2995 88.084 48.0662 88.084ZM57.9861 88.098C57.3421 88.098 56.7634 87.986 56.2501 87.762C55.7461 87.5287 55.3494 87.2113 55.0601 86.81C54.7707 86.3993 54.6214 85.928 54.6121 85.396H55.9701C56.0167 85.8533 56.2034 86.2407 56.5301 86.558C56.8661 86.866 57.3514 87.02 57.9861 87.02C58.5927 87.02 59.0687 86.8707 59.4141 86.572C59.7687 86.264 59.9461 85.872 59.9461 85.396C59.9461 85.0227 59.8434 84.7193 59.6381 84.486C59.4327 84.2527 59.1761 84.0753 58.8681 83.954C58.5601 83.8327 58.1447 83.702 57.6221 83.562C56.9781 83.394 56.4601 83.226 56.0681 83.058C55.6854 82.89 55.3541 82.6287 55.0741 82.274C54.8034 81.91 54.6681 81.4247 54.6681 80.818C54.6681 80.286 54.8034 79.8147 55.0741 79.404C55.3447 78.9933 55.7227 78.676 56.2081 78.452C56.7027 78.228 57.2674 78.116 57.9021 78.116C58.8167 78.116 59.5634 78.3447 60.1421 78.802C60.7301 79.2593 61.0614 79.866 61.1361 80.622H59.7361C59.6894 80.2487 59.4934 79.922 59.1481 79.642C58.8027 79.3527 58.3454 79.208 57.7761 79.208C57.2441 79.208 56.8101 79.348 56.4741 79.628C56.1381 79.8987 55.9701 80.2813 55.9701 80.776C55.9701 81.1307 56.0681 81.42 56.2641 81.644C56.4694 81.868 56.7167 82.0407 57.0061 82.162C57.3047 82.274 57.7201 82.4047 58.2521 82.554C58.8961 82.7313 59.4141 82.9087 59.8061 83.086C60.1981 83.254 60.5341 83.52 60.8141 83.884C61.0941 84.2387 61.2341 84.724 61.2341 85.34C61.2341 85.816 61.1081 86.264 60.8561 86.684C60.6041 87.104 60.2307 87.4447 59.7361 87.706C59.2414 87.9673 58.6581 88.098 57.9861 88.098ZM62.9129 84.136C62.9129 83.352 63.0715 82.666 63.3889 82.078C63.7062 81.4807 64.1402 81.0187 64.6909 80.692C65.2509 80.3653 65.8715 80.202 66.5529 80.202C67.2249 80.202 67.8082 80.3467 68.3029 80.636C68.7975 80.9253 69.1662 81.2893 69.4089 81.728V80.328H70.6969V88H69.4089V86.572C69.1569 87.02 68.7789 87.3933 68.2749 87.692C67.7802 87.9813 67.2015 88.126 66.5389 88.126C65.8575 88.126 65.2415 87.958 64.6909 87.622C64.1402 87.286 63.7062 86.8147 63.3889 86.208C63.0715 85.6013 62.9129 84.9107 62.9129 84.136ZM69.4089 84.15C69.4089 83.5713 69.2922 83.0673 69.0589 82.638C68.8255 82.2087 68.5082 81.882 68.1069 81.658C67.7149 81.4247 67.2809 81.308 66.8049 81.308C66.3289 81.308 65.8949 81.42 65.5029 81.644C65.1109 81.868 64.7982 82.1947 64.5649 82.624C64.3315 83.0533 64.2149 83.5573 64.2149 84.136C64.2149 84.724 64.3315 85.2373 64.5649 85.676C64.7982 86.1053 65.1109 86.4367 65.5029 86.67C65.8949 86.894 66.3289 87.006 66.8049 87.006C67.2809 87.006 67.7149 86.894 68.1069 86.67C68.5082 86.4367 68.8255 86.1053 69.0589 85.676C69.2922 85.2373 69.4089 84.7287 69.4089 84.15ZM74.4038 77.64V88H73.1298V77.64H74.4038ZM83.8551 83.87C83.8551 84.1127 83.8411 84.3693 83.8131 84.64H77.6811C77.7278 85.396 77.9844 85.9887 78.4511 86.418C78.9271 86.838 79.5011 87.048 80.1731 87.048C80.7238 87.048 81.1811 86.922 81.5451 86.67C81.9184 86.4087 82.1798 86.0633 82.3291 85.634H83.7011C83.4958 86.3713 83.0851 86.9733 82.4691 87.44C81.8531 87.8973 81.0878 88.126 80.1731 88.126C79.4451 88.126 78.7918 87.9627 78.2131 87.636C77.6438 87.3093 77.1958 86.8473 76.8691 86.25C76.5424 85.6433 76.3791 84.9433 76.3791 84.15C76.3791 83.3567 76.5378 82.6613 76.8551 82.064C77.1724 81.4667 77.6158 81.0093 78.1851 80.692C78.7638 80.3653 79.4264 80.202 80.1731 80.202C80.9011 80.202 81.5451 80.3607 82.1051 80.678C82.6651 80.9953 83.0944 81.434 83.3931 81.994C83.7011 82.5447 83.8551 83.17 83.8551 83.87ZM82.5391 83.604C82.5391 83.1187 82.4318 82.7033 82.2171 82.358C82.0024 82.0033 81.7084 81.7373 81.3351 81.56C80.9711 81.3733 80.5651 81.28 80.1171 81.28C79.4731 81.28 78.9224 81.4853 78.4651 81.896C78.0171 82.3067 77.7604 82.876 77.6951 83.604H82.5391ZM92.6852 86.824L95.0652 80.328H96.4232L93.4132 88H91.9292L88.9192 80.328H90.2912L92.6852 86.824ZM97.4808 84.136C97.4808 83.352 97.6395 82.666 97.9568 82.078C98.2742 81.4807 98.7082 81.0187 99.2588 80.692C99.8188 80.3653 100.439 80.202 101.121 80.202C101.793 80.202 102.376 80.3467 102.871 80.636C103.365 80.9253 103.734 81.2893 103.977 81.728V80.328H105.265V88H103.977V86.572C103.725 87.02 103.347 87.3933 102.843 87.692C102.348 87.9813 101.769 88.126 101.107 88.126C100.425 88.126 99.8095 87.958 99.2588 87.622C98.7082 87.286 98.2742 86.8147 97.9568 86.208C97.6395 85.6013 97.4808 84.9107 97.4808 84.136ZM103.977 84.15C103.977 83.5713 103.86 83.0673 103.627 82.638C103.393 82.2087 103.076 81.882 102.675 81.658C102.283 81.4247 101.849 81.308 101.373 81.308C100.897 81.308 100.463 81.42 100.071 81.644C99.6788 81.868 99.3662 82.1947 99.1328 82.624C98.8995 83.0533 98.7828 83.5573 98.7828 84.136C98.7828 84.724 98.8995 85.2373 99.1328 85.676C99.3662 86.1053 99.6788 86.4367 100.071 86.67C100.463 86.894 100.897 87.006 101.373 87.006C101.849 87.006 102.283 86.894 102.675 86.67C103.076 86.4367 103.393 86.1053 103.627 85.676C103.86 85.2373 103.977 84.7287 103.977 84.15ZM108.972 77.64V88H107.698V77.64H108.972ZM118.227 80.328V88H116.953V86.866C116.71 87.258 116.37 87.566 115.931 87.79C115.502 88.0047 115.026 88.112 114.503 88.112C113.906 88.112 113.369 87.9907 112.893 87.748C112.417 87.496 112.039 87.1227 111.759 86.628C111.488 86.1333 111.353 85.5313 111.353 84.822V80.328H112.613V84.654C112.613 85.41 112.804 85.9933 113.187 86.404C113.57 86.8053 114.092 87.006 114.755 87.006C115.436 87.006 115.973 86.796 116.365 86.376C116.757 85.956 116.953 85.3447 116.953 84.542V80.328H118.227ZM127.658 83.87C127.658 84.1127 127.644 84.3693 127.616 84.64H121.484C121.531 85.396 121.787 85.9887 122.254 86.418C122.73 86.838 123.304 87.048 123.976 87.048C124.527 87.048 124.984 86.922 125.348 86.67C125.721 86.4087 125.983 86.0633 126.132 85.634H127.504C127.299 86.3713 126.888 86.9733 126.272 87.44C125.656 87.8973 124.891 88.126 123.976 88.126C123.248 88.126 122.595 87.9627 122.016 87.636C121.447 87.3093 120.999 86.8473 120.672 86.25C120.345 85.6433 120.182 84.9433 120.182 84.15C120.182 83.3567 120.341 82.6613 120.658 82.064C120.975 81.4667 121.419 81.0093 121.988 80.692C122.567 80.3653 123.229 80.202 123.976 80.202C124.704 80.202 125.348 80.3607 125.908 80.678C126.468 80.9953 126.897 81.434 127.196 81.994C127.504 82.5447 127.658 83.17 127.658 83.87ZM126.342 83.604C126.342 83.1187 126.235 82.7033 126.02 82.358C125.805 82.0033 125.511 81.7373 125.138 81.56C124.774 81.3733 124.368 81.28 123.92 81.28C123.276 81.28 122.725 81.4853 122.268 81.896C121.82 82.3067 121.563 82.876 121.498 83.604H126.342Z" fill="#666D80"/>
<path d="M28.486 112.562C28.486 113.138 28.342 113.69 28.054 114.218C27.766 114.734 27.34 115.166 26.776 115.514C26.224 115.862 25.558 116.06 24.778 116.108V117.566H23.806V116.108C22.714 116.012 21.826 115.664 21.142 115.064C20.458 114.452 20.11 113.678 20.098 112.742H21.844C21.892 113.246 22.078 113.684 22.402 114.056C22.738 114.428 23.206 114.662 23.806 114.758V110.258C23.002 110.054 22.354 109.844 21.862 109.628C21.37 109.412 20.95 109.076 20.602 108.62C20.254 108.164 20.08 107.552 20.08 106.784C20.08 105.812 20.416 105.008 21.088 104.372C21.772 103.736 22.678 103.382 23.806 103.31V101.816H24.778V103.31C25.798 103.394 26.62 103.724 27.244 104.3C27.868 104.864 28.228 105.602 28.324 106.514H26.578C26.518 106.094 26.332 105.716 26.02 105.38C25.708 105.032 25.294 104.804 24.778 104.696V109.088C25.57 109.292 26.212 109.502 26.704 109.718C27.208 109.922 27.628 110.252 27.964 110.708C28.312 111.164 28.486 111.782 28.486 112.562ZM21.754 106.694C21.754 107.282 21.928 107.732 22.276 108.044C22.624 108.356 23.134 108.614 23.806 108.818V104.66C23.182 104.72 22.684 104.924 22.312 105.272C21.94 105.608 21.754 106.082 21.754 106.694ZM24.778 114.776C25.426 114.704 25.93 114.47 26.29 114.074C26.662 113.678 26.848 113.204 26.848 112.652C26.848 112.064 26.668 111.614 26.308 111.302C25.948 110.978 25.438 110.72 24.778 110.528V114.776ZM30.8813 104.48V102.986H34.2653V116H32.6093V104.48H30.8813ZM36.8809 114.686C38.4049 113.462 39.5989 112.46 40.4629 111.68C41.3269 110.888 42.0529 110.066 42.6409 109.214C43.2409 108.35 43.5409 107.504 43.5409 106.676C43.5409 105.896 43.3489 105.284 42.9649 104.84C42.5929 104.384 41.9869 104.156 41.1469 104.156C40.3309 104.156 39.6949 104.414 39.2389 104.93C38.7949 105.434 38.5549 106.112 38.5189 106.964H36.9349C36.9829 105.62 37.3909 104.582 38.1589 103.85C38.9269 103.118 39.9169 102.752 41.1289 102.752C42.3649 102.752 43.3429 103.094 44.0629 103.778C44.7949 104.462 45.1609 105.404 45.1609 106.604C45.1609 107.6 44.8609 108.572 44.2609 109.52C43.6729 110.456 43.0009 111.284 42.2449 112.004C41.4889 112.712 40.5229 113.54 39.3469 114.488H45.5389V115.856H36.8809V114.686ZM49.3944 113.732L47.3784 118.574H46.2804L47.5944 113.732H49.3944ZM58.2548 106.082C57.9908 104.75 57.1688 104.084 55.7888 104.084C54.7208 104.084 53.9228 104.498 53.3948 105.326C52.8668 106.142 52.6088 107.492 52.6208 109.376C52.8968 108.752 53.3528 108.266 53.9888 107.918C54.6368 107.558 55.3568 107.378 56.1488 107.378C57.3848 107.378 58.3688 107.762 59.1008 108.53C59.8448 109.298 60.2168 110.36 60.2168 111.716C60.2168 112.532 60.0548 113.264 59.7308 113.912C59.4188 114.56 58.9388 115.076 58.2908 115.46C57.6548 115.844 56.8808 116.036 55.9688 116.036C54.7328 116.036 53.7668 115.76 53.0708 115.208C52.3748 114.656 51.8888 113.894 51.6128 112.922C51.3368 111.95 51.1988 110.75 51.1988 109.322C51.1988 104.918 52.7348 102.716 55.8068 102.716C56.9828 102.716 57.9068 103.034 58.5788 103.67C59.2508 104.306 59.6468 105.11 59.7668 106.082H58.2548ZM55.8068 108.764C55.2908 108.764 54.8048 108.872 54.3488 109.088C53.8928 109.292 53.5208 109.61 53.2328 110.042C52.9568 110.462 52.8188 110.978 52.8188 111.59C52.8188 112.502 53.0828 113.246 53.6108 113.822C54.1388 114.386 54.8948 114.668 55.8788 114.668C56.7188 114.668 57.3848 114.41 57.8768 113.894C58.3808 113.366 58.6328 112.658 58.6328 111.77C58.6328 110.834 58.3928 110.102 57.9128 109.574C57.4328 109.034 56.7308 108.764 55.8068 108.764ZM64.8025 109.232C64.1305 108.968 63.6145 108.584 63.2545 108.08C62.8945 107.576 62.7145 106.964 62.7145 106.244C62.7145 105.596 62.8765 105.014 63.2005 104.498C63.5245 103.97 64.0045 103.556 64.6405 103.256C65.2885 102.944 66.0685 102.788 66.9805 102.788C67.8925 102.788 68.6665 102.944 69.3025 103.256C69.9505 103.556 70.4365 103.97 70.7605 104.498C71.0965 105.014 71.2645 105.596 71.2645 106.244C71.2645 106.94 71.0785 107.552 70.7065 108.08C70.3345 108.596 69.8245 108.98 69.1765 109.232C69.9205 109.46 70.5085 109.862 70.9405 110.438C71.3845 111.002 71.6065 111.686 71.6065 112.49C71.6065 113.27 71.4145 113.954 71.0305 114.542C70.6465 115.118 70.1005 115.568 69.3925 115.892C68.6965 116.204 67.8925 116.36 66.9805 116.36C66.0685 116.36 65.2645 116.204 64.5685 115.892C63.8845 115.568 63.3505 115.118 62.9665 114.542C62.5825 113.954 62.3905 113.27 62.3905 112.49C62.3905 111.686 62.6065 110.996 63.0385 110.42C63.4705 109.844 64.0585 109.448 64.8025 109.232ZM69.6805 106.442C69.6805 105.71 69.4405 105.146 68.9605 104.75C68.4805 104.354 67.8205 104.156 66.9805 104.156C66.1525 104.156 65.4985 104.354 65.0185 104.75C64.5385 105.146 64.2985 105.716 64.2985 106.46C64.2985 107.132 64.5445 107.672 65.0365 108.08C65.5405 108.488 66.1885 108.692 66.9805 108.692C67.7845 108.692 68.4325 108.488 68.9245 108.08C69.4285 107.66 69.6805 107.114 69.6805 106.442ZM66.9805 109.952C66.0925 109.952 65.3665 110.162 64.8025 110.582C64.2385 110.99 63.9565 111.608 63.9565 112.436C63.9565 113.204 64.2265 113.822 64.7665 114.29C65.3185 114.758 66.0565 114.992 66.9805 114.992C67.9045 114.992 68.6365 114.758 69.1765 114.29C69.7165 113.822 69.9865 113.204 69.9865 112.436C69.9865 111.632 69.7105 111.02 69.1585 110.6C68.6065 110.168 67.8805 109.952 66.9805 109.952ZM73.782 109.358C73.782 107.294 74.118 105.686 74.79 104.534C75.462 103.37 76.638 102.788 78.318 102.788C79.986 102.788 81.156 103.37 81.828 104.534C82.5 105.686 82.836 107.294 82.836 109.358C82.836 111.458 82.5 113.09 81.828 114.254C81.156 115.418 79.986 116 78.318 116C76.638 116 75.462 115.418 74.79 114.254C74.118 113.09 73.782 111.458 73.782 109.358ZM81.216 109.358C81.216 108.314 81.144 107.432 81 106.712C80.868 105.98 80.586 105.392 80.154 104.948C79.734 104.504 79.122 104.282 78.318 104.282C77.502 104.282 76.878 104.504 76.446 104.948C76.026 105.392 75.744 105.98 75.6 106.712C75.468 107.432 75.402 108.314 75.402 109.358C75.402 110.438 75.468 111.344 75.6 112.076C75.744 112.808 76.026 113.396 76.446 113.84C76.878 114.284 77.502 114.506 78.318 114.506C79.122 114.506 79.734 114.284 80.154 113.84C80.586 113.396 80.868 112.808 81 112.076C81.144 111.344 81.216 110.438 81.216 109.358ZM85.8768 116.108C85.5648 116.108 85.3008 116 85.0848 115.784C84.8688 115.568 84.7608 115.304 84.7608 114.992C84.7608 114.68 84.8688 114.416 85.0848 114.2C85.3008 113.984 85.5648 113.876 85.8768 113.876C86.1768 113.876 86.4288 113.984 86.6328 114.2C86.8488 114.416 86.9568 114.68 86.9568 114.992C86.9568 115.304 86.8488 115.568 86.6328 115.784C86.4288 116 86.1768 116.108 85.8768 116.108ZM88.864 109.358C88.864 107.294 89.2 105.686 89.872 104.534C90.544 103.37 91.72 102.788 93.4 102.788C95.068 102.788 96.238 103.37 96.91 104.534C97.582 105.686 97.918 107.294 97.918 109.358C97.918 111.458 97.582 113.09 96.91 114.254C96.238 115.418 95.068 116 93.4 116C91.72 116 90.544 115.418 89.872 114.254C89.2 113.09 88.864 111.458 88.864 109.358ZM96.298 109.358C96.298 108.314 96.226 107.432 96.082 106.712C95.95 105.98 95.668 105.392 95.236 104.948C94.816 104.504 94.204 104.282 93.4 104.282C92.584 104.282 91.96 104.504 91.528 104.948C91.108 105.392 90.826 105.98 90.682 106.712C90.55 107.432 90.484 108.314 90.484 109.358C90.484 110.438 90.55 111.344 90.682 112.076C90.826 112.808 91.108 113.396 91.528 113.84C91.96 114.284 92.584 114.506 93.4 114.506C94.204 114.506 94.816 114.284 95.236 113.84C95.668 113.396 95.95 112.808 96.082 112.076C96.226 111.344 96.298 110.438 96.298 109.358ZM100.167 109.358C100.167 107.294 100.503 105.686 101.175 104.534C101.847 103.37 103.023 102.788 104.703 102.788C106.371 102.788 107.541 103.37 108.213 104.534C108.885 105.686 109.221 107.294 109.221 109.358C109.221 111.458 108.885 113.09 108.213 114.254C107.541 115.418 106.371 116 104.703 116C103.023 116 101.847 115.418 101.175 114.254C100.503 113.09 100.167 111.458 100.167 109.358ZM107.601 109.358C107.601 108.314 107.529 107.432 107.385 106.712C107.253 105.98 106.971 105.392 106.539 104.948C106.119 104.504 105.507 104.282 104.703 104.282C103.887 104.282 103.263 104.504 102.831 104.948C102.411 105.392 102.129 105.98 101.985 106.712C101.853 107.432 101.787 108.314 101.787 109.358C101.787 110.438 101.853 111.344 101.985 112.076C102.129 112.808 102.411 113.396 102.831 113.84C103.263 114.284 103.887 114.506 104.703 114.506C105.507 114.506 106.119 114.284 106.539 113.84C106.971 113.396 107.253 112.808 107.385 112.076C107.529 111.344 107.601 110.438 107.601 109.358Z" fill="white"/>
<g clip-path="url(#clip1_1_2508)">
<path d="M332.535 108.464L325.464 115.536M332.535 108.464H327.232M332.535 108.464V113.768M323.107 117.893C319.853 114.638 319.853 109.362 323.107 106.107C326.362 102.853 331.638 102.853 334.893 106.107C338.147 109.362 338.147 114.638 334.893 117.893C331.638 121.147 326.362 121.147 323.107 117.893Z" stroke="#353849" stroke-width="1.66667" stroke-linecap="round" stroke-linejoin="round"/>
</g>
<path d="M27 149.167V159.833M27 149.167L23 153.167M27 149.167L31 153.167" stroke="#40C4AA" stroke-width="2" stroke-linecap="round" stroke-linejoin="round"/>
<path d="M37.84 151.426C37.9053 150.567 38.2367 149.895 38.834 149.41C39.4313 148.925 40.206 148.682 41.158 148.682C41.7927 148.682 42.3387 148.799 42.796 149.032C43.2627 149.256 43.6127 149.564 43.846 149.956C44.0887 150.348 44.21 150.791 44.21 151.286C44.21 151.865 44.042 152.364 43.706 152.784C43.3793 153.204 42.95 153.475 42.418 153.596V153.666C43.0247 153.815 43.5053 154.109 43.86 154.548C44.2147 154.987 44.392 155.561 44.392 156.27C44.392 156.802 44.2707 157.283 44.028 157.712C43.7853 158.132 43.4213 158.463 42.936 158.706C42.4507 158.949 41.8673 159.07 41.186 159.07C40.1967 159.07 39.3847 158.813 38.75 158.3C38.1153 157.777 37.7607 157.04 37.686 156.088H38.918C38.9833 156.648 39.212 157.105 39.604 157.46C39.996 157.815 40.5187 157.992 41.172 157.992C41.8253 157.992 42.32 157.824 42.656 157.488C43.0013 157.143 43.174 156.699 43.174 156.158C43.174 155.458 42.9407 154.954 42.474 154.646C42.0073 154.338 41.3027 154.184 40.36 154.184H40.038V153.12H40.374C41.2327 153.111 41.8813 152.971 42.32 152.7C42.7587 152.42 42.978 151.991 42.978 151.412C42.978 150.917 42.8147 150.521 42.488 150.222C42.1707 149.923 41.7133 149.774 41.116 149.774C40.5373 149.774 40.0707 149.923 39.716 150.222C39.3613 150.521 39.1513 150.922 39.086 151.426H37.84ZM47.9181 157.236L46.3501 161.002H45.4961L46.5181 157.236H47.9181ZM49.1395 156.746V155.78L54.0535 148.976H55.5795V155.64H56.9795V156.746H55.5795V159H54.3195V156.746H49.1395ZM54.3755 150.306L50.6095 155.64H54.3755V150.306ZM58.2522 151.16C58.2522 150.525 58.4436 150.021 58.8262 149.648C59.2089 149.265 59.6989 149.074 60.2962 149.074C60.8936 149.074 61.3836 149.265 61.7662 149.648C62.1489 150.021 62.3402 150.525 62.3402 151.16C62.3402 151.804 62.1489 152.317 61.7662 152.7C61.3836 153.073 60.8936 153.26 60.2962 153.26C59.6989 153.26 59.2089 153.073 58.8262 152.7C58.4436 152.317 58.2522 151.804 58.2522 151.16ZM66.4282 149.228L60.7582 159H59.4982L65.1682 149.228H66.4282ZM60.2962 149.858C59.9789 149.858 59.7269 149.97 59.5402 150.194C59.3629 150.409 59.2742 150.731 59.2742 151.16C59.2742 151.589 59.3629 151.916 59.5402 152.14C59.7269 152.364 59.9789 152.476 60.2962 152.476C60.6136 152.476 60.8656 152.364 61.0522 152.14C61.2389 151.907 61.3322 151.58 61.3322 151.16C61.3322 150.731 61.2389 150.409 61.0522 150.194C60.8656 149.97 60.6136 149.858 60.2962 149.858ZM63.6142 157.068C63.6142 156.424 63.8056 155.915 64.1882 155.542C64.5709 155.159 65.0609 154.968 65.6582 154.968C66.2556 154.968 66.7409 155.159 67.1142 155.542C67.4969 155.915 67.6882 156.424 67.6882 157.068C67.6882 157.703 67.4969 158.211 67.1142 158.594C66.7409 158.977 66.2556 159.168 65.6582 159.168C65.0609 159.168 64.5709 158.981 64.1882 158.608C63.8056 158.225 63.6142 157.712 63.6142 157.068ZM65.6442 155.766C65.3269 155.766 65.0749 155.878 64.8882 156.102C64.7016 156.317 64.6082 156.639 64.6082 157.068C64.6082 157.488 64.7016 157.81 64.8882 158.034C65.0749 158.249 65.3269 158.356 65.6442 158.356C65.9616 158.356 66.2136 158.249 66.4002 158.034C66.5869 157.81 66.6802 157.488 66.6802 157.068C66.6802 156.639 66.5869 156.317 66.4002 156.102C66.2136 155.878 65.9616 155.766 65.6442 155.766Z" fill="#40C4AA"/>
<path d="M227.779 152.378H226.169V159H224.895V152.378H223.901V151.328H224.895V150.782C224.895 149.923 225.115 149.298 225.553 148.906C226.001 148.505 226.715 148.304 227.695 148.304V149.368C227.135 149.368 226.739 149.48 226.505 149.704C226.281 149.919 226.169 150.278 226.169 150.782V151.328H227.779V152.378ZM230.819 152.574C231.043 152.135 231.36 151.795 231.771 151.552C232.191 151.309 232.699 151.188 233.297 151.188V152.504H232.961C231.533 152.504 230.819 153.279 230.819 154.828V159H229.545V151.328H230.819V152.574ZM238.393 159.126C237.675 159.126 237.021 158.963 236.433 158.636C235.855 158.309 235.397 157.847 235.061 157.25C234.735 156.643 234.571 155.943 234.571 155.15C234.571 154.366 234.739 153.675 235.075 153.078C235.421 152.471 235.887 152.009 236.475 151.692C237.063 151.365 237.721 151.202 238.449 151.202C239.177 151.202 239.835 151.365 240.423 151.692C241.011 152.009 241.473 152.467 241.809 153.064C242.155 153.661 242.327 154.357 242.327 155.15C242.327 155.943 242.15 156.643 241.795 157.25C241.45 157.847 240.979 158.309 240.381 158.636C239.784 158.963 239.121 159.126 238.393 159.126ZM238.393 158.006C238.851 158.006 239.28 157.899 239.681 157.684C240.083 157.469 240.405 157.147 240.647 156.718C240.899 156.289 241.025 155.766 241.025 155.15C241.025 154.534 240.904 154.011 240.661 153.582C240.419 153.153 240.101 152.835 239.709 152.63C239.317 152.415 238.893 152.308 238.435 152.308C237.969 152.308 237.539 152.415 237.147 152.63C236.765 152.835 236.457 153.153 236.223 153.582C235.99 154.011 235.873 154.534 235.873 155.15C235.873 155.775 235.985 156.303 236.209 156.732C236.443 157.161 236.751 157.483 237.133 157.698C237.516 157.903 237.936 158.006 238.393 158.006ZM253.508 151.188C254.106 151.188 254.638 151.314 255.104 151.566C255.571 151.809 255.94 152.177 256.21 152.672C256.481 153.167 256.616 153.769 256.616 154.478V159H255.356V154.66C255.356 153.895 255.165 153.311 254.782 152.91C254.409 152.499 253.9 152.294 253.256 152.294C252.594 152.294 252.066 152.509 251.674 152.938C251.282 153.358 251.086 153.969 251.086 154.772V159H249.826V154.66C249.826 153.895 249.635 153.311 249.252 152.91C248.879 152.499 248.37 152.294 247.726 152.294C247.064 152.294 246.536 152.509 246.144 152.938C245.752 153.358 245.556 153.969 245.556 154.772V159H244.282V151.328H245.556V152.434C245.808 152.033 246.144 151.725 246.564 151.51C246.994 151.295 247.465 151.188 247.978 151.188C248.622 151.188 249.192 151.333 249.686 151.622C250.181 151.911 250.55 152.336 250.792 152.896C251.007 152.355 251.362 151.935 251.856 151.636C252.351 151.337 252.902 151.188 253.508 151.188ZM264.273 148.64V159H262.999V148.64H264.273ZM266.248 155.136C266.248 154.352 266.407 153.666 266.724 153.078C267.041 152.481 267.475 152.019 268.026 151.692C268.586 151.365 269.207 151.202 269.888 151.202C270.56 151.202 271.143 151.347 271.638 151.636C272.133 151.925 272.501 152.289 272.744 152.728V151.328H274.032V159H272.744V157.572C272.492 158.02 272.114 158.393 271.61 158.692C271.115 158.981 270.537 159.126 269.874 159.126C269.193 159.126 268.577 158.958 268.026 158.622C267.475 158.286 267.041 157.815 266.724 157.208C266.407 156.601 266.248 155.911 266.248 155.136ZM272.744 155.15C272.744 154.571 272.627 154.067 272.394 153.638C272.161 153.209 271.843 152.882 271.442 152.658C271.05 152.425 270.616 152.308 270.14 152.308C269.664 152.308 269.23 152.42 268.838 152.644C268.446 152.868 268.133 153.195 267.9 153.624C267.667 154.053 267.55 154.557 267.55 155.136C267.55 155.724 267.667 156.237 267.9 156.676C268.133 157.105 268.446 157.437 268.838 157.67C269.23 157.894 269.664 158.006 270.14 158.006C270.616 158.006 271.05 157.894 271.442 157.67C271.843 157.437 272.161 157.105 272.394 156.676C272.627 156.237 272.744 155.729 272.744 155.15ZM279.181 159.126C278.593 159.126 278.066 159.028 277.599 158.832C277.132 158.627 276.764 158.347 276.493 157.992C276.222 157.628 276.073 157.213 276.045 156.746H277.361C277.398 157.129 277.576 157.441 277.893 157.684C278.22 157.927 278.644 158.048 279.167 158.048C279.652 158.048 280.035 157.941 280.315 157.726C280.595 157.511 280.735 157.241 280.735 156.914C280.735 156.578 280.586 156.331 280.287 156.172C279.988 156.004 279.526 155.841 278.901 155.682C278.332 155.533 277.865 155.383 277.501 155.234C277.146 155.075 276.838 154.847 276.577 154.548C276.325 154.24 276.199 153.839 276.199 153.344C276.199 152.952 276.316 152.593 276.549 152.266C276.782 151.939 277.114 151.683 277.543 151.496C277.972 151.3 278.462 151.202 279.013 151.202C279.862 151.202 280.548 151.417 281.071 151.846C281.594 152.275 281.874 152.863 281.911 153.61H280.637C280.609 153.209 280.446 152.887 280.147 152.644C279.858 152.401 279.466 152.28 278.971 152.28C278.514 152.28 278.15 152.378 277.879 152.574C277.608 152.77 277.473 153.027 277.473 153.344C277.473 153.596 277.552 153.806 277.711 153.974C277.879 154.133 278.084 154.263 278.327 154.366C278.579 154.459 278.924 154.567 279.363 154.688C279.914 154.837 280.362 154.987 280.707 155.136C281.052 155.276 281.346 155.491 281.589 155.78C281.841 156.069 281.972 156.447 281.981 156.914C281.981 157.334 281.864 157.712 281.631 158.048C281.398 158.384 281.066 158.65 280.637 158.846C280.217 159.033 279.732 159.126 279.181 159.126ZM285.613 152.378V156.9C285.613 157.273 285.693 157.539 285.851 157.698C286.01 157.847 286.285 157.922 286.677 157.922H287.615V159H286.467C285.758 159 285.226 158.837 284.871 158.51C284.517 158.183 284.339 157.647 284.339 156.9V152.378H283.345V151.328H284.339V149.396H285.613V151.328H287.615V152.378H285.613ZM294.725 152.742C294.977 152.303 295.351 151.939 295.845 151.65C296.349 151.351 296.933 151.202 297.595 151.202C298.277 151.202 298.893 151.365 299.443 151.692C300.003 152.019 300.442 152.481 300.759 153.078C301.077 153.666 301.235 154.352 301.235 155.136C301.235 155.911 301.077 156.601 300.759 157.208C300.442 157.815 300.003 158.286 299.443 158.622C298.893 158.958 298.277 159.126 297.595 159.126C296.942 159.126 296.363 158.981 295.859 158.692C295.365 158.393 294.987 158.025 294.725 157.586V162.64H293.451V151.328H294.725V152.742ZM299.933 155.136C299.933 154.557 299.817 154.053 299.583 153.624C299.35 153.195 299.033 152.868 298.631 152.644C298.239 152.42 297.805 152.308 297.329 152.308C296.863 152.308 296.429 152.425 296.027 152.658C295.635 152.882 295.318 153.213 295.075 153.652C294.842 154.081 294.725 154.581 294.725 155.15C294.725 155.729 294.842 156.237 295.075 156.676C295.318 157.105 295.635 157.437 296.027 157.67C296.429 157.894 296.863 158.006 297.329 158.006C297.805 158.006 298.239 157.894 298.631 157.67C299.033 157.437 299.35 157.105 299.583 156.676C299.817 156.237 299.933 155.724 299.933 155.136ZM310.192 154.87C310.192 155.113 310.178 155.369 310.15 155.64H304.018C304.065 156.396 304.322 156.989 304.788 157.418C305.264 157.838 305.838 158.048 306.51 158.048C307.061 158.048 307.518 157.922 307.882 157.67C308.256 157.409 308.517 157.063 308.666 156.634H310.038C309.833 157.371 309.422 157.973 308.806 158.44C308.19 158.897 307.425 159.126 306.51 159.126C305.782 159.126 305.129 158.963 304.55 158.636C303.981 158.309 303.533 157.847 303.206 157.25C302.88 156.643 302.716 155.943 302.716 155.15C302.716 154.357 302.875 153.661 303.192 153.064C303.51 152.467 303.953 152.009 304.522 151.692C305.101 151.365 305.764 151.202 306.51 151.202C307.238 151.202 307.882 151.361 308.442 151.678C309.002 151.995 309.432 152.434 309.73 152.994C310.038 153.545 310.192 154.17 310.192 154.87ZM308.876 154.604C308.876 154.119 308.769 153.703 308.554 153.358C308.34 153.003 308.046 152.737 307.672 152.56C307.308 152.373 306.902 152.28 306.454 152.28C305.81 152.28 305.26 152.485 304.802 152.896C304.354 153.307 304.098 153.876 304.032 154.604H308.876ZM313.428 152.574C313.652 152.135 313.969 151.795 314.38 151.552C314.8 151.309 315.309 151.188 315.906 151.188V152.504H315.57C314.142 152.504 313.428 153.279 313.428 154.828V159H312.154V151.328H313.428V152.574ZM318.315 150.082C318.072 150.082 317.867 149.998 317.699 149.83C317.531 149.662 317.447 149.457 317.447 149.214C317.447 148.971 317.531 148.766 317.699 148.598C317.867 148.43 318.072 148.346 318.315 148.346C318.548 148.346 318.744 148.43 318.903 148.598C319.071 148.766 319.155 148.971 319.155 149.214C319.155 149.457 319.071 149.662 318.903 149.83C318.744 149.998 318.548 150.082 318.315 150.082ZM318.931 151.328V159H317.657V151.328H318.931ZM324.728 159.126C324.009 159.126 323.356 158.963 322.768 158.636C322.189 158.309 321.732 157.847 321.396 157.25C321.069 156.643 320.906 155.943 320.906 155.15C320.906 154.366 321.074 153.675 321.41 153.078C321.755 152.471 322.222 152.009 322.81 151.692C323.398 151.365 324.056 151.202 324.784 151.202C325.512 151.202 326.17 151.365 326.758 151.692C327.346 152.009 327.808 152.467 328.144 153.064C328.489 153.661 328.662 154.357 328.662 155.15C328.662 155.943 328.485 156.643 328.13 157.25C327.785 157.847 327.313 158.309 326.716 158.636C326.119 158.963 325.456 159.126 324.728 159.126ZM324.728 158.006C325.185 158.006 325.615 157.899 326.016 157.684C326.417 157.469 326.739 157.147 326.982 156.718C327.234 156.289 327.36 155.766 327.36 155.15C327.36 154.534 327.239 154.011 326.996 153.582C326.753 153.153 326.436 152.835 326.044 152.63C325.652 152.415 325.227 152.308 324.77 152.308C324.303 152.308 323.874 152.415 323.482 152.63C323.099 152.835 322.791 153.153 322.558 153.582C322.325 154.011 322.208 154.534 322.208 155.15C322.208 155.775 322.32 156.303 322.544 156.732C322.777 157.161 323.085 157.483 323.468 157.698C323.851 157.903 324.271 158.006 324.728 158.006ZM330.141 155.136C330.141 154.352 330.3 153.666 330.617 153.078C330.934 152.481 331.368 152.019 331.919 151.692C332.479 151.365 333.104 151.202 333.795 151.202C334.392 151.202 334.948 151.342 335.461 151.622C335.974 151.893 336.366 152.252 336.637 152.7V148.64H337.925V159H336.637V157.558C336.385 158.015 336.012 158.393 335.517 158.692C335.022 158.981 334.444 159.126 333.781 159.126C333.1 159.126 332.479 158.958 331.919 158.622C331.368 158.286 330.934 157.815 330.617 157.208C330.3 156.601 330.141 155.911 330.141 155.136ZM336.637 155.15C336.637 154.571 336.52 154.067 336.287 153.638C336.054 153.209 335.736 152.882 335.335 152.658C334.943 152.425 334.509 152.308 334.033 152.308C333.557 152.308 333.123 152.42 332.731 152.644C332.339 152.868 332.026 153.195 331.793 153.624C331.56 154.053 331.443 154.557 331.443 155.136C331.443 155.724 331.56 156.237 331.793 156.676C332.026 157.105 332.339 157.437 332.731 157.67C333.123 157.894 333.557 158.006 334.033 158.006C334.509 158.006 334.943 157.894 335.335 157.67C335.736 157.437 336.054 157.105 336.287 156.676C336.52 156.237 336.637 155.729 336.637 155.15Z" fill="#666D80"/>
</g>
<rect x="3.5" y="1.5" width="351" height="173" rx="15.5" stroke="#272835"/>
</g>
<defs>
<filter id="filter0_d_1_2508" x="0" y="0" width="358" height="180" filterUnits="userSpaceOnUse" color-interpolation-filters="sRGB">
<feFlood flood-opacity="0" result="BackgroundImageFix"/>
<feColorMatrix in="SourceAlpha" type="matrix" values="0 0 0 0 0 0 0 0 0 0 0 0 0 0 0 0 0 0 127 0" result="hardAlpha"/>
<feMorphology radius="1" operator="erode" in="SourceAlpha" result="effect1_dropShadow_1_2508"/>
<feOffset dy="2"/>
<feGaussianBlur stdDeviation="2"/>
<feComposite in2="hardAlpha" operator="out"/>
<feColorMatrix type="matrix" values="0 0 0 0 0.0509804 0 0 0 0 0.0509804 0 0 0 0 0.0705882 0 0 0 0.06 0"/>
<feBlend mode="normal" in2="BackgroundImageFix" result="effect1_dropShadow_1_2508"/>
<feBlend mode="normal" in="SourceGraphic" in2="effect1_dropShadow_1_2508" result="shape"/>
</filter>
<filter id="filter1_d_1_2508" x="17" y="16" width="44" height="44" filterUnits="userSpaceOnUse" color-interpolation-filters="sRGB">
<feFlood flood-opacity="0" result="BackgroundImageFix"/>
<feColorMatrix in="SourceAlpha" type="matrix" values="0 0 0 0 0 0 0 0 0 0 0 0 0 0 0 0 0 0 127 0" result="hardAlpha"/>
<feOffset dy="1"/>
<feGaussianBlur stdDeviation="1"/>
<feComposite in2="hardAlpha" operator="out"/>
<feColorMatrix type="matrix" values="0 0 0 0 0.0509804 0 0 0 0 0.0509804 0 0 0 0 0.0705882 0 0 0 0.06 0"/>
<feBlend mode="normal" in2="BackgroundImageFix" result="effect1_dropShadow_1_2508"/>
<feBlend mode="normal" in="SourceGraphic" in2="effect1_dropShadow_1_2508" result="shape"/>
</filter>
<clipPath id="clip0_1_2508">
<rect x="3" y="1" width="352" height="174" rx="16" fill="white"/>
</clipPath>
<clipPath id="clip1_1_2508">
<rect width="20" height="20" fill="white" transform="translate(319 102)"/>
</clipPath>
</defs>
</svg>
